<svg width="182" height="50" viewBox="0 0 182 50" fill="none" xmlns="http://www.w3.org/2000/svg">
<path d="M2.63761 46.712C18.6638 44.9428 54.8473 41.8846 70.2838 39.9287C77.7712 38.8522 85.1554 37.2256 92.4634 35.3819C114.395 29.8052 135.906 23.224 156.958 15.1834C163.977 12.5254 170.852 9.5439 177.773 6.53648C177.773 6.53648 177.948 6.82378 177.937 6.82473C171.564 10.8041 164.901 14.3826 158.055 17.585C144.338 23.9696 129.889 28.8498 115.14 32.4812C102.415 35.9149 83.6191 38.6682 70.4634 40.9864C55.5963 43.8901 40.5813 46.5602 25.4033 47.0766C17.8241 47.4569 10.2189 47.5154 2.64042 47.0357L2.63671 46.7009L2.63761 46.712Z" fill="#F1E8A0"/>
<path d="M149.668 2.3493C156.186 2.3343 163.352 2.92577 169.879 3.31212C171.562 3.38781 174.266 3.61524 175.9 3.38213L178.893 3.27337C176.406 10.3441 173.643 17.3367 170.734 24.2629C170.014 26.0749 168.746 28.6573 168.312 30.5354C168.283 23.8251 170.751 17.2362 172.597 10.7983C173.292 8.66449 174.022 6.53896 174.801 4.43184L176.989 6.54398C176.586 6.63254 176.146 6.70174 175.752 6.75606C166.872 6.7169 158.12 4.77982 149.669 2.3604L149.668 2.3493Z" fill="#F1E8A0"/>
</svg>
