<svg width="182" height="50" viewBox="0 0 182 50" fill="none" xmlns="http://www.w3.org/2000/svg">
<path d="M1.97145 3.66018C18.0438 4.97213 54.3079 6.85032 69.7953 8.40551C77.3107 9.30781 84.7369 10.8517 92.0924 12.6505C114.168 18.099 135.848 24.7298 157.106 33.0712C164.194 35.826 171.146 38.9617 178.144 42.1255C178.144 42.1255 178.312 41.7848 178.3 41.7842C171.826 37.4701 165.071 33.6334 158.143 30.2405C144.262 23.4793 129.688 18.4932 114.845 14.9668C102.031 11.5763 83.1637 9.25218 69.9479 7.17282C55.0057 4.49415 39.9215 2.09284 24.7293 2.1922C17.14 2.10011 9.53277 2.38176 1.96599 3.28534L1.97083 3.67307L1.97145 3.66018Z" fill="#F1E8A0"/>
<path d="M150.143 48.264C156.662 47.9819 163.812 46.968 170.33 46.2209C172.012 46.0559 174.71 45.6684 176.35 45.8632L179.346 45.8516C176.678 37.7802 173.737 29.8119 170.651 21.9271C169.884 19.8625 168.55 16.9311 168.068 14.7768C168.211 22.5465 170.847 30.061 172.857 37.4294C173.607 39.8677 174.391 42.2949 175.224 44.6985L177.358 42.1528C176.953 42.0688 176.511 42.0089 176.115 41.9641C167.236 42.4173 158.533 45.0619 150.143 48.2511L150.143 48.264Z" fill="#F1E8A0"/>
</svg>
