<svg width="186" height="70" viewBox="0 0 186 70" fill="none" xmlns="http://www.w3.org/2000/svg">
<path d="M6.08321 69.227C23.6819 58.0004 42.9325 49.5695 62.8231 43.34C65.5337 42.4543 70.8846 40.5981 73.548 39.6245C86.0759 35.2876 98.4227 30.3972 111.288 27.076C127.724 22.4226 144.696 19.5483 161.741 18.5275C167.414 18.267 173.133 18.3424 178.813 18.3994L178.825 18.7515C171.33 19.8365 163.83 20.3677 156.382 21.7175C128.546 26.1443 100.799 32.0099 73.8959 40.627C64.9887 43.7429 56.3795 47.6675 47.8036 51.5758L6.25292 69.5225L6.08164 69.2154L6.08321 69.227Z" fill="#F1E8A0"/>
<path d="M156.794 3.05131C162.484 6.23226 168.436 10.2978 173.93 13.8591C175.36 14.7507 177.598 16.2995 179.151 16.8795L181.812 18.2414C175.212 24.2883 168.296 30.0949 161.32 35.7208C160.445 36.4879 159.488 37.1717 158.751 38.0853C159.164 36.9561 159.933 36.0147 160.603 35.0395C164.168 30.3585 168.305 26.1545 172.504 22.06C174.195 20.4395 175.903 18.8522 177.662 17.2933L178.494 20.3061C178.1 20.1825 177.679 20.0389 177.305 19.889C169.587 15.4963 162.938 9.4141 156.794 3.05131Z" fill="#F1E8A0"/>
</svg>
