<svg width="28" height="33" viewBox="0 0 28 33" fill="none" xmlns="http://www.w3.org/2000/svg">
<path d="M7.52551 33C6.88776 33 6.34566 32.7722 5.89923 32.3166C5.45281 31.8611 5.22959 31.3079 5.22959 30.6571C5.22959 30.0063 5.45281 29.4531 5.89923 28.9975C6.34566 28.5419 6.88776 28.3141 7.52551 28.3141C8.16327 28.3141 8.70536 28.5419 9.15178 28.9975C9.59821 29.4531 9.82143 30.0063 9.82143 30.6571C9.82143 31.3079 9.59821 31.8611 9.15178 32.3166C8.70536 32.7722 8.16327 33 7.52551 33ZM20.2806 33C19.6429 33 19.1008 32.7722 18.6543 32.3166C18.2079 31.8611 17.9847 31.3079 17.9847 30.6571C17.9847 30.0063 18.2079 29.4531 18.6543 28.9975C19.1008 28.5419 19.6429 28.3141 20.2806 28.3141C20.9184 28.3141 21.4605 28.5419 21.9069 28.9975C22.3533 29.4531 22.5765 30.0063 22.5765 30.6571C22.5765 31.3079 22.3533 31.8611 21.9069 32.3166C21.4605 32.7722 20.9184 33 20.2806 33ZM5.86735 11.5232L9.375 18.9424H18.5587L22.5446 11.5232H5.86735ZM4.91071 9.57071H23.6926C24.1815 9.57071 24.5536 9.7985 24.8087 10.2541C25.0638 10.7096 25.0638 11.1652 24.8087 11.6208L20.5038 19.5282C20.27 19.9403 19.9671 20.2712 19.595 20.5207C19.223 20.7701 18.8138 20.8949 18.3673 20.8949H8.70536L6.91964 24.2791H22.5765V26.2315H7.20663C6.31378 26.2315 5.67071 25.9278 5.27742 25.3204C4.88414 24.713 4.88946 24.0296 5.29337 23.2703L7.33418 19.4305L2.48724 8.95244H0V7H3.73087L4.91071 9.57071Z" fill="#4C5930"/>
<circle cx="20" cy="8" r="8" fill="#E77622"/>
<path d="M18.3443 10.45C18.9843 9.89667 19.4876 9.44333 19.8543 9.09C20.2276 8.73 20.5376 8.35667 20.7843 7.97C21.0309 7.58333 21.1543 7.19667 21.1543 6.81C21.1543 6.41 21.0576 6.09667 20.8643 5.87C20.6776 5.64333 20.3809 5.53 19.9743 5.53C19.5809 5.53 19.2743 5.65667 19.0543 5.91C18.8409 6.15667 18.7276 6.49 18.7143 6.91H17.6143C17.6343 6.15 17.8609 5.57 18.2943 5.17C18.7343 4.76333 19.2909 4.56 19.9643 4.56C20.6909 4.56 21.2576 4.76 21.6643 5.16C22.0776 5.56 22.2843 6.09333 22.2843 6.76C22.2843 7.24 22.1609 7.70333 21.9143 8.15C21.6743 8.59 21.3843 8.98667 21.0443 9.34C20.7109 9.68667 20.2843 10.09 19.7643 10.55L19.3143 10.95H22.4843V11.9H17.6243V11.07L18.3443 10.45Z" fill="white"/>
</svg>
