<svg width="154" height="203" viewBox="0 0 154 203" fill="none" xmlns="http://www.w3.org/2000/svg">
<path d="M144.226 195.56C123.56 202.211 101.164 203.941 79.9509 198.79C77.3692 198.205 74.6349 197.391 72.0787 196.742C68.0981 195.903 64.8042 192.329 64.092 188.374L63.418 185.754L63.3798 185.589C63.2018 156.758 64.2446 127.94 64.2955 99.1088C64.3463 91.9234 64.2446 84.7252 64.2319 77.5397C64.1556 73.9787 64.2573 70.2524 65.0713 66.6788C68.1235 52.0026 82.3291 40.9128 97.3105 41.2562C102.69 41.2434 113.513 41.0654 118.88 41.0527C130.211 40.722 141.441 46.5213 147.634 56.085C151.92 62.2276 153.408 70.2779 153.09 77.5524C153.268 113.314 152.187 149.725 151.628 185.424V185.449V185.475L150.814 188.641C150.076 191.91 147.482 194.669 144.239 195.56H144.226ZM144.137 195.254C147.253 194.351 149.72 191.706 150.394 188.539L151.183 185.36C150.839 156.898 149.758 127.787 149.771 99.1216L149.707 77.5524C149.962 70.4686 148.779 63.7664 144.9 57.8654C139.355 49.1157 129.27 43.7615 118.867 43.9396C113.487 43.9396 102.665 43.7615 97.2978 43.7361C78.463 43.1892 64.0411 58.8701 65.3256 77.5524C64.8169 112.933 66.4193 151.022 66.1395 185.08C66.5211 186.314 66.928 188.896 67.5258 189.989C68.5686 192.113 70.4635 193.639 72.7782 194.237L75.3726 195C77.1022 195.522 78.8318 196.017 80.5359 196.488C101.253 202.427 123.636 201.893 144.137 195.254Z" fill="#F3E89F"/>
<path d="M123.28 42.5915C118.6 43.2655 113.526 43.6216 108.63 43.7742C103.504 44.0667 98.1122 43.1892 93.0251 42.9984L92.4909 42.9857V42.4897C92.6181 38.8779 92.4146 35.2661 92.084 31.6543C96.815 31.1456 103.276 30.9294 108.096 30.7895C113.564 30.6496 119.033 30.8912 124.489 31.2855C124.298 35.0499 123.776 39.0051 123.28 42.6042V42.5915ZM123.052 42.3625C122.683 38.9033 122.161 35.7239 121.92 32.43L123.166 33.6764C120.648 33.8544 118.142 33.9943 115.624 34.0579C111.262 34.2487 104.967 33.9943 100.554 33.8417C98.0359 33.7654 95.5305 33.5238 93.0124 33.3076L93.8772 32.4428C93.5847 35.7875 93.4193 39.145 93.5211 42.4897L93.0124 41.981C97.9596 41.7902 102.602 40.9127 107.549 41.2052C112.725 41.3706 117.697 41.7775 123.052 42.388V42.3625Z" fill="#F3E89F"/>
<path d="M115.638 16.5711C115.816 22.4085 110.462 27.5846 104.688 24.4688C97.5534 19.9286 100.504 11.8402 104.052 5.9773C105.209 3.96791 106.659 1.89493 108.045 0C112.064 4.71826 114.964 10.3649 115.638 16.5711ZM115.32 16.5711C115.116 13.9513 113.056 11.9165 111.454 9.98337C109.775 8.02485 108.262 5.91372 106.748 3.85345H109.432C106.697 7.60517 103.238 11.2679 101.407 15.5664C99.3974 24.3162 115.193 24.9648 115.32 16.5838V16.5711Z" fill="#F3E89F"/>
<path d="M118.676 71.2952C118.74 83.4661 104.064 87.8918 98.4424 76.6112C96.0515 72.071 97.6157 67.1874 99.587 62.8507C101.8 57.9162 104.827 53.4269 108.057 49.1029C113.22 55.5126 117.621 63.0288 118.676 71.2952ZM118.358 71.2952C118.04 67.5944 115.42 64.593 113.271 61.7316C111.313 59.2007 108.68 55.5126 106.76 52.9182H109.43C105.577 58.2596 100.808 63.6392 98.4424 69.82C95.9497 82.9065 117.939 83.9875 118.358 71.308V71.2952Z" fill="#F3E89F"/>
<path d="M87.4671 51.9644C85.0126 54.4952 82.3546 56.4665 79.7856 58.7684C76.212 63.245 74.9783 68.8789 73.6303 74.3857H73.4777C73.3759 73.8134 73.2996 73.2284 73.236 72.6306C72.7527 67.8361 75.0546 63.1687 78.3104 59.7985C80.1671 57.5729 81.617 54.8513 84.2114 53.3634C85.1906 52.7148 86.2462 52.1552 87.3908 51.8245L87.4671 51.9644Z" fill="#F3E89F"/>
<path d="M151.489 100.393C150.993 103 143.833 103.954 141.505 104.565C123.256 108.1 104.522 107.706 86.1072 106.002C57.5942 103.725 57.696 97.0105 86.0691 94.3143C104.522 92.7246 123.268 92.8009 141.518 96.1965C144.647 96.9214 148.03 97.3793 150.751 99.1852C151.12 99.465 151.489 99.8592 151.502 100.381L151.489 100.393ZM151.336 100.393C148.449 93.3223 95.2385 94.9629 86.1963 95.8023C58.9041 97.9643 58.9423 102.886 86.1581 105.468C94.2847 106.282 149.696 107.07 151.336 100.406V100.393Z" fill="#F3E89F"/>
<path d="M125.24 99.0198C126.511 99.0706 127.745 99.0961 129.055 99.6175C129.22 99.7065 129.411 99.7956 129.576 100.101C130.021 101.474 127.402 101.881 126.524 102.161C119.097 103.7 111.441 103.636 103.938 102.644C106.443 102.339 108.948 102.237 111.441 102.072L118.906 101.614C122.187 101.296 125.748 101.423 128.801 100.342C128.788 100.368 128.801 100.431 128.813 100.444C127.987 99.6938 126.448 99.4395 125.24 99.0198Z" fill="#F3E89F"/>
<path d="M90.4316 101.449C89.6558 101.385 87.0869 101.093 88.1679 99.8464C89.6049 98.8036 91.4236 98.6255 93.0769 98.2694C101 96.9722 109.101 97.1503 117.037 98.2694C114.366 98.5111 111.708 98.651 109.063 98.7018L101.127 99.0325C96.9685 99.3631 92.53 99.0834 88.5367 100.304C88.4222 100.381 88.4222 100.393 88.4095 100.406C88.8292 100.978 89.7448 101.156 90.4189 101.449H90.4316Z" fill="#F3E89F"/>
<path d="M73.6672 127.507C75.0152 133.548 74.621 139.665 73.9342 145.745C73.8706 151.824 75.0407 157.877 74.8118 163.982C74.6973 168.039 74.4302 172.083 73.6672 176.14H73.4255C72.3191 170.073 72.1029 164.02 72.4208 157.903C72.4971 153.858 73.3492 149.801 73.1585 145.745C72.8278 141.7 72.1792 137.669 72.6243 133.586C72.7769 131.564 72.9677 129.529 73.4255 127.507H73.6672Z" fill="#F3E89F"/>
<path d="M111.605 75.5811C111.911 74.6273 112.508 72.6688 112.776 71.7149C113.144 70.4305 113.424 69.0951 113.996 67.7725C116.438 70.1379 115.116 75.1996 111.605 75.5938V75.5811Z" fill="#F3E89F"/>
<path d="M47.0626 201.372C38.7834 201.372 30.4914 203.139 22.1868 202.529C19.4652 202.592 17.0743 199.833 17.4685 197.226C17.6339 195.153 17.7865 193.08 17.8374 191.007C17.8882 188.934 17.8755 186.861 17.8119 184.788C17.5321 182.384 19.5542 179.879 22.0978 179.841C30.377 179.217 38.6816 179.027 46.9735 179.014C49.5425 178.95 52.0733 181.074 52.315 183.694C52.404 186.149 52.0733 188.476 51.8571 190.905C51.6536 192.978 51.412 195.051 51.2467 197.124C51.2848 199.4 49.2754 201.461 47.0626 201.359V201.372ZM47.0626 201.054C52.2768 200.609 49.835 194.593 49.7714 190.905C49.5552 188.832 49.3645 186.759 49.2882 184.686C49.2627 183.249 48.2326 182.321 46.9608 182.384C38.6562 182.384 30.3643 182.181 22.0851 181.57C20.4699 181.405 18.7403 182.842 18.8675 184.788C18.7276 188.946 18.8548 193.08 19.2109 197.226C19.2745 198.993 20.7624 200.062 22.1741 199.896C30.4787 199.286 38.7706 201.054 47.0499 201.054H47.0626Z" fill="#F3E89F"/>
<path d="M50.0383 163.74C49.8094 163.88 49.5042 163.893 49.2371 163.969C42.0897 165.253 34.6753 164.618 27.5153 163.88C20.6605 163.244 12.305 161.832 6.63288 166.652C6.4294 166.856 6.11146 166.843 5.90797 166.652C4.9923 165.711 4.06391 164.77 3.11009 163.854L0.248609 161.12C-0.145639 160.751 -0.0566149 160.065 0.413939 159.81C6.26407 155.995 13.1952 154.609 20.0627 154.685C24.0434 154.634 29.4229 156.109 33.2891 157.089C37.5114 158.055 41.7972 158.691 46.134 159.009L47.8127 159.111C48.5503 159.174 49.2371 159.569 49.644 160.128C50.4325 161.209 50.0129 162.595 50.0383 163.74ZM49.7839 163.549C49.1353 160.713 49.2879 160.128 46.1594 160.624C39.5335 161.298 32.6151 160.281 26.2308 158.793C17.9898 157.089 9.03652 157.763 1.34233 161.247L1.50766 159.937L4.05119 162.977C4.90328 163.994 5.76808 164.974 6.65832 165.953H5.92069C8.88391 163.384 12.7246 162.405 16.4636 161.578C23.0005 159.937 32.259 161.642 38.8722 162.405C41.9499 162.748 46.5155 163.346 49.5677 163.473H49.7458C49.7967 163.486 49.8857 163.435 49.8221 163.537L49.7839 163.549Z" fill="#F3E89F"/>
<path d="M26.2167 162.634C27.7937 168.56 27.7429 174.703 26.6746 180.705L26.0641 180.095C31.6472 180.655 37.4719 179.052 43.1185 179.078L41.4779 180.718C41.2745 175.173 41.7196 169.679 42.9532 164.223C42.9786 164.071 43.233 164.058 43.2711 164.223C44.5175 169.667 44.9499 175.173 44.7464 180.718C44.7718 181.634 44.0342 182.41 43.1058 182.359C37.4464 182.384 31.6472 180.782 26.0514 181.341C25.7462 181.379 25.4791 181.151 25.4537 180.858C24.6906 176.318 24.3345 171.752 25.034 167.174C25.2375 165.673 25.4664 164.16 25.8988 162.659C25.937 162.506 26.1786 162.506 26.2167 162.659V162.634Z" fill="#F3E89F"/>
<path d="M25.4034 183.974C26.4844 188.59 26.4971 193.232 25.4034 197.849C24.3097 193.232 24.3224 188.59 25.4034 183.974Z" fill="#F3E89F"/>
<path d="M34.587 183.974C35.668 188.59 35.6807 193.232 34.587 197.849C33.4933 193.232 33.506 188.59 34.587 183.974Z" fill="#F3E89F"/>
<path d="M43.7569 183.974C44.8379 188.59 44.8507 193.232 43.7569 197.849C42.6632 193.232 42.6759 188.59 43.7569 183.974Z" fill="#F3E89F"/>
</svg>
