<svg width="1567" height="425" viewBox="0 0 1567 425" fill="none" xmlns="http://www.w3.org/2000/svg">
<path d="M144.226 311.56C123.56 318.211 101.164 319.941 79.9509 314.79C77.3692 314.205 74.6349 313.391 72.0787 312.742C68.0981 311.903 64.8042 308.329 64.092 304.374L63.418 301.754L63.3798 301.589C63.2018 272.758 64.2446 243.94 64.2955 215.109C64.3463 207.923 64.2446 200.725 64.2319 193.54C64.1556 189.979 64.2573 186.252 65.0713 182.679C68.1235 168.003 82.3291 156.913 97.3105 157.256C102.69 157.243 113.513 157.065 118.88 157.053C130.211 156.722 141.441 162.521 147.634 172.085C151.92 178.228 153.408 186.278 153.09 193.552C153.268 229.314 152.187 265.725 151.628 301.424V301.449V301.475L150.814 304.641C150.076 307.91 147.482 310.669 144.239 311.56H144.226ZM144.137 311.254C147.253 310.351 149.72 307.706 150.394 304.539L151.183 301.36C150.839 272.898 149.758 243.787 149.771 215.122L149.707 193.552C149.962 186.469 148.779 179.766 144.9 173.865C139.355 165.116 129.27 159.762 118.867 159.94C113.487 159.94 102.665 159.762 97.2978 159.736C78.463 159.189 64.0411 174.87 65.3256 193.552C64.8169 228.933 66.4193 267.022 66.1395 301.08C66.5211 302.314 66.928 304.896 67.5258 305.989C68.5686 308.113 70.4635 309.639 72.7782 310.237L75.3726 311C77.1022 311.521 78.8318 312.017 80.5359 312.488C101.253 318.427 123.636 317.893 144.137 311.254Z" fill="#F3E89F"/>
<path d="M123.28 158.591C118.6 159.266 113.526 159.622 108.63 159.774C103.504 160.067 98.1122 159.189 93.0251 158.998L92.4909 158.986V158.49C92.6181 154.878 92.4146 151.266 92.084 147.654C96.815 147.146 103.276 146.929 108.096 146.789C113.564 146.65 119.033 146.891 124.489 147.285C124.298 151.05 123.776 155.005 123.28 158.604V158.591ZM123.052 158.363C122.683 154.903 122.161 151.724 121.92 148.43L123.166 149.676C120.648 149.854 118.142 149.994 115.624 150.058C111.262 150.249 104.967 149.994 100.554 149.842C98.0359 149.765 95.5305 149.524 93.0124 149.308L93.8772 148.443C93.5847 151.788 93.4193 155.145 93.5211 158.49L93.0124 157.981C97.9596 157.79 102.602 156.913 107.549 157.205C112.725 157.371 117.697 157.778 123.052 158.388V158.363Z" fill="#F3E89F"/>
<path d="M115.638 132.571C115.816 138.409 110.462 143.585 104.688 140.469C97.5534 135.929 100.504 127.84 104.052 121.977C105.209 119.968 106.659 117.895 108.045 116C112.064 120.718 114.964 126.365 115.638 132.571ZM115.32 132.571C115.116 129.951 113.056 127.916 111.454 125.983C109.775 124.025 108.262 121.914 106.748 119.853H109.432C106.697 123.605 103.238 127.268 101.407 131.566C99.3974 140.316 115.193 140.965 115.32 132.584V132.571Z" fill="#F3E89F"/>
<path d="M118.676 187.295C118.74 199.466 104.064 203.892 98.4424 192.611C96.0515 188.071 97.6157 183.187 99.587 178.851C101.8 173.916 104.827 169.427 108.057 165.103C113.22 171.513 117.621 179.029 118.676 187.295ZM118.358 187.295C118.04 183.594 115.42 180.593 113.271 177.732C111.313 175.201 108.68 171.513 106.76 168.918H109.43C105.577 174.26 100.808 179.639 98.4424 185.82C95.9497 198.906 117.939 199.987 118.358 187.308V187.295Z" fill="#F3E89F"/>
<path d="M87.4671 167.964C85.0126 170.495 82.3546 172.466 79.7856 174.768C76.212 179.245 74.9783 184.879 73.6303 190.386H73.4777C73.3759 189.813 73.2996 189.228 73.236 188.631C72.7527 183.836 75.0546 179.169 78.3104 175.799C80.1671 173.573 81.617 170.851 84.2114 169.363C85.1906 168.715 86.2462 168.155 87.3908 167.825L87.4671 167.964Z" fill="#F3E89F"/>
<path d="M151.489 216.393C150.993 219 143.833 219.954 141.505 220.565C123.256 224.1 104.522 223.706 86.1072 222.002C57.5942 219.725 57.696 213.01 86.0691 210.314C104.522 208.725 123.268 208.801 141.518 212.197C144.647 212.921 148.03 213.379 150.751 215.185C151.12 215.465 151.489 215.859 151.502 216.381L151.489 216.393ZM151.336 216.393C148.449 209.322 95.2385 210.963 86.1963 211.802C58.9041 213.964 58.9423 218.886 86.1581 221.468C94.2847 222.282 149.696 223.07 151.336 216.406V216.393Z" fill="#F3E89F"/>
<path d="M125.24 215.02C126.511 215.071 127.745 215.096 129.055 215.618C129.22 215.707 129.411 215.796 129.576 216.101C130.021 217.474 127.402 217.881 126.524 218.161C119.097 219.7 111.441 219.636 103.938 218.644C106.443 218.339 108.948 218.237 111.441 218.072L118.906 217.614C122.187 217.296 125.748 217.423 128.801 216.342C128.788 216.368 128.801 216.431 128.813 216.444C127.987 215.694 126.448 215.439 125.24 215.02Z" fill="#F3E89F"/>
<path d="M90.4316 217.449C89.6558 217.385 87.0869 217.093 88.1679 215.846C89.6049 214.804 91.4236 214.626 93.0769 214.269C101 212.972 109.101 213.15 117.037 214.269C114.366 214.511 111.708 214.651 109.063 214.702L101.127 215.032C96.9685 215.363 92.53 215.083 88.5367 216.304C88.4222 216.381 88.4222 216.393 88.4095 216.406C88.8292 216.978 89.7448 217.156 90.4189 217.449H90.4316Z" fill="#F3E89F"/>
<path d="M73.6672 243.507C75.0152 249.548 74.621 255.665 73.9342 261.745C73.8706 267.824 75.0407 273.877 74.8118 279.982C74.6973 284.039 74.4302 288.083 73.6672 292.14H73.4255C72.3191 286.073 72.1029 280.02 72.4208 273.903C72.4971 269.858 73.3492 265.801 73.1585 261.745C72.8278 257.7 72.1792 253.669 72.6243 249.586C72.7769 247.564 72.9677 245.529 73.4255 243.507H73.6672Z" fill="#F3E89F"/>
<path d="M111.605 191.581C111.911 190.627 112.508 188.669 112.776 187.715C113.144 186.43 113.424 185.095 113.996 183.772C116.438 186.138 115.116 191.2 111.605 191.594V191.581Z" fill="#F3E89F"/>
<path d="M47.0626 317.372C38.7834 317.372 30.4914 319.139 22.1868 318.529C19.4652 318.592 17.0743 315.833 17.4685 313.226C17.6339 311.153 17.7865 309.08 17.8374 307.007C17.8882 304.934 17.8755 302.861 17.8119 300.788C17.5321 298.384 19.5542 295.879 22.0978 295.841C30.377 295.217 38.6816 295.027 46.9735 295.014C49.5425 294.95 52.0733 297.074 52.315 299.694C52.404 302.149 52.0733 304.476 51.8571 306.905C51.6536 308.978 51.412 311.051 51.2467 313.124C51.2848 315.4 49.2754 317.461 47.0626 317.359V317.372ZM47.0626 317.054C52.2768 316.609 49.835 310.593 49.7714 306.905C49.5552 304.832 49.3645 302.759 49.2882 300.686C49.2627 299.249 48.2326 298.321 46.9608 298.384C38.6562 298.384 30.3643 298.181 22.0851 297.57C20.4699 297.405 18.7403 298.842 18.8675 300.788C18.7276 304.946 18.8548 309.08 19.2109 313.226C19.2745 314.993 20.7624 316.062 22.1741 315.896C30.4787 315.286 38.7706 317.054 47.0499 317.054H47.0626Z" fill="#F3E89F"/>
<path d="M50.0383 279.74C49.8094 279.88 49.5042 279.893 49.2371 279.969C42.0897 281.253 34.6753 280.618 27.5153 279.88C20.6605 279.244 12.305 277.832 6.63288 282.652C6.4294 282.856 6.11146 282.843 5.90797 282.652C4.9923 281.711 4.06391 280.77 3.11009 279.854L0.248609 277.12C-0.145639 276.751 -0.0566149 276.065 0.413939 275.81C6.26407 271.995 13.1952 270.609 20.0627 270.685C24.0434 270.634 29.4229 272.109 33.2891 273.089C37.5114 274.055 41.7972 274.691 46.134 275.009L47.8127 275.111C48.5503 275.174 49.2371 275.569 49.644 276.128C50.4325 277.209 50.0129 278.595 50.0383 279.74ZM49.7839 279.549C49.1353 276.713 49.2879 276.128 46.1594 276.624C39.5335 277.298 32.6151 276.281 26.2308 274.793C17.9898 273.089 9.03652 273.763 1.34233 277.247L1.50766 275.937L4.05119 278.977C4.90328 279.994 5.76808 280.974 6.65832 281.953H5.92069C8.88391 279.384 12.7246 278.405 16.4636 277.578C23.0005 275.937 32.259 277.642 38.8722 278.405C41.9499 278.748 46.5155 279.346 49.5677 279.473H49.7458C49.7967 279.486 49.8857 279.435 49.8221 279.537L49.7839 279.549Z" fill="#F3E89F"/>
<path d="M26.2167 278.634C27.7937 284.56 27.7429 290.703 26.6746 296.705L26.0641 296.095C31.6472 296.655 37.4719 295.052 43.1185 295.078L41.4779 296.718C41.2745 291.173 41.7196 285.679 42.9532 280.223C42.9786 280.071 43.233 280.058 43.2711 280.223C44.5175 285.667 44.9499 291.173 44.7464 296.718C44.7718 297.634 44.0342 298.41 43.1058 298.359C37.4464 298.384 31.6472 296.782 26.0514 297.341C25.7462 297.379 25.4791 297.151 25.4537 296.858C24.6906 292.318 24.3345 287.752 25.034 283.174C25.2375 281.673 25.4664 280.16 25.8988 278.659C25.937 278.506 26.1786 278.506 26.2167 278.659V278.634Z" fill="#F3E89F"/>
<path d="M25.4034 299.974C26.4844 304.59 26.4971 309.232 25.4034 313.849C24.3097 309.232 24.3224 304.59 25.4034 299.974Z" fill="#F3E89F"/>
<path d="M34.587 299.974C35.668 304.59 35.6807 309.232 34.587 313.849C33.4933 309.232 33.506 304.59 34.587 299.974Z" fill="#F3E89F"/>
<path d="M43.7569 299.974C44.8379 304.59 44.8507 309.232 43.7569 313.849C42.6632 309.232 42.6759 304.59 43.7569 299.974Z" fill="#F3E89F"/>
<path d="M1480.93 231.314C1460.27 237.966 1437.87 239.695 1416.66 234.545C1414.08 233.96 1411.34 233.146 1408.79 232.497C1404.81 231.658 1401.51 228.084 1400.8 224.129L1400.12 221.509L1400.09 221.344C1399.91 192.513 1400.95 163.694 1401 134.864C1401.05 127.678 1400.95 120.48 1400.94 113.294C1400.86 109.733 1400.96 106.007 1401.78 102.433C1404.83 87.7573 1419.04 76.6675 1434.02 77.0109C1439.4 76.9981 1450.22 76.8201 1455.59 76.8074C1466.92 76.4767 1478.15 82.276 1484.34 91.8397C1488.63 97.9823 1490.12 106.033 1489.8 113.307C1489.98 149.069 1488.89 185.48 1488.33 221.178V221.204V221.229L1487.51 224.396C1486.77 227.664 1484.18 230.424 1480.93 231.314ZM1480.84 231.009C1483.96 230.106 1486.43 227.461 1487.1 224.294L1487.89 221.115C1487.55 192.653 1486.47 163.542 1486.48 134.876L1486.41 113.307C1486.67 106.223 1485.49 99.5211 1481.61 93.6201C1476.06 84.8704 1465.98 79.5162 1455.57 79.6943C1450.19 79.6943 1439.37 79.5162 1434 79.4908C1415.17 78.9439 1400.75 94.6248 1402.03 113.307C1401.52 148.688 1403.13 186.777 1402.85 220.835C1403.23 222.069 1403.64 224.65 1404.23 225.744C1405.28 227.868 1407.17 229.394 1409.49 229.992L1412.08 230.755C1413.81 231.276 1415.54 231.772 1417.24 232.243C1437.96 238.182 1460.34 237.648 1480.84 231.009Z" fill="#F3E89F"/>
<path d="M1424.17 87.7065C1422.99 89.4361 1421.3 90.428 1419.53 91.3819C1417.24 93.7219 1416.1 96.7233 1413.21 98.9234L1413.07 98.8471C1413.29 97.4482 1413.86 96.1764 1414.65 95.0573C1415.78 93.315 1417.71 92.3866 1419.19 91.0131C1420.04 89.9702 1420.8 88.7747 1422.11 88.2279C1422.72 87.9227 1423.36 87.6556 1424.1 87.5793L1424.17 87.7192V87.7065Z" fill="#F3E89F"/>
<path d="M1488.18 116.359C1487.69 118.967 1480.53 119.92 1478.2 120.531C1459.95 124.066 1441.22 123.672 1422.8 121.968C1394.29 119.691 1394.39 112.977 1422.76 110.28C1441.22 108.691 1459.96 108.767 1478.21 112.163C1481.34 112.887 1484.72 113.345 1487.44 115.151C1487.81 115.431 1488.18 115.825 1488.19 116.347L1488.18 116.359ZM1488.03 116.359C1485.14 109.288 1431.93 110.929 1422.89 111.768C1395.6 113.93 1395.64 118.852 1422.85 121.434C1430.98 122.248 1486.39 123.036 1488.03 116.372V116.359Z" fill="#F3E89F"/>
<path d="M1461.95 114.986C1463.22 115.037 1464.45 115.062 1465.76 115.584C1465.93 115.673 1466.12 115.762 1466.28 116.067C1466.73 117.44 1464.11 117.847 1463.23 118.127C1455.8 119.666 1448.15 119.602 1440.64 118.61C1443.15 118.305 1445.66 118.203 1448.15 118.038L1455.61 117.58C1458.89 117.262 1462.46 117.389 1465.51 116.308C1465.49 116.334 1465.51 116.397 1465.52 116.41C1464.69 115.66 1463.15 115.405 1461.95 114.986Z" fill="#F3E89F"/>
<path d="M1427.12 117.415C1426.35 117.351 1423.78 117.059 1424.86 115.812C1426.3 114.77 1428.12 114.592 1429.77 114.235C1437.69 112.938 1445.79 113.116 1453.73 114.235C1451.06 114.477 1448.4 114.617 1445.76 114.668L1437.82 114.998C1433.66 115.329 1429.22 115.049 1425.23 116.27C1425.12 116.347 1425.12 116.359 1425.1 116.372C1425.52 116.944 1426.44 117.122 1427.11 117.415H1427.12Z" fill="#F3E89F"/>
<path d="M1410.37 142.456C1411.72 148.497 1411.33 154.614 1410.64 160.693C1410.58 166.772 1411.75 172.826 1411.52 178.93C1411.4 182.987 1411.14 187.031 1410.37 191.088H1410.13C1409.03 185.022 1408.81 178.968 1409.13 172.851C1409.2 168.807 1410.06 164.75 1409.87 160.693C1409.53 156.649 1408.89 152.617 1409.33 148.535C1409.48 146.513 1409.67 144.478 1410.13 142.456H1410.37Z" fill="#F3E89F"/>
<path d="M1457.29 78.6895C1449.01 78.6895 1440.72 80.4573 1432.42 79.8468C1429.69 79.9104 1427.3 77.1507 1427.7 74.5435C1427.86 72.4706 1428.02 70.3976 1428.07 68.3246C1428.12 66.2516 1428.1 64.1786 1428.04 62.1057C1427.76 59.702 1429.78 57.1966 1432.33 57.1585C1440.61 56.5353 1448.91 56.3446 1457.2 56.3318C1459.77 56.2682 1462.3 58.3921 1462.54 61.0119C1462.63 63.4665 1462.3 65.7938 1462.09 68.2229C1461.88 70.2958 1461.64 72.3688 1461.48 74.4418C1461.51 76.7183 1459.5 78.7785 1457.29 78.6768V78.6895ZM1457.29 78.3716C1462.51 77.9264 1460.06 71.9237 1460 68.2229C1459.78 66.1499 1459.59 64.0769 1459.52 62.0039C1459.49 60.5668 1458.46 59.6384 1457.19 59.702C1448.88 59.702 1440.59 59.4985 1432.31 58.8881C1430.7 58.7228 1428.97 60.1599 1429.1 62.1057C1428.96 66.2643 1429.08 70.3976 1429.44 74.5435C1429.5 76.3113 1430.99 77.3796 1432.4 77.2143C1440.71 76.6038 1449 78.3716 1457.28 78.3716H1457.29Z" fill="#F3E89F"/>
<path d="M1460.27 41.0707C1460.04 41.2106 1459.73 41.2233 1459.47 41.2996C1452.32 42.5841 1444.9 41.9482 1437.76 41.2106C1430.9 40.5747 1422.55 39.163 1416.88 43.983C1416.67 44.1865 1416.35 44.1738 1416.15 43.983C1415.23 43.0419 1414.31 42.1008 1413.35 41.1851L1410.49 38.4508C1410.1 38.082 1410.19 37.3953 1410.66 37.1409C1416.52 33.3129 1423.45 31.9267 1430.32 32.003C1434.3 31.9521 1439.68 33.4273 1443.54 34.4066C1447.77 35.3732 1452.05 36.009 1456.39 36.327L1458.07 36.4287C1458.81 36.4923 1459.49 36.8866 1459.9 37.4461C1460.69 38.5271 1460.27 39.9134 1460.29 41.0579L1460.27 41.0707ZM1460.01 40.8799C1459.36 38.0439 1459.52 37.4588 1456.39 37.9548C1449.76 38.6289 1442.84 37.6115 1436.46 36.1235C1428.22 34.4193 1419.27 35.0934 1411.57 38.578L1411.74 37.2681L1414.28 40.3076C1415.13 41.325 1416 42.3043 1416.89 43.2835H1416.15C1419.11 40.7146 1422.95 39.7353 1426.69 38.9087C1433.23 37.2681 1442.49 38.9723 1449.1 39.7353C1452.18 40.0787 1456.74 40.6764 1459.8 40.8036H1459.98C1460.03 40.8163 1460.12 40.7654 1460.05 40.8672L1460.01 40.8799Z" fill="#F3E89F"/>
<path d="M1436.44 39.9516C1438.01 45.878 1437.96 52.0206 1436.89 58.0234L1436.28 57.4129C1441.87 57.9725 1447.69 56.3701 1453.34 56.3955L1451.7 58.0361C1451.49 52.4912 1451.94 46.9972 1453.17 41.5413C1453.2 41.3887 1453.45 41.376 1453.49 41.5413C1454.74 46.9844 1455.17 52.4912 1454.97 58.0361C1454.99 58.9518 1454.25 59.7276 1453.32 59.6767C1447.67 59.7021 1441.87 58.0997 1436.27 58.6593C1435.96 58.6974 1435.7 58.4685 1435.67 58.176C1434.91 53.6358 1434.55 49.0701 1435.25 44.4918C1435.46 42.9911 1435.69 41.4777 1436.12 39.977C1436.16 39.8244 1436.4 39.8244 1436.44 39.977V39.9516Z" fill="#F3E89F"/>
<path d="M1435.63 61.3045C1436.71 65.921 1436.73 70.563 1435.63 75.1795C1434.54 70.563 1434.55 65.921 1435.63 61.3045Z" fill="#F3E89F"/>
<path d="M1444.8 61.3045C1445.88 65.921 1445.9 70.563 1444.8 75.1795C1443.71 70.563 1443.72 65.921 1444.8 61.3045Z" fill="#F3E89F"/>
<path d="M1453.99 61.3045C1455.07 65.921 1455.08 70.563 1453.99 75.1795C1452.89 70.563 1452.9 65.921 1453.99 61.3045Z" fill="#F3E89F"/>
<path d="M1497.88 86.2311C1501.3 82.0089 1505.85 79.1601 1510.53 76.6038C1514.84 73.5135 1518.39 69.4311 1522.81 66.4679C1525.73 64.4712 1528.74 62.6017 1532.06 61.1392L1532.2 61.3299C1528.6 65.3741 1524.49 68.6807 1519.99 71.5677C1517.09 73.5898 1513.73 74.976 1511 77.227C1508.35 79.5798 1505.93 82.1996 1502.78 83.9419C1501.27 84.8703 1499.72 85.7479 1498.03 86.4219L1497.89 86.2311H1497.88Z" fill="#F3E89F"/>
<path d="M1511.95 178.79C1517.26 178.511 1522.27 179.999 1527.16 181.779C1532.2 182.924 1537.48 182.835 1542.5 184.144C1545.85 184.984 1549.15 185.976 1552.36 187.464L1552.31 187.705C1547.03 187.731 1541.95 186.879 1536.94 185.454C1533.6 184.653 1530.42 183.076 1527 182.542C1523.58 182.148 1520.08 182.084 1516.79 180.914C1515.13 180.405 1513.49 179.846 1511.9 179.032L1511.95 178.79Z" fill="#F3E89F"/>
<path d="M1511.89 132.994C1518.26 129.713 1525.2 128.136 1532.19 126.851C1539 124.944 1545.44 121.841 1552.31 120.098C1556.86 118.903 1561.47 117.86 1566.22 117.3L1566.28 117.529C1559.81 120.569 1553.11 122.756 1546.2 124.397C1541.65 125.618 1536.89 126.088 1532.41 127.589C1527.99 129.217 1523.67 131.163 1518.99 132.04C1516.68 132.549 1514.36 133.007 1511.96 133.21L1511.9 132.981L1511.89 132.994Z" fill="#F3E89F"/>
<path d="M1387.27 93.3657C1382.21 91.369 1378.14 87.8844 1374.28 84.1708C1370.05 80.9787 1365.08 78.8294 1360.93 75.4973C1358.15 73.3099 1355.46 70.9953 1353.08 68.2737L1353.22 68.0829C1358.16 70.3085 1362.55 73.2336 1366.65 76.6674C1369.45 78.8294 1371.78 81.6145 1374.75 83.5476C1377.79 85.3535 1381.02 86.9051 1383.63 89.3723C1384.97 90.5424 1386.26 91.7505 1387.42 93.1749L1387.28 93.3657H1387.27Z" fill="#F3E89F"/>
<path d="M1373.38 185.963C1368.66 188.392 1363.47 189.104 1358.28 189.486C1353.22 190.516 1348.44 192.767 1343.33 193.632C1339.93 194.242 1336.51 194.687 1332.98 194.649L1332.93 194.408C1337.73 192.22 1342.71 190.91 1347.86 190.147C1351.24 189.511 1354.79 189.626 1358.12 188.723C1361.4 187.667 1364.62 186.294 1368.1 186.014C1369.82 185.798 1371.55 185.645 1373.33 185.734L1373.38 185.976V185.963Z" fill="#F3E89F"/>
<path d="M1373.33 140.154C1366.18 139.531 1359.47 137.178 1352.88 134.533C1346.1 132.511 1339 131.71 1332.25 129.522C1327.75 128.11 1323.31 126.533 1319 124.473L1319.06 124.244C1326.16 125.109 1332.99 126.851 1339.72 129.141C1344.22 130.527 1348.5 132.663 1353.08 133.783C1357.7 134.762 1362.39 135.423 1366.82 137.178C1369.04 137.979 1371.24 138.831 1373.38 139.925L1373.32 140.154H1373.33Z" fill="#F3E89F"/>
<path d="M1023.15 324.948C1001.45 325.476 979.475 320.78 960.589 309.826C958.273 308.532 955.889 306.978 953.628 305.623C950.051 303.692 947.906 299.332 948.341 295.335L948.428 292.631L948.427 292.463C956.427 264.762 965.603 237.414 973.82 209.781C975.91 202.896 977.852 195.97 979.875 189.07C980.81 185.626 981.962 182.083 983.76 178.888C990.85 165.687 1007.61 159.067 1021.88 163.644C1027.04 165.158 1037.46 168.052 1042.63 169.564C1053.6 172.463 1062.72 181.203 1065.95 192.126C1068.31 199.234 1067.46 207.377 1065.1 214.253C1055.14 248.601 1043.78 283.208 1033.12 317.293L1033.11 317.32L1033.1 317.347L1031.42 320.15C1029.79 323.087 1026.51 324.984 1023.15 324.923L1023.15 324.948ZM1023.16 324.626C1026.4 324.64 1029.52 322.807 1031.07 319.961L1032.72 317.137C1040.46 289.747 1047.67 261.526 1055.81 234.035L1061.86 213.324C1064.1 206.595 1064.89 199.839 1062.83 193.084C1059.99 183.117 1051.83 175.125 1041.81 172.347C1036.65 170.82 1026.33 167.588 1021.18 166.035C1003.27 160.18 985.002 171.12 980.932 189.405C970.42 223.196 961.16 260.175 951.229 292.754C951.241 294.052 950.892 296.644 951.162 297.863C951.558 300.195 952.942 302.191 954.992 303.424L957.259 304.894C958.767 305.878 960.285 306.848 961.798 307.78C979.982 319.347 1001.6 325.182 1023.14 324.628L1023.16 324.626Z" fill="#F3E89F"/>
<path d="M1009.43 171.14C1006.36 172.875 1003.26 174.011 1000.14 175.495C995.447 178.775 992.667 183.825 989.811 188.72L989.663 188.679C989.727 188.102 989.827 187.52 989.926 186.925C990.824 182.186 994.353 178.369 998.428 176.05C1000.84 174.445 1003 172.248 1005.92 171.555C1007.04 171.21 1008.21 170.973 1009.41 170.989L1009.43 171.14Z" fill="#F3E89F"/>
<path d="M974.782 239.682C974.371 245.863 972.256 251.619 969.863 257.239C968.08 263.058 967.481 269.192 965.538 274.972C964.281 278.827 962.875 282.63 960.997 286.301L960.768 286.234C961.432 280.103 962.935 274.225 964.972 268.469C966.188 264.606 968.16 260.959 969.12 257.021C969.959 253.051 970.475 248.991 972.053 245.213C972.769 243.31 973.539 241.424 974.54 239.617L974.77 239.684L974.782 239.682Z" fill="#F3E89F"/>
<path d="M1044.09 171.253C1036.14 168.905 1027.7 168.26 1019.9 165.31C1017.28 164.592 1015.76 161.278 1016.88 158.887C1017.63 156.94 1018.36 154.996 1018.99 153.029C1019.62 151.05 1020.2 149.064 1020.74 147.061C1021.14 144.679 1023.79 142.844 1026.24 143.537C1034.36 145.29 1042.37 147.46 1050.33 149.803C1052.82 150.465 1054.65 153.227 1054.13 155.807C1053.52 158.184 1052.54 160.321 1051.64 162.601C1050.86 164.527 1050.03 166.448 1049.3 168.393C1048.69 170.587 1046.17 171.991 1044.09 171.278L1044.09 171.253ZM1044.18 170.954C1049.31 172.01 1048.67 165.532 1049.65 162.002C1050.04 159.958 1050.43 157.912 1050.95 155.899C1051.34 154.511 1050.61 153.326 1049.38 153.032C1041.42 150.674 1033.52 148.139 1025.76 145.197C1024.26 144.585 1022.2 145.465 1021.76 147.375C1020.44 151.318 1019.39 155.334 1018.57 159.405C1018.13 161.109 1019.25 162.567 1020.65 162.809C1028.8 164.57 1036.24 168.62 1044.18 170.967L1044.18 170.954Z" fill="#F3E89F"/>
<path d="M1057.6 136.008C1057.34 136.075 1057.05 136.006 1056.78 135.997C1049.56 135.209 1042.64 132.494 1035.97 129.763C1029.58 127.209 1021.96 123.497 1015.16 126.505C1014.91 126.635 1014.6 126.542 1014.47 126.292C1013.39 124.249 1011.8 121.397 1010.61 119.384C1010.33 118.914 1010.62 118.289 1011.14 118.18C1017.83 116.169 1024.87 116.817 1031.43 118.842C1035.26 119.922 1040 122.854 1043.43 124.9C1047.2 127.019 1051.14 128.855 1055.2 130.375L1056.77 130.95C1057.46 131.215 1058 131.786 1058.23 132.444C1058.69 133.698 1057.89 134.906 1057.59 136.023L1057.6 136.008ZM1057.42 135.754C1057.6 132.828 1057.94 132.35 1054.78 131.923C1048.24 130.693 1041.89 127.758 1036.18 124.515C1028.76 120.554 1019.98 118.659 1011.62 119.817L1012.15 118.613L1013.72 122.253C1014.24 123.458 1014.81 124.656 1015.37 125.842L1014.65 125.646C1018.22 124.012 1022.19 124.155 1026 124.429C1032.74 124.713 1041.12 128.96 1047.24 131.571C1050.1 132.767 1054.29 134.639 1057.19 135.622L1057.35 135.674C1057.4 135.705 1057.5 135.677 1057.41 135.755L1057.42 135.754Z" fill="#F3E89F"/>
<path d="M1035.07 128.194C1034.89 134.325 1033.12 140.207 1030.39 145.648L1029.97 144.89C1035.11 146.987 1041.13 147.103 1046.61 148.744L1044.59 149.851C1045.96 144.482 1047.94 139.327 1050.67 134.453C1050.75 134.311 1050.99 134.376 1050.97 134.547C1050.61 140.179 1049.46 145.642 1047.66 150.936C1047.37 151.74 1046.48 152.164 1045.68 151.879L1041.66 150.456C1037.65 148.992 1033.86 146.76 1029.62 146.067C1029.32 146.01 1029.13 145.732 1029.18 145.44C1029.73 140.872 1030.69 136.395 1032.66 132.193C1033.28 130.808 1033.94 129.429 1034.77 128.112C1034.85 127.983 1035.08 128.038 1035.07 128.207L1035.07 128.194Z" fill="#F3E89F"/>
<path d="M1028.24 148.435C1027.97 153.164 1026.66 157.634 1024.31 161.741C1024.58 157.011 1025.89 152.554 1028.24 148.435Z" fill="#F3E89F"/>
<path d="M1037.04 151.034C1036.77 155.763 1035.45 160.233 1033.1 164.339C1033.37 159.61 1034.69 155.152 1037.04 151.034Z" fill="#F3E89F"/>
<path d="M1045.84 153.631C1045.57 158.36 1044.26 162.83 1041.91 166.936C1042.18 162.207 1043.49 157.749 1045.84 153.631Z" fill="#F3E89F"/>
<path d="M1065.49 204.419C1066.7 208 1047.67 216.937 1044.33 218.74C1028.69 226.149 1012.45 233.498 995.022 235.112C990.689 235.553 986.334 235.702 981.983 235.542C977.609 235.243 973.172 235.031 969.108 233.113C963.377 229.449 976.128 228.009 978.241 227.366C982.491 226.474 986.709 225.548 990.91 224.509C999.294 222.409 1007.48 219.684 1015.36 216.13C1027.31 210.864 1039.82 206.836 1052.67 204.491C1056.41 203.925 1060.24 203.074 1064.03 203.646C1064.55 203.77 1065.15 203.919 1065.49 204.432L1065.49 204.419ZM1065.35 204.506C1061.53 201.633 1045.06 206.92 1040.26 208.401C1032.04 211.094 1023.97 214.214 1016.06 217.694C1008.16 221.366 999.774 224.058 991.292 226.032C987.05 227.052 982.77 227.833 978.501 228.599C975.287 229.366 971.457 229.406 968.685 231.171C968.589 231.302 968.585 231.354 968.607 231.492C968.705 231.786 969.133 232.13 969.545 232.374C977.372 235.86 986.595 235.313 994.965 234.503C1007.5 233.226 1020.3 227.503 1031.95 222.903C1037.38 220.536 1065.5 209.709 1065.33 204.508L1065.35 204.506Z" fill="#F3E89F"/>
<path d="M992.954 229.04C997.333 229.454 1001.77 227.85 1006.07 227.078C1014.94 225.442 1022.88 220.837 1031.39 218.008C1034.95 216.544 1039.13 216.268 1042.09 213.699C1042.21 213.552 1042.39 213.394 1042.13 213.346C1041.89 213.307 1041.6 213.34 1041.34 213.382L1041.32 213.256C1041.69 213.132 1042.52 212.82 1042.62 213.449C1042.03 215.139 1039.72 216.162 1038.19 216.906L1031.86 219.272C1027.64 220.792 1023.41 222.286 1019.11 223.61C1011.58 225.935 1004.37 229.73 996.299 229.669C995.164 229.656 993.957 229.68 992.907 229.15L992.967 229.038L992.954 229.04Z" fill="#F3E89F"/>
<path d="M1076.66 162.128C1083.97 170.203 1087.73 180.822 1089.21 191.455C1093.27 210.023 1092.43 227.051 1082.01 243.469L1081.79 243.35C1086.63 230.017 1089.7 216.307 1089.58 202.136C1089.55 197.749 1088.98 193.268 1087.72 189.051C1086.94 186.626 1085.96 183.935 1084.98 181.592C1082.5 175.019 1079.76 168.578 1076.45 162.264L1076.66 162.115L1076.66 162.128Z" fill="#F3E89F"/>
<path d="M1099.78 136.976C1110 148.247 1115.98 162.751 1118.94 177.528C1122.54 192.216 1124.41 207.473 1121.74 222.524C1119.93 232.494 1116.61 242.162 1111.81 250.995L1111.58 250.89C1118.24 232.078 1121.85 212.387 1120.49 192.463C1119.98 182.5 1117.12 172.769 1113.03 163.708C1109.23 154.548 1104.89 145.631 1099.59 137.135L1099.78 136.976Z" fill="#F3E89F"/>
<path d="M941.135 308.13C933.462 300.409 929.195 289.973 927.227 279.417C922.309 261.049 922.34 244.009 931.988 227.119L932.224 227.224C928.008 240.768 925.577 254.608 926.362 268.751C926.592 273.131 927.374 277.578 928.818 281.74C929.725 284.133 930.812 286.768 931.895 289.056C934.693 295.501 937.726 301.807 941.327 307.958L941.133 308.117L941.135 308.13Z" fill="#F3E89F"/>
<path d="M919.214 334.341C908.481 323.564 901.827 309.359 898.184 294.729C893.904 280.226 891.311 265.07 893.288 249.91C894.634 239.873 897.494 230.046 901.87 221.009L902.104 221.101C896.321 240.198 893.645 260.052 895.935 279.879C896.915 289.806 900.223 299.39 904.742 308.254C908.971 317.228 913.724 325.94 919.405 334.169L919.214 334.341Z" fill="#F3E89F"/>
<path d="M582.867 233.089C562.2 239.741 539.805 241.47 518.592 236.32C516.01 235.735 513.276 234.921 510.719 234.272C506.739 233.433 503.445 229.859 502.733 225.904L502.059 223.284L502.02 223.119C501.842 194.288 502.885 165.47 502.936 136.639C502.987 129.453 502.885 122.255 502.873 115.069C502.796 111.508 502.898 107.782 503.712 104.209C506.764 89.5323 520.97 78.4425 535.951 78.7859C541.331 78.7732 552.153 78.5951 557.52 78.5824C568.852 78.2517 580.081 84.051 586.275 93.6147C590.561 99.7573 592.049 107.808 591.731 115.082C591.909 150.844 590.828 187.255 590.268 222.953V222.979V223.004L589.454 226.171C588.729 229.439 586.122 232.199 582.879 233.089H582.867ZM582.778 232.784C585.893 231.881 588.361 229.236 589.035 226.069L589.823 222.89C589.48 194.428 588.399 165.317 588.412 136.651L588.348 115.082C588.602 107.998 587.42 101.296 583.541 95.3952C577.996 86.6454 567.911 81.2913 557.508 81.4693C552.128 81.4693 541.305 81.2913 535.938 81.2658C517.104 80.719 502.682 96.3998 503.966 115.082C503.458 150.463 505.06 188.552 504.78 222.61C505.162 223.844 505.569 226.425 506.166 227.519C507.209 229.643 509.104 231.169 511.419 231.767L514.013 232.53C515.743 233.051 517.472 233.547 519.177 234.018C539.894 239.957 562.277 239.423 582.778 232.784Z" fill="#F3E89F"/>
<path d="M561.921 80.1212C557.241 80.7952 552.167 81.1513 547.27 81.3039C542.145 81.5964 536.753 80.7189 531.666 80.5282L531.132 80.5154V80.0194C531.259 76.4076 531.055 72.7958 530.725 69.184C535.456 68.6753 541.916 68.4591 546.736 68.3192C552.205 68.1793 557.673 68.4209 563.129 68.8152C562.938 72.5796 562.417 76.5348 561.921 80.1339V80.1212ZM561.692 79.8923C561.323 76.4331 560.802 73.2536 560.56 69.9598L561.807 71.2061C559.288 71.3841 556.783 71.524 554.265 71.5876C549.903 71.7784 543.608 71.524 539.195 71.3714C536.676 71.2951 534.171 71.0535 531.653 70.8373L532.518 69.9725C532.225 73.3172 532.06 76.6747 532.162 80.0194L531.653 79.5107C536.6 79.32 541.242 78.4425 546.189 78.735C551.365 78.9003 556.338 79.3073 561.692 79.9177V79.8923Z" fill="#F3E89F"/>
<path d="M526.145 89.5577C524.809 91.5671 523.385 93.195 521.503 94.5685C520.574 95.1789 519.417 95.6367 518.616 96.4507C516.937 98.0022 516.632 100.546 515.792 102.53L514.813 105.595C513.961 107.579 513.452 109.613 512.346 111.903H512.028C509.675 106.536 512.435 100.609 516.733 97.1502C518.819 94.9246 519.43 91.7324 522.469 90.3843C523.525 89.7993 524.682 89.3542 525.992 89.2652L526.145 89.545V89.5577Z" fill="#F3E89F"/>
<path d="M590.116 137.91C589.62 140.517 582.46 141.471 580.132 142.082C561.883 145.617 543.149 145.223 524.734 143.519C496.221 141.242 496.323 134.527 524.696 131.831C543.149 130.242 561.895 130.318 580.145 133.713C583.274 134.438 586.657 134.896 589.378 136.702C589.747 136.982 590.116 137.376 590.128 137.898L590.116 137.91ZM589.963 137.91C587.076 130.839 533.865 132.48 524.823 133.319C497.531 135.481 497.569 140.403 524.785 142.985C532.912 143.799 588.323 144.587 589.963 137.923V137.91Z" fill="#F3E89F"/>
<path d="M563.88 136.537C565.152 136.588 566.386 136.613 567.696 137.135C567.861 137.224 568.052 137.313 568.217 137.618C568.662 138.991 566.042 139.398 565.165 139.678C557.738 141.217 550.082 141.153 542.578 140.161C545.084 139.856 547.589 139.754 550.082 139.589L557.547 139.131C560.828 138.813 564.389 138.941 567.441 137.86C567.428 137.885 567.441 137.949 567.454 137.961C566.627 137.211 565.088 136.957 563.88 136.537Z" fill="#F3E89F"/>
<path d="M529.072 138.966C528.296 138.902 525.727 138.61 526.808 137.364C528.246 136.321 530.064 136.143 531.717 135.787C539.641 134.489 547.742 134.667 555.678 135.787C553.007 136.028 550.349 136.168 547.704 136.219L539.768 136.55C535.609 136.88 531.171 136.6 527.177 137.821C527.063 137.898 527.063 137.91 527.05 137.923C527.47 138.495 528.385 138.673 529.06 138.966H529.072Z" fill="#F3E89F"/>
<path d="M512.346 165.024C514.152 171.18 513.631 177.068 512.702 183.261C512.626 189.34 514.178 195.381 513.885 201.499C513.733 205.556 513.376 209.6 512.359 213.657H512.041C510.579 207.59 510.261 201.562 510.706 195.42C510.82 191.375 511.939 187.318 511.685 183.261C511.253 179.23 510.362 175.198 510.973 171.103C511.176 169.081 511.431 167.046 512.041 165.024H512.359H512.346Z" fill="#F3E89F"/>
<path d="M552.001 111.521C547.41 115.133 541.801 108.609 546.303 104.603C551.085 100.94 556.427 107.693 552.001 111.521ZM552.001 111.521C555.867 108.075 551.034 102.492 547.104 105.595C543.315 108.863 547.868 114.675 552.001 111.521Z" fill="#F3E89F"/>
<path d="M537.374 122.497C535.402 126.236 529.718 123.501 531.574 119.559C533.66 115.731 539.231 118.694 537.374 122.497ZM537.374 122.497C538.963 119.101 534.08 116.761 532.388 119.966C530.799 123.221 535.568 125.79 537.374 122.497Z" fill="#F3E89F"/>
<path d="M537.744 100.838C537.617 106.676 529.007 106.854 528.791 100.838C529.007 94.8102 537.617 95.001 537.744 100.838ZM537.744 100.838C537.541 95.6623 530.165 95.8403 530.05 100.838C530.165 105.849 537.541 106.027 537.744 100.838Z" fill="#F3E89F"/>
<path d="M549.392 95.1408C544.929 93.8818 546.493 87.2305 551.16 88.2479C555.751 89.5705 553.895 96.2218 549.392 95.1408ZM549.392 95.1408C553.399 96.0311 554.734 90.27 550.906 89.2271C547.052 88.2987 545.437 93.9963 549.392 95.1408Z" fill="#F3E89F"/>
<path d="M545.412 47.7548C541.151 46.5848 542.665 40.1878 547.103 41.1798C551.478 42.4389 549.71 48.7723 545.412 47.7548ZM545.412 47.7548C549.227 48.6069 550.499 43.1129 546.861 42.1209C543.186 41.2307 541.647 46.6611 545.412 47.7548Z" fill="#F3E89F"/>
<path d="M538.953 64.4658C533.332 62.8888 535.303 54.5078 541.178 55.7923C546.965 57.4965 544.638 65.8011 538.953 64.4658ZM538.953 64.4658C544.014 65.5595 545.68 58.374 540.86 57.0132C535.977 55.8686 533.98 62.9778 538.953 64.4658Z" fill="#F3E89F"/>
<path d="M551.846 127.978C548.527 123.171 555.407 117.982 559.108 122.725C562.466 127.736 555.382 132.633 551.846 127.978ZM551.846 127.978C555.039 132.06 560.914 127.596 558.078 123.476C555.051 119.482 548.972 123.667 551.846 127.978Z" fill="#F3E89F"/>
<path d="M701.725 42.7314L692.835 43.4309C686.985 43.6089 672.703 46.7374 666.751 47.7549C638.035 53.1217 608.606 58.0307 579.673 62.3929L562.25 65.2544L561.843 65.318L561.78 64.9237C559.656 52.2569 557.354 39.6283 555.001 27.0123L554.887 26.3637L555.548 26.2366C587.304 20.2084 627.873 13.0865 659.871 7.69419C668.506 6.05361 677.307 5.35414 685.752 2.83604L694.222 0.356095L695.455 0V1.25905C695.493 4.83272 695.557 13.7224 695.582 17.1689C695.633 18.695 695.506 20.9206 695.748 22.3704C697.274 28.1824 699.983 36.8812 701.7 42.7314H701.725ZM701.521 42.5915L697.948 32.5445C696.981 29.6195 695.226 25.5371 694.552 22.5739C694.323 20.9587 694.234 18.8094 694.196 17.1943C694.069 13.786 693.687 4.82 693.547 1.2972L694.794 2.20016C689.681 3.78987 682.903 6.12992 677.701 7.08374C666.077 9.2839 637.564 14.1421 625.508 16.2405C614.087 18.1354 584.315 23.0699 573.226 24.8249L555.777 27.5592L556.324 26.7834C557.341 33.1168 558.295 39.4757 559.376 45.7963C560.457 52.1297 561.449 58.4631 562.594 64.7838L562.123 64.4532C570.822 62.9143 588.194 59.7349 596.855 58.0562C619.988 53.6304 643.211 49.777 666.472 46.0634L683.933 43.3545C689.109 42.5788 696.269 42.6551 701.521 42.5915Z" fill="#F3E89F"/>
<path d="M596.218 20.0049C594.514 26.0712 591.118 31.3109 587.481 36.3471C584.429 41.7139 582.534 47.7039 579.329 53.0072C577.231 56.5555 574.98 60.0019 572.271 63.2068L572.055 63.0796C574.013 57.115 576.773 51.621 580.092 46.3559C582.165 42.8076 584.95 39.6409 586.769 35.9401C588.46 32.1757 589.834 28.2586 592.25 24.863C593.382 23.1461 594.578 21.442 595.989 19.8777L596.206 20.0049H596.218Z" fill="#F3E89F"/>
<path d="M636.191 13.1373C634.487 19.2036 631.091 24.4433 627.454 29.4795C624.402 34.8464 622.507 40.8364 619.302 46.1397C617.203 49.6879 614.952 53.1344 612.244 56.3392L612.027 56.2121C613.986 50.2475 616.746 44.7534 620.065 39.4883C622.138 35.9401 624.923 32.7734 626.742 29.0726C628.433 25.3081 629.807 21.3911 632.223 17.9955C633.355 16.2786 634.55 14.5744 635.962 13.0101L636.178 13.1373H636.191Z" fill="#F3E89F"/>
<path d="M24.9446 352.768V354.96H20.3686V357.328H23.7926V359.456H20.3686V364H17.6326V352.768H24.9446ZM29.1186 352.768V364H26.3826V352.768H29.1186ZM33.8374 361.888H37.4214V364H31.1014V352.768H33.8374V361.888ZM41.4624 361.888H45.0464V364H38.7264V352.768H41.4624V361.888ZM57.822 352.768V354.96H54.846V364H52.11V354.96H49.134V352.768H57.822ZM68.9231 352.768V364H66.1871V359.376H61.9311V364H59.1951V352.768H61.9311V357.168H66.1871V352.768H68.9231ZM73.6343 354.96V357.232H77.2983V359.344H73.6343V361.808H77.7783V364H70.8983V352.768H77.7783V354.96H73.6343ZM89.7451 358.24C90.3958 358.379 90.9185 358.704 91.3131 359.216C91.7078 359.717 91.9051 360.293 91.9051 360.944C91.9051 361.883 91.5745 362.629 90.9131 363.184C90.2625 363.728 89.3505 364 88.1771 364H82.9451V352.768H88.0011C89.1425 352.768 90.0331 353.029 90.6731 353.552C91.3238 354.075 91.6491 354.784 91.6491 355.68C91.6491 356.341 91.4731 356.891 91.1211 357.328C90.7798 357.765 90.3211 358.069 89.7451 358.24ZM85.6811 357.312H87.4731C87.9211 357.312 88.2625 357.216 88.4971 357.024C88.7425 356.821 88.8651 356.528 88.8651 356.144C88.8651 355.76 88.7425 355.467 88.4971 355.264C88.2625 355.061 87.9211 354.96 87.4731 354.96H85.6811V357.312ZM87.6971 361.792C88.1558 361.792 88.5078 361.691 88.7531 361.488C89.0091 361.275 89.1371 360.971 89.1371 360.576C89.1371 360.181 89.0038 359.872 88.7371 359.648C88.4811 359.424 88.1238 359.312 87.6651 359.312H85.6811V361.792H87.6971ZM98.804 364.112C97.748 364.112 96.7773 363.867 95.892 363.376C95.0173 362.885 94.3187 362.203 93.796 361.328C93.284 360.443 93.028 359.451 93.028 358.352C93.028 357.253 93.284 356.267 93.796 355.392C94.3187 354.517 95.0173 353.835 95.892 353.344C96.7773 352.853 97.748 352.608 98.804 352.608C99.86 352.608 100.825 352.853 101.7 353.344C102.585 353.835 103.279 354.517 103.78 355.392C104.292 356.267 104.548 357.253 104.548 358.352C104.548 359.451 104.292 360.443 103.78 361.328C103.268 362.203 102.575 362.885 101.7 363.376C100.825 363.867 99.86 364.112 98.804 364.112ZM98.804 361.616C99.7 361.616 100.415 361.317 100.948 360.72C101.492 360.123 101.764 359.333 101.764 358.352C101.764 357.36 101.492 356.571 100.948 355.984C100.415 355.387 99.7 355.088 98.804 355.088C97.8973 355.088 97.172 355.381 96.628 355.968C96.0947 356.555 95.828 357.349 95.828 358.352C95.828 359.344 96.0947 360.139 96.628 360.736C97.172 361.323 97.8973 361.616 98.804 361.616ZM114.15 352.768V354.96H111.174V364H108.438V354.96H105.462V352.768H114.15ZM123.603 352.768V354.96H120.627V364H117.891V354.96H114.915V352.768H123.603ZM127.712 361.888H131.296V364H124.976V352.768H127.712V361.888ZM135.337 354.96V357.232H139.001V359.344H135.337V361.808H139.481V364H132.601V352.768H139.481V354.96H135.337ZM160.104 352.768L157.176 364H153.864L152.072 356.608L150.216 364H146.904L144.056 352.768H146.984L148.6 360.944L150.6 352.768H153.608L155.528 360.944L157.16 352.768H160.104ZM164.212 352.768V364H161.476V352.768H164.212ZM174.275 352.768V354.96H171.299V364H168.563V354.96H165.587V352.768H174.275ZM185.376 352.768V364H182.64V359.376H178.384V364H175.648V352.768H178.384V357.168H182.64V352.768H185.376ZM60.7917 378.768L57.8638 390H54.5518L52.7598 382.608L50.9038 390H47.5918L44.7438 378.768H47.6718L49.2878 386.944L51.2878 378.768H54.2958L56.2158 386.944L57.8478 378.768H60.7917ZM69.1559 388.016H64.9639L64.2919 390H61.4279L65.4919 378.768H68.6599L72.7239 390H69.8279L69.1559 388.016ZM68.4519 385.904L67.0599 381.792L65.6839 385.904H68.4519ZM79.6888 390L77.3528 385.76H76.6968V390H73.9608V378.768H78.5528C79.4381 378.768 80.1901 378.923 80.8088 379.232C81.4381 379.541 81.9074 379.968 82.2168 380.512C82.5261 381.045 82.6808 381.643 82.6808 382.304C82.6808 383.051 82.4674 383.717 82.0408 384.304C81.6248 384.891 81.0061 385.307 80.1848 385.552L82.7768 390H79.6888ZM76.6968 383.824H78.3928C78.8941 383.824 79.2674 383.701 79.5128 383.456C79.7688 383.211 79.8968 382.864 79.8968 382.416C79.8968 381.989 79.7688 381.653 79.5128 381.408C79.2674 381.163 78.8941 381.04 78.3928 381.04H76.6968V383.824ZM97.1183 378.768V390H94.3823V383.264L91.8703 390H89.6623L87.1343 383.248V390H84.3983V378.768H87.6302L90.7823 386.544L93.9023 378.768H97.1183ZM117.932 378.768L115.004 390H111.692L109.9 382.608L108.044 390H104.732L101.884 378.768H104.812L106.428 386.944L108.428 378.768H111.436L113.356 386.944L114.988 378.768H117.932ZM126.297 388.016H122.105L121.433 390H118.569L122.633 378.768H125.801L129.865 390H126.969L126.297 388.016ZM125.593 385.904L124.201 381.792L122.825 385.904H125.593ZM139.181 378.768V380.96H136.205V390H133.469V380.96H130.493V378.768H139.181ZM143.291 380.96V383.232H146.955V385.344H143.291V387.808H147.435V390H140.555V378.768H147.435V380.96H143.291ZM154.939 390L152.603 385.76H151.947V390H149.211V378.768H153.803C154.688 378.768 155.44 378.923 156.059 379.232C156.688 379.541 157.157 379.968 157.467 380.512C157.776 381.045 157.931 381.643 157.931 382.304C157.931 383.051 157.717 383.717 157.291 384.304C156.875 384.891 156.256 385.307 155.435 385.552L158.027 390H154.939ZM151.947 383.824H153.643C154.144 383.824 154.517 383.701 154.763 383.456C155.019 383.211 155.147 382.864 155.147 382.416C155.147 381.989 155.019 381.653 154.763 381.408C154.517 381.163 154.144 381.04 153.643 381.04H151.947V383.824Z" fill="white"/>
<path d="M480.968 274.679H476.776L476.104 276.663H473.24L477.304 265.431H480.472L484.536 276.663H481.64L480.968 274.679ZM480.264 272.567L478.872 268.455L477.496 272.567H480.264ZM489.981 265.431C491.165 265.431 492.2 265.666 493.085 266.135C493.971 266.604 494.653 267.266 495.133 268.119C495.624 268.962 495.869 269.938 495.869 271.047C495.869 272.146 495.624 273.122 495.133 273.975C494.653 274.828 493.965 275.49 493.069 275.959C492.184 276.428 491.155 276.663 489.981 276.663H485.773V265.431H489.981ZM489.805 274.295C490.84 274.295 491.645 274.012 492.221 273.447C492.797 272.882 493.085 272.082 493.085 271.047C493.085 270.012 492.797 269.207 492.221 268.631C491.645 268.055 490.84 267.767 489.805 267.767H488.509V274.295H489.805ZM501.606 265.431C502.79 265.431 503.825 265.666 504.71 266.135C505.596 266.604 506.278 267.266 506.758 268.119C507.249 268.962 507.494 269.938 507.494 271.047C507.494 272.146 507.249 273.122 506.758 273.975C506.278 274.828 505.59 275.49 504.694 275.959C503.809 276.428 502.78 276.663 501.606 276.663H497.398V265.431H501.606ZM501.43 274.295C502.465 274.295 503.27 274.012 503.846 273.447C504.422 272.882 504.71 272.082 504.71 271.047C504.71 270.012 504.422 269.207 503.846 268.631C503.27 268.055 502.465 267.767 501.43 267.767H500.134V274.295H501.43ZM520.494 265.431V267.623H517.518V276.663H514.782V267.623H511.806V265.431H520.494ZM531.595 265.431V276.663H528.859V272.039H524.603V276.663H521.867V265.431H524.603V269.831H528.859V265.431H531.595ZM536.306 267.623V269.895H539.97V272.007H536.306V274.471H540.45V276.663H533.57V265.431H540.45V267.623H536.306ZM554.177 269.047C554.177 269.698 554.028 270.295 553.729 270.839C553.43 271.372 552.972 271.804 552.353 272.135C551.734 272.466 550.966 272.631 550.049 272.631H548.353V276.663H545.617V265.431H550.049C550.945 265.431 551.702 265.586 552.321 265.895C552.94 266.204 553.404 266.631 553.713 267.175C554.022 267.719 554.177 268.343 554.177 269.047ZM549.841 270.455C550.364 270.455 550.753 270.332 551.009 270.087C551.265 269.842 551.393 269.495 551.393 269.047C551.393 268.599 551.265 268.252 551.009 268.007C550.753 267.762 550.364 267.639 549.841 267.639H548.353V270.455H549.841ZM560.913 276.775C559.857 276.775 558.887 276.53 558.001 276.039C557.127 275.548 556.428 274.866 555.905 273.991C555.393 273.106 555.137 272.114 555.137 271.015C555.137 269.916 555.393 268.93 555.905 268.055C556.428 267.18 557.127 266.498 558.001 266.007C558.887 265.516 559.857 265.271 560.913 265.271C561.969 265.271 562.935 265.516 563.809 266.007C564.695 266.498 565.388 267.18 565.889 268.055C566.401 268.93 566.657 269.916 566.657 271.015C566.657 272.114 566.401 273.106 565.889 273.991C565.377 274.866 564.684 275.548 563.809 276.039C562.935 276.53 561.969 276.775 560.913 276.775ZM560.913 274.279C561.809 274.279 562.524 273.98 563.057 273.383C563.601 272.786 563.873 271.996 563.873 271.015C563.873 270.023 563.601 269.234 563.057 268.647C562.524 268.05 561.809 267.751 560.913 267.751C560.007 267.751 559.281 268.044 558.737 268.631C558.204 269.218 557.937 270.012 557.937 271.015C557.937 272.007 558.204 272.802 558.737 273.399C559.281 273.986 560.007 274.279 560.913 274.279ZM583.635 265.431L580.708 276.663H577.396L575.604 269.271L573.748 276.663H570.436L567.588 265.431H570.516L572.132 273.607L574.132 265.431H577.14L579.06 273.607L580.692 265.431H583.635ZM589.216 265.431C590.4 265.431 591.434 265.666 592.32 266.135C593.205 266.604 593.888 267.266 594.368 268.119C594.858 268.962 595.104 269.938 595.104 271.047C595.104 272.146 594.858 273.122 594.368 273.975C593.888 274.828 593.2 275.49 592.304 275.959C591.418 276.428 590.389 276.663 589.216 276.663H585.008V265.431H589.216ZM589.04 274.295C590.074 274.295 590.88 274.012 591.456 273.447C592.032 272.882 592.32 272.082 592.32 271.047C592.32 270.012 592.032 269.207 591.456 268.631C590.88 268.055 590.074 267.767 589.04 267.767H587.744V274.295H589.04ZM599.369 267.623V269.895H603.033V272.007H599.369V274.471H603.513V276.663H596.633V265.431H603.513V267.623H599.369ZM611.017 276.663L608.681 272.423H608.025V276.663H605.289V265.431H609.881C610.766 265.431 611.518 265.586 612.137 265.895C612.766 266.204 613.236 266.631 613.545 267.175C613.854 267.708 614.009 268.306 614.009 268.967C614.009 269.714 613.796 270.38 613.369 270.967C612.953 271.554 612.334 271.97 611.513 272.215L614.105 276.663H611.017ZM608.025 270.487H609.721C610.222 270.487 610.596 270.364 610.841 270.119C611.097 269.874 611.225 269.527 611.225 269.079C611.225 268.652 611.097 268.316 610.841 268.071C610.596 267.826 610.222 267.703 609.721 267.703H608.025V270.487ZM618.462 267.623V269.895H622.126V272.007H618.462V274.471H622.606V276.663H615.726V265.431H622.606V267.623H618.462ZM628.591 265.431C629.775 265.431 630.809 265.666 631.695 266.135C632.58 266.604 633.263 267.266 633.743 268.119C634.233 268.962 634.479 269.938 634.479 271.047C634.479 272.146 634.233 273.122 633.743 273.975C633.263 274.828 632.575 275.49 631.679 275.959C630.793 276.428 629.764 276.663 628.591 276.663H624.383V265.431H628.591ZM628.415 274.295C629.449 274.295 630.255 274.012 630.831 273.447C631.407 272.882 631.695 272.082 631.695 271.047C631.695 270.012 631.407 269.207 630.831 268.631C630.255 268.055 629.449 267.767 628.415 267.767H627.119V274.295H628.415ZM498.124 291.431V293.623H493.548V295.991H496.972V298.119H493.548V302.663H490.812V291.431H498.124ZM504.874 302.775C503.818 302.775 502.848 302.53 501.962 302.039C501.088 301.548 500.389 300.866 499.866 299.991C499.354 299.106 499.098 298.114 499.098 297.015C499.098 295.916 499.354 294.93 499.866 294.055C500.389 293.18 501.088 292.498 501.962 292.007C502.848 291.516 503.818 291.271 504.874 291.271C505.93 291.271 506.896 291.516 507.77 292.007C508.656 292.498 509.349 293.18 509.85 294.055C510.362 294.93 510.618 295.916 510.618 297.015C510.618 298.114 510.362 299.106 509.85 299.991C509.338 300.866 508.645 301.548 507.77 302.039C506.896 302.53 505.93 302.775 504.874 302.775ZM504.874 300.279C505.77 300.279 506.485 299.98 507.018 299.383C507.562 298.786 507.834 297.996 507.834 297.015C507.834 296.023 507.562 295.234 507.018 294.647C506.485 294.05 505.77 293.751 504.874 293.751C503.968 293.751 503.242 294.044 502.698 294.631C502.165 295.218 501.898 296.012 501.898 297.015C501.898 298.007 502.165 298.802 502.698 299.399C503.242 299.986 503.968 300.279 504.874 300.279ZM517.868 302.663L515.532 298.423H514.876V302.663H512.14V291.431H516.732C517.618 291.431 518.37 291.586 518.988 291.895C519.618 292.204 520.087 292.631 520.396 293.175C520.706 293.708 520.86 294.306 520.86 294.967C520.86 295.714 520.647 296.38 520.22 296.967C519.804 297.554 519.186 297.97 518.364 298.215L520.956 302.663H517.868ZM514.876 296.487H516.572C517.074 296.487 517.447 296.364 517.692 296.119C517.948 295.874 518.076 295.527 518.076 295.079C518.076 294.652 517.948 294.316 517.692 294.071C517.447 293.826 517.074 293.703 516.572 293.703H514.876V296.487ZM535.298 291.431V302.663H532.562V295.927L530.05 302.663H527.842L525.314 295.911V302.663H522.578V291.431H525.81L528.962 299.207L532.082 291.431H535.298ZM539.953 291.431V298.151C539.953 298.823 540.119 299.34 540.449 299.703C540.78 300.066 541.265 300.247 541.905 300.247C542.545 300.247 543.036 300.066 543.377 299.703C543.719 299.34 543.889 298.823 543.889 298.151V291.431H546.625V298.135C546.625 299.138 546.412 299.986 545.985 300.679C545.559 301.372 544.983 301.895 544.257 302.247C543.543 302.599 542.743 302.775 541.857 302.775C540.972 302.775 540.177 302.604 539.473 302.263C538.78 301.911 538.231 301.388 537.825 300.695C537.42 299.991 537.217 299.138 537.217 298.135V291.431H539.953ZM551.283 300.551H554.867V302.663H548.547V291.431H551.283V300.551ZM563.164 300.679H558.972L558.3 302.663H555.436L559.5 291.431H562.668L566.732 302.663H563.836L563.164 300.679ZM562.46 298.567L561.068 294.455L559.692 298.567H562.46ZM577.087 302.663L574.751 298.423H574.095V302.663H571.359V291.431H575.951C576.837 291.431 577.589 291.586 578.207 291.895C578.837 292.204 579.306 292.631 579.615 293.175C579.925 293.708 580.079 294.306 580.079 294.967C580.079 295.714 579.866 296.38 579.439 296.967C579.023 297.554 578.405 297.97 577.583 298.215L580.175 302.663H577.087ZM574.095 296.487H575.791C576.293 296.487 576.666 296.364 576.911 296.119C577.167 295.874 577.295 295.527 577.295 295.079C577.295 294.652 577.167 294.316 576.911 294.071C576.666 293.826 576.293 293.703 575.791 293.703H574.095V296.487ZM584.533 293.623V295.895H588.197V298.007H584.533V300.471H588.677V302.663H581.797V291.431H588.677V293.623H584.533ZM597.765 291.431V293.623H593.189V295.991H596.613V298.119H593.189V302.663H590.453V291.431H597.765ZM601.939 291.431V302.663H599.203V291.431H601.939ZM606.658 300.551H610.242V302.663H603.922V291.431H606.658V300.551ZM614.283 300.551H617.867V302.663H611.547V291.431H614.283V300.551Z" fill="white"/>
<path d="M1387.66 265.768L1383.78 273.288V277H1381.04V273.288L1377.15 265.768H1380.26L1382.43 270.472L1384.59 265.768H1387.66ZM1394.08 277.112C1393.02 277.112 1392.05 276.867 1391.17 276.376C1390.29 275.885 1389.59 275.203 1389.07 274.328C1388.56 273.443 1388.3 272.451 1388.3 271.352C1388.3 270.253 1388.56 269.267 1389.07 268.392C1389.59 267.517 1390.29 266.835 1391.17 266.344C1392.05 265.853 1393.02 265.608 1394.08 265.608C1395.13 265.608 1396.1 265.853 1396.97 266.344C1397.86 266.835 1398.55 267.517 1399.05 268.392C1399.57 269.267 1399.82 270.253 1399.82 271.352C1399.82 272.451 1399.57 273.443 1399.05 274.328C1398.54 275.203 1397.85 275.885 1396.97 276.376C1396.1 276.867 1395.13 277.112 1394.08 277.112ZM1394.08 274.616C1394.97 274.616 1395.69 274.317 1396.22 273.72C1396.77 273.123 1397.04 272.333 1397.04 271.352C1397.04 270.36 1396.77 269.571 1396.22 268.984C1395.69 268.387 1394.97 268.088 1394.08 268.088C1393.17 268.088 1392.45 268.381 1391.9 268.968C1391.37 269.555 1391.1 270.349 1391.1 271.352C1391.1 272.344 1391.37 273.139 1391.9 273.736C1392.45 274.323 1393.17 274.616 1394.08 274.616ZM1404.03 265.768V272.488C1404.03 273.16 1404.2 273.677 1404.53 274.04C1404.86 274.403 1405.34 274.584 1405.98 274.584C1406.62 274.584 1407.11 274.403 1407.46 274.04C1407.8 273.677 1407.97 273.16 1407.97 272.488V265.768H1410.7V272.472C1410.7 273.475 1410.49 274.323 1410.06 275.016C1409.64 275.709 1409.06 276.232 1408.34 276.584C1407.62 276.936 1406.82 277.112 1405.94 277.112C1405.05 277.112 1404.26 276.941 1403.55 276.6C1402.86 276.248 1402.31 275.725 1401.9 275.032C1401.5 274.328 1401.3 273.475 1401.3 272.472V265.768H1404.03ZM1418.35 277L1416.02 272.76H1415.36V277H1412.62V265.768H1417.22C1418.1 265.768 1418.85 265.923 1419.47 266.232C1420.1 266.541 1420.57 266.968 1420.88 267.512C1421.19 268.045 1421.34 268.643 1421.34 269.304C1421.34 270.051 1421.13 270.717 1420.7 271.304C1420.29 271.891 1419.67 272.307 1418.85 272.552L1421.44 277H1418.35ZM1415.36 270.824H1417.06C1417.56 270.824 1417.93 270.701 1418.18 270.456C1418.43 270.211 1418.56 269.864 1418.56 269.416C1418.56 268.989 1418.43 268.653 1418.18 268.408C1417.93 268.163 1417.56 268.04 1417.06 268.04H1415.36V270.824ZM1435.01 269.384C1435.01 270.035 1434.86 270.632 1434.56 271.176C1434.27 271.709 1433.81 272.141 1433.19 272.472C1432.57 272.803 1431.8 272.968 1430.88 272.968H1429.19V277H1426.45V265.768H1430.88C1431.78 265.768 1432.54 265.923 1433.16 266.232C1433.78 266.541 1434.24 266.968 1434.55 267.512C1434.86 268.056 1435.01 268.68 1435.01 269.384ZM1430.68 270.792C1431.2 270.792 1431.59 270.669 1431.84 270.424C1432.1 270.179 1432.23 269.832 1432.23 269.384C1432.23 268.936 1432.1 268.589 1431.84 268.344C1431.59 268.099 1431.2 267.976 1430.68 267.976H1429.19V270.792H1430.68ZM1442.17 277L1439.83 272.76H1439.17V277H1436.44V265.768H1441.03C1441.91 265.768 1442.67 265.923 1443.29 266.232C1443.91 266.541 1444.38 266.968 1444.69 267.512C1445 268.045 1445.16 268.643 1445.16 269.304C1445.16 270.051 1444.94 270.717 1444.52 271.304C1444.1 271.891 1443.48 272.307 1442.66 272.552L1445.25 277H1442.17ZM1439.17 270.824H1440.87C1441.37 270.824 1441.74 270.701 1441.99 270.456C1442.25 270.211 1442.37 269.864 1442.37 269.416C1442.37 268.989 1442.25 268.653 1441.99 268.408C1441.74 268.163 1441.37 268.04 1440.87 268.04H1439.17V270.824ZM1452.19 277.112C1451.13 277.112 1450.16 276.867 1449.27 276.376C1448.4 275.885 1447.7 275.203 1447.18 274.328C1446.67 273.443 1446.41 272.451 1446.41 271.352C1446.41 270.253 1446.67 269.267 1447.18 268.392C1447.7 267.517 1448.4 266.835 1449.27 266.344C1450.16 265.853 1451.13 265.608 1452.19 265.608C1453.24 265.608 1454.21 265.853 1455.08 266.344C1455.97 266.835 1456.66 267.517 1457.16 268.392C1457.67 269.267 1457.93 270.253 1457.93 271.352C1457.93 272.451 1457.67 273.443 1457.16 274.328C1456.65 275.203 1455.96 275.885 1455.08 276.376C1454.21 276.867 1453.24 277.112 1452.19 277.112ZM1452.19 274.616C1453.08 274.616 1453.8 274.317 1454.33 273.72C1454.87 273.123 1455.15 272.333 1455.15 271.352C1455.15 270.36 1454.87 269.571 1454.33 268.984C1453.8 268.387 1453.08 268.088 1452.19 268.088C1451.28 268.088 1450.55 268.381 1450.01 268.968C1449.48 269.555 1449.21 270.349 1449.21 271.352C1449.21 272.344 1449.48 273.139 1450.01 273.736C1450.55 274.323 1451.28 274.616 1452.19 274.616ZM1463.66 265.768C1464.84 265.768 1465.88 266.003 1466.76 266.472C1467.65 266.941 1468.33 267.603 1468.81 268.456C1469.3 269.299 1469.55 270.275 1469.55 271.384C1469.55 272.483 1469.3 273.459 1468.81 274.312C1468.33 275.165 1467.64 275.827 1466.75 276.296C1465.86 276.765 1464.83 277 1463.66 277H1459.45V265.768H1463.66ZM1463.48 274.632C1464.52 274.632 1465.32 274.349 1465.9 273.784C1466.48 273.219 1466.76 272.419 1466.76 271.384C1466.76 270.349 1466.48 269.544 1465.9 268.968C1465.32 268.392 1464.52 268.104 1463.48 268.104H1462.19V274.632H1463.48ZM1473.77 265.768V272.488C1473.77 273.16 1473.93 273.677 1474.26 274.04C1474.59 274.403 1475.08 274.584 1475.72 274.584C1476.36 274.584 1476.85 274.403 1477.19 274.04C1477.53 273.677 1477.7 273.16 1477.7 272.488V265.768H1480.44V272.472C1480.44 273.475 1480.22 274.323 1479.8 275.016C1479.37 275.709 1478.8 276.232 1478.07 276.584C1477.36 276.936 1476.56 277.112 1475.67 277.112C1474.78 277.112 1473.99 276.941 1473.29 276.6C1472.59 276.248 1472.04 275.725 1471.64 275.032C1471.23 274.328 1471.03 273.475 1471.03 272.472V265.768H1473.77ZM1481.9 271.368C1481.9 270.259 1482.14 269.272 1482.62 268.408C1483.1 267.533 1483.76 266.856 1484.62 266.376C1485.48 265.885 1486.46 265.64 1487.54 265.64C1488.88 265.64 1490.02 265.992 1490.97 266.696C1491.92 267.4 1492.55 268.36 1492.87 269.576H1489.86C1489.64 269.107 1489.32 268.749 1488.9 268.504C1488.5 268.259 1488.03 268.136 1487.51 268.136C1486.67 268.136 1485.99 268.429 1485.46 269.016C1484.94 269.603 1484.68 270.387 1484.68 271.368C1484.68 272.349 1484.94 273.133 1485.46 273.72C1485.99 274.307 1486.67 274.6 1487.51 274.6C1488.03 274.6 1488.5 274.477 1488.9 274.232C1489.32 273.987 1489.64 273.629 1489.86 273.16H1492.87C1492.55 274.376 1491.92 275.336 1490.97 276.04C1490.02 276.733 1488.88 277.08 1487.54 277.08C1486.46 277.08 1485.48 276.84 1484.62 276.36C1483.76 275.869 1483.1 275.192 1482.62 274.328C1482.14 273.464 1481.9 272.477 1481.9 271.368ZM1502.63 265.768V267.96H1499.65V277H1496.91V267.96H1493.94V265.768H1502.63ZM1510.13 265.768V277H1507.39V265.768H1510.13ZM1516.17 277.112C1515.35 277.112 1514.62 276.979 1513.97 276.712C1513.31 276.445 1512.79 276.051 1512.4 275.528C1512.01 275.005 1511.81 274.376 1511.79 273.64H1514.7C1514.74 274.056 1514.89 274.376 1515.13 274.6C1515.38 274.813 1515.7 274.92 1516.09 274.92C1516.5 274.92 1516.82 274.829 1517.05 274.648C1517.29 274.456 1517.41 274.195 1517.41 273.864C1517.41 273.587 1517.31 273.357 1517.12 273.176C1516.94 272.995 1516.71 272.845 1516.43 272.728C1516.16 272.611 1515.78 272.477 1515.28 272.328C1514.55 272.104 1513.96 271.88 1513.5 271.656C1513.04 271.432 1512.65 271.101 1512.32 270.664C1511.99 270.227 1511.82 269.656 1511.82 268.952C1511.82 267.907 1512.2 267.091 1512.96 266.504C1513.71 265.907 1514.7 265.608 1515.92 265.608C1517.15 265.608 1518.15 265.907 1518.91 266.504C1519.67 267.091 1520.07 267.912 1520.13 268.968H1517.17C1517.14 268.605 1517.01 268.323 1516.77 268.12C1516.52 267.907 1516.21 267.8 1515.82 267.8C1515.49 267.8 1515.22 267.891 1515.02 268.072C1514.82 268.243 1514.72 268.493 1514.72 268.824C1514.72 269.187 1514.89 269.469 1515.23 269.672C1515.57 269.875 1516.1 270.093 1516.83 270.328C1517.55 270.573 1518.14 270.808 1518.59 271.032C1519.05 271.256 1519.44 271.581 1519.77 272.008C1520.1 272.435 1520.27 272.984 1520.27 273.656C1520.27 274.296 1520.1 274.877 1519.77 275.4C1519.45 275.923 1518.98 276.339 1518.37 276.648C1517.75 276.957 1517.02 277.112 1516.17 277.112ZM1399.8 303L1397.46 298.76H1396.81V303H1394.07V291.768H1398.66C1399.55 291.768 1400.3 291.923 1400.92 292.232C1401.55 292.541 1402.02 292.968 1402.33 293.512C1402.64 294.045 1402.79 294.643 1402.79 295.304C1402.79 296.051 1402.58 296.717 1402.15 297.304C1401.73 297.891 1401.12 298.307 1400.29 298.552L1402.89 303H1399.8ZM1396.81 296.824H1398.5C1399 296.824 1399.38 296.701 1399.62 296.456C1399.88 296.211 1400.01 295.864 1400.01 295.416C1400.01 294.989 1399.88 294.653 1399.62 294.408C1399.38 294.163 1399 294.04 1398.5 294.04H1396.81V296.824ZM1407.24 293.96V296.232H1410.91V298.344H1407.24V300.808H1411.39V303H1404.51V291.768H1411.39V293.96H1407.24ZM1420.16 301.016H1415.96L1415.29 303H1412.43L1416.49 291.768H1419.66L1423.72 303H1420.83L1420.16 301.016ZM1419.45 298.904L1418.06 294.792L1416.68 298.904H1419.45ZM1429.17 291.768C1430.35 291.768 1431.39 292.003 1432.27 292.472C1433.16 292.941 1433.84 293.603 1434.32 294.456C1434.81 295.299 1435.06 296.275 1435.06 297.384C1435.06 298.483 1434.81 299.459 1434.32 300.312C1433.84 301.165 1433.15 301.827 1432.26 302.296C1431.37 302.765 1430.34 303 1429.17 303H1424.96V291.768H1429.17ZM1428.99 300.632C1430.03 300.632 1430.83 300.349 1431.41 299.784C1431.98 299.219 1432.27 298.419 1432.27 297.384C1432.27 296.349 1431.98 295.544 1431.41 294.968C1430.83 294.392 1430.03 294.104 1428.99 294.104H1427.7V300.632H1428.99ZM1446.22 291.768L1442.33 299.288V303H1439.59V299.288L1435.71 291.768H1438.81L1440.99 296.472L1443.15 291.768H1446.22ZM1458.79 291.768V293.96H1455.81V303H1453.08V293.96H1450.1V291.768H1458.79ZM1465.48 303.112C1464.42 303.112 1463.45 302.867 1462.56 302.376C1461.69 301.885 1460.99 301.203 1460.47 300.328C1459.96 299.443 1459.7 298.451 1459.7 297.352C1459.7 296.253 1459.96 295.267 1460.47 294.392C1460.99 293.517 1461.69 292.835 1462.56 292.344C1463.45 291.853 1464.42 291.608 1465.48 291.608C1466.53 291.608 1467.5 291.853 1468.37 292.344C1469.26 292.835 1469.95 293.517 1470.45 294.392C1470.96 295.267 1471.22 296.253 1471.22 297.352C1471.22 298.451 1470.96 299.443 1470.45 300.328C1469.94 301.203 1469.25 301.885 1468.37 302.376C1467.5 302.867 1466.53 303.112 1465.48 303.112ZM1465.48 300.616C1466.37 300.616 1467.09 300.317 1467.62 299.72C1468.16 299.123 1468.44 298.333 1468.44 297.352C1468.44 296.36 1468.16 295.571 1467.62 294.984C1467.09 294.387 1466.37 294.088 1465.48 294.088C1464.57 294.088 1463.84 294.381 1463.3 294.968C1462.77 295.555 1462.5 296.349 1462.5 297.352C1462.5 298.344 1462.77 299.139 1463.3 299.736C1463.84 300.323 1464.57 300.616 1465.48 300.616ZM1478.82 291.768V298.488C1478.82 299.16 1478.99 299.677 1479.32 300.04C1479.65 300.403 1480.13 300.584 1480.77 300.584C1481.41 300.584 1481.9 300.403 1482.24 300.04C1482.59 299.677 1482.76 299.16 1482.76 298.488V291.768H1485.49V298.472C1485.49 299.475 1485.28 300.323 1484.85 301.016C1484.43 301.709 1483.85 302.232 1483.12 302.584C1482.41 302.936 1481.61 303.112 1480.72 303.112C1479.84 303.112 1479.04 302.941 1478.34 302.6C1477.65 302.248 1477.1 301.725 1476.69 301.032C1476.29 300.328 1476.08 299.475 1476.08 298.472V291.768H1478.82ZM1491.48 303.112C1490.66 303.112 1489.92 302.979 1489.27 302.712C1488.62 302.445 1488.1 302.051 1487.7 301.528C1487.32 301.005 1487.12 300.376 1487.09 299.64H1490.01C1490.05 300.056 1490.19 300.376 1490.44 300.6C1490.68 300.813 1491 300.92 1491.4 300.92C1491.8 300.92 1492.12 300.829 1492.36 300.648C1492.59 300.456 1492.71 300.195 1492.71 299.864C1492.71 299.587 1492.61 299.357 1492.42 299.176C1492.24 298.995 1492.01 298.845 1491.73 298.728C1491.47 298.611 1491.08 298.477 1490.58 298.328C1489.86 298.104 1489.26 297.88 1488.81 297.656C1488.35 297.432 1487.95 297.101 1487.62 296.664C1487.29 296.227 1487.13 295.656 1487.13 294.952C1487.13 293.907 1487.5 293.091 1488.26 292.504C1489.02 291.907 1490.01 291.608 1491.22 291.608C1492.46 291.608 1493.46 291.907 1494.21 292.504C1494.97 293.091 1495.38 293.912 1495.43 294.968H1492.47C1492.45 294.605 1492.32 294.323 1492.07 294.12C1491.82 293.907 1491.51 293.8 1491.13 293.8C1490.8 293.8 1490.53 293.891 1490.33 294.072C1490.12 294.243 1490.02 294.493 1490.02 294.824C1490.02 295.187 1490.19 295.469 1490.53 295.672C1490.88 295.875 1491.41 296.093 1492.13 296.328C1492.86 296.573 1493.45 296.808 1493.89 297.032C1494.35 297.256 1494.75 297.581 1495.08 298.008C1495.41 298.435 1495.57 298.984 1495.57 299.656C1495.57 300.296 1495.41 300.877 1495.08 301.4C1494.76 301.923 1494.29 302.339 1493.67 302.648C1493.05 302.957 1492.32 303.112 1491.48 303.112ZM1499.99 293.96V296.232H1503.66V298.344H1499.99V300.808H1504.14V303H1497.26V291.768H1504.14V293.96H1499.99Z" fill="white"/>
<path d="M927.63 358.368C927.63 357.259 927.87 356.272 928.35 355.408C928.83 354.533 929.496 353.856 930.35 353.376C931.214 352.885 932.19 352.64 933.278 352.64C934.611 352.64 935.752 352.992 936.702 353.696C937.651 354.4 938.286 355.36 938.606 356.576H935.598C935.374 356.107 935.054 355.749 934.638 355.504C934.232 355.259 933.768 355.136 933.246 355.136C932.403 355.136 931.72 355.429 931.198 356.016C930.675 356.603 930.414 357.387 930.414 358.368C930.414 359.349 930.675 360.133 931.198 360.72C931.72 361.307 932.403 361.6 933.246 361.6C933.768 361.6 934.232 361.477 934.638 361.232C935.054 360.987 935.374 360.629 935.598 360.16H938.606C938.286 361.376 937.651 362.336 936.702 363.04C935.752 363.733 934.611 364.08 933.278 364.08C932.19 364.08 931.214 363.84 930.35 363.36C929.496 362.869 928.83 362.192 928.35 361.328C927.87 360.464 927.63 359.477 927.63 358.368ZM943.017 361.888H946.601V364H940.281V352.768H943.017V361.888ZM953.218 364.112C952.162 364.112 951.191 363.867 950.306 363.376C949.431 362.885 948.733 362.203 948.21 361.328C947.698 360.443 947.442 359.451 947.442 358.352C947.442 357.253 947.698 356.267 948.21 355.392C948.733 354.517 949.431 353.835 950.306 353.344C951.191 352.853 952.162 352.608 953.218 352.608C954.274 352.608 955.239 352.853 956.114 353.344C956.999 353.835 957.693 354.517 958.194 355.392C958.706 356.267 958.962 357.253 958.962 358.352C958.962 359.451 958.706 360.443 958.194 361.328C957.682 362.203 956.989 362.885 956.114 363.376C955.239 363.867 954.274 364.112 953.218 364.112ZM953.218 361.616C954.114 361.616 954.829 361.317 955.362 360.72C955.906 360.123 956.178 359.333 956.178 358.352C956.178 357.36 955.906 356.571 955.362 355.984C954.829 355.387 954.114 355.088 953.218 355.088C952.311 355.088 951.586 355.381 951.042 355.968C950.509 356.555 950.242 357.349 950.242 358.352C950.242 359.344 950.509 360.139 951.042 360.736C951.586 361.323 952.311 361.616 953.218 361.616ZM964.548 364.112C963.727 364.112 962.991 363.979 962.34 363.712C961.69 363.445 961.167 363.051 960.772 362.528C960.388 362.005 960.186 361.376 960.164 360.64H963.076C963.119 361.056 963.263 361.376 963.508 361.6C963.754 361.813 964.074 361.92 964.468 361.92C964.874 361.92 965.194 361.829 965.428 361.648C965.663 361.456 965.78 361.195 965.78 360.864C965.78 360.587 965.684 360.357 965.492 360.176C965.311 359.995 965.082 359.845 964.804 359.728C964.538 359.611 964.154 359.477 963.652 359.328C962.927 359.104 962.335 358.88 961.876 358.656C961.418 358.432 961.023 358.101 960.692 357.664C960.362 357.227 960.196 356.656 960.196 355.952C960.196 354.907 960.575 354.091 961.332 353.504C962.09 352.907 963.076 352.608 964.292 352.608C965.53 352.608 966.527 352.907 967.284 353.504C968.042 354.091 968.447 354.912 968.5 355.968H965.54C965.519 355.605 965.386 355.323 965.14 355.12C964.895 354.907 964.58 354.8 964.196 354.8C963.866 354.8 963.599 354.891 963.396 355.072C963.194 355.243 963.092 355.493 963.092 355.824C963.092 356.187 963.263 356.469 963.604 356.672C963.946 356.875 964.479 357.093 965.204 357.328C965.93 357.573 966.516 357.808 966.964 358.032C967.423 358.256 967.818 358.581 968.148 359.008C968.479 359.435 968.644 359.984 968.644 360.656C968.644 361.296 968.479 361.877 968.148 362.4C967.828 362.923 967.359 363.339 966.74 363.648C966.122 363.957 965.391 364.112 964.548 364.112ZM973.064 354.96V357.232H976.728V359.344H973.064V361.808H977.208V364H970.328V352.768H977.208V354.96H973.064ZM990.455 352.768V354.96H987.479V364H984.743V354.96H981.767V352.768H990.455ZM1001.56 352.768V364H998.82V359.376H994.564V364H991.828V352.768H994.564V357.168H998.82V352.768H1001.56ZM1006.27 354.96V357.232H1009.93V359.344H1006.27V361.808H1010.41V364H1003.53V352.768H1010.41V354.96H1006.27ZM1022.38 358.24C1023.03 358.379 1023.55 358.704 1023.95 359.216C1024.34 359.717 1024.54 360.293 1024.54 360.944C1024.54 361.883 1024.21 362.629 1023.55 363.184C1022.9 363.728 1021.98 364 1020.81 364H1015.58V352.768H1020.63C1021.78 352.768 1022.67 353.029 1023.31 353.552C1023.96 354.075 1024.28 354.784 1024.28 355.68C1024.28 356.341 1024.11 356.891 1023.75 357.328C1023.41 357.765 1022.95 358.069 1022.38 358.24ZM1018.31 357.312H1020.11C1020.55 357.312 1020.9 357.216 1021.13 357.024C1021.38 356.821 1021.5 356.528 1021.5 356.144C1021.5 355.76 1021.38 355.467 1021.13 355.264C1020.9 355.061 1020.55 354.96 1020.11 354.96H1018.31V357.312ZM1020.33 361.792C1020.79 361.792 1021.14 361.691 1021.39 361.488C1021.64 361.275 1021.77 360.971 1021.77 360.576C1021.77 360.181 1021.64 359.872 1021.37 359.648C1021.11 359.424 1020.76 359.312 1020.3 359.312H1018.31V361.792H1020.33ZM1031.44 364.112C1030.38 364.112 1029.41 363.867 1028.52 363.376C1027.65 362.885 1026.95 362.203 1026.43 361.328C1025.92 360.443 1025.66 359.451 1025.66 358.352C1025.66 357.253 1025.92 356.267 1026.43 355.392C1026.95 354.517 1027.65 353.835 1028.52 353.344C1029.41 352.853 1030.38 352.608 1031.44 352.608C1032.49 352.608 1033.46 352.853 1034.33 353.344C1035.22 353.835 1035.91 354.517 1036.41 355.392C1036.92 356.267 1037.18 357.253 1037.18 358.352C1037.18 359.451 1036.92 360.443 1036.41 361.328C1035.9 362.203 1035.21 362.885 1034.33 363.376C1033.46 363.867 1032.49 364.112 1031.44 364.112ZM1031.44 361.616C1032.33 361.616 1033.05 361.317 1033.58 360.72C1034.12 360.123 1034.4 359.333 1034.4 358.352C1034.4 357.36 1034.12 356.571 1033.58 355.984C1033.05 355.387 1032.33 355.088 1031.44 355.088C1030.53 355.088 1029.8 355.381 1029.26 355.968C1028.73 356.555 1028.46 357.349 1028.46 358.352C1028.46 359.344 1028.73 360.139 1029.26 360.736C1029.8 361.323 1030.53 361.616 1031.44 361.616ZM1046.78 352.768V354.96H1043.81V364H1041.07V354.96H1038.09V352.768H1046.78ZM1056.24 352.768V354.96H1053.26V364H1050.52V354.96H1047.55V352.768H1056.24ZM1060.35 361.888H1063.93V364H1057.61V352.768H1060.35V361.888ZM1067.97 354.96V357.232H1071.63V359.344H1067.97V361.808H1072.11V364H1065.23V352.768H1072.11V354.96H1067.97ZM953.203 388.016H949.011L948.339 390H945.475L949.539 378.768H952.707L956.771 390H953.875L953.203 388.016ZM952.499 385.904L951.107 381.792L949.731 385.904H952.499ZM968.056 390H965.32L960.744 383.072V390H958.008V378.768H960.744L965.32 385.728V378.768H968.056V390ZM974.247 378.768C975.431 378.768 976.466 379.003 977.351 379.472C978.236 379.941 978.919 380.603 979.399 381.456C979.89 382.299 980.135 383.275 980.135 384.384C980.135 385.483 979.89 386.459 979.399 387.312C978.919 388.165 978.231 388.827 977.335 389.296C976.45 389.765 975.42 390 974.247 390H970.039V378.768H974.247ZM974.071 387.632C975.106 387.632 975.911 387.349 976.487 386.784C977.063 386.219 977.351 385.419 977.351 384.384C977.351 383.349 977.063 382.544 976.487 381.968C975.911 381.392 975.106 381.104 974.071 381.104H972.775V387.632H974.071ZM989.119 390.112C988.297 390.112 987.561 389.979 986.911 389.712C986.26 389.445 985.737 389.051 985.343 388.528C984.959 388.005 984.756 387.376 984.735 386.64H987.647C987.689 387.056 987.833 387.376 988.079 387.6C988.324 387.813 988.644 387.92 989.039 387.92C989.444 387.92 989.764 387.829 989.999 387.648C990.233 387.456 990.351 387.195 990.351 386.864C990.351 386.587 990.255 386.357 990.063 386.176C989.881 385.995 989.652 385.845 989.375 385.728C989.108 385.611 988.724 385.477 988.223 385.328C987.497 385.104 986.905 384.88 986.447 384.656C985.988 384.432 985.593 384.101 985.263 383.664C984.932 383.227 984.767 382.656 984.767 381.952C984.767 380.907 985.145 380.091 985.903 379.504C986.66 378.907 987.647 378.608 988.863 378.608C990.1 378.608 991.097 378.907 991.855 379.504C992.612 380.091 993.017 380.912 993.071 381.968H990.111C990.089 381.605 989.956 381.323 989.711 381.12C989.465 380.907 989.151 380.8 988.766 380.8C988.436 380.8 988.169 380.891 987.967 381.072C987.764 381.243 987.663 381.493 987.663 381.824C987.663 382.187 987.833 382.469 988.174 382.672C988.516 382.875 989.049 383.093 989.775 383.328C990.5 383.573 991.087 383.808 991.535 384.032C991.993 384.256 992.388 384.581 992.719 385.008C993.049 385.435 993.215 385.984 993.215 386.656C993.215 387.296 993.049 387.877 992.719 388.4C992.399 388.923 991.929 389.339 991.311 389.648C990.692 389.957 989.961 390.112 989.119 390.112ZM1004.63 378.768V390H1001.89V385.376H997.634V390H994.898V378.768H997.634V383.168H1001.89V378.768H1004.63ZM1013.59 388.016H1009.4L1008.73 390H1005.87L1009.93 378.768H1013.1L1017.16 390H1014.27L1013.59 388.016ZM1012.89 385.904L1011.5 381.792L1010.12 385.904H1012.89ZM1024.91 390L1021.13 385.04V390H1018.4V378.768H1021.13V383.696L1024.88 378.768H1028.09L1023.74 384.272L1028.25 390H1024.91ZM1032.29 380.96V383.232H1035.95V385.344H1032.29V387.808H1036.43V390H1029.55V378.768H1036.43V380.96H1032.29ZM1044.34 378.768V390H1041.6V378.768H1044.34ZM1054.4 378.768V380.96H1051.42V390H1048.69V380.96H1045.71V378.768H1054.4Z" fill="white"/>
<path d="M225.083 232.227C242.682 221 261.933 212.57 281.823 206.34C284.534 205.454 289.885 203.598 292.548 202.624C305.076 198.288 317.423 193.397 330.288 190.076C346.724 185.423 363.696 182.548 380.741 181.527C386.414 181.267 392.133 181.342 397.813 181.399L397.825 181.752C390.33 182.836 382.83 183.368 375.382 184.717C347.546 189.144 319.799 195.01 292.896 203.627C283.989 206.743 275.38 210.667 266.804 214.576L225.253 232.522L225.082 232.215L225.083 232.227Z" fill="#F1E8A0"/>
<path d="M375.794 166.051C381.484 169.232 387.436 173.298 392.93 176.859C394.36 177.751 396.598 179.299 398.151 179.88L400.812 181.241C394.212 187.288 387.296 193.095 380.32 198.721C379.445 199.488 378.488 200.172 377.751 201.085C378.164 199.956 378.933 199.015 379.603 198.04C383.168 193.359 387.305 189.154 391.504 185.06C393.195 183.44 394.903 181.852 396.662 180.293L397.494 183.306C397.1 183.182 396.679 183.039 396.305 182.889C388.587 178.496 381.938 172.414 375.794 166.051Z" fill="#F1E8A0"/>
<path d="M662.971 156.66C679.044 157.972 715.308 159.85 730.795 161.406C738.311 162.308 745.737 163.852 753.092 165.65C775.168 171.099 796.848 177.73 818.106 186.071C825.194 188.826 832.146 191.962 839.144 195.125C839.144 195.125 839.312 194.785 839.3 194.784C832.826 190.47 826.071 186.633 819.143 183.24C805.262 176.479 790.688 171.493 775.845 167.967C763.031 164.576 744.164 162.252 730.948 160.173C716.006 157.494 700.921 155.093 685.729 155.192C678.14 155.1 670.533 155.382 662.966 156.285L662.971 156.673L662.971 156.66Z" fill="#F1E8A0"/>
<path d="M811.143 201.264C817.662 200.982 824.812 199.968 831.33 199.221C833.011 199.056 835.71 198.668 837.35 198.863L840.346 198.852C837.678 190.78 834.737 182.812 831.651 174.927C830.884 172.862 829.55 169.931 829.068 167.777C829.211 175.547 831.847 183.061 833.857 190.429C834.607 192.868 835.391 195.295 836.224 197.698L838.358 195.153C837.953 195.069 837.511 195.009 837.115 194.964C828.236 195.417 819.533 198.062 811.143 201.251L811.143 201.264Z" fill="#F1E8A0"/>
<path d="M1134.64 281.712C1150.66 279.943 1186.85 276.885 1202.28 274.929C1209.77 273.852 1217.16 272.226 1224.46 270.382C1246.4 264.805 1267.91 258.224 1288.96 250.183C1295.98 247.525 1302.85 244.544 1309.77 241.536C1309.77 241.536 1309.95 241.824 1309.94 241.825C1303.56 245.804 1296.9 249.383 1290.06 252.585C1276.34 258.97 1261.89 263.85 1247.14 267.481C1234.41 270.915 1215.62 273.668 1202.46 275.986C1187.6 278.89 1172.58 281.56 1157.4 282.077C1149.82 282.457 1142.22 282.515 1134.64 282.036L1134.64 281.701L1134.64 281.712Z" fill="#F1E8A0"/>
<path d="M1281.67 237.349C1288.19 237.334 1295.35 237.926 1301.88 238.312C1303.56 238.388 1306.27 238.615 1307.9 238.382L1310.89 238.273C1308.41 245.344 1305.64 252.337 1302.73 259.263C1302.01 261.075 1300.75 263.657 1300.31 265.535C1300.28 258.825 1302.75 252.236 1304.6 245.798C1305.29 243.664 1306.02 241.539 1306.8 239.432L1308.99 241.544C1308.59 241.633 1308.15 241.702 1307.75 241.756C1298.87 241.717 1290.12 239.78 1281.67 237.36L1281.67 237.349Z" fill="#F1E8A0"/>
</svg>
