<svg width="248" height="206" viewBox="0 0 248 206" fill="none" xmlns="http://www.w3.org/2000/svg">
<path d="M161.933 199.314C141.267 205.966 118.871 207.695 97.658 202.545C95.0763 201.96 92.342 201.146 89.7857 200.497C85.8051 199.658 82.5112 196.084 81.799 192.129L81.125 189.509L81.0868 189.344C80.9088 160.513 81.9516 131.694 82.0025 102.864C82.0534 95.6781 81.9516 88.4799 81.9389 81.2944C81.8626 77.7334 81.9644 74.0071 82.7783 70.4335C85.8305 55.7573 100.036 44.6675 115.018 45.0109C120.397 44.9981 131.22 44.8201 136.587 44.8074C147.918 44.4767 159.148 50.276 165.341 59.8397C169.627 65.9823 171.115 74.0326 170.797 81.3071C170.975 117.069 169.894 153.48 169.335 189.178V189.204V189.229L168.508 192.396C167.77 195.664 165.176 198.424 161.933 199.314ZM161.844 199.009C164.96 198.106 167.427 195.461 168.101 192.294L168.89 189.115C168.546 160.653 167.465 131.542 167.478 102.876L167.414 81.3071C167.669 74.2233 166.486 67.5211 162.607 61.6201C157.062 52.8704 146.977 47.5162 136.574 47.6943C131.194 47.6943 120.372 47.5162 115.005 47.4908C96.17 46.9439 81.7482 62.6248 83.0326 81.3071C82.5239 116.688 84.1264 154.777 83.8466 188.835C84.2281 190.069 84.6351 192.65 85.2328 193.744C86.2756 195.868 88.1706 197.394 90.4852 197.992L93.0796 198.755C94.8092 199.276 96.5388 199.772 98.243 200.243C118.96 206.182 141.343 205.648 161.844 199.009Z" fill="#F3E89F"/>
<path d="M105.173 55.7065C103.99 57.4361 102.299 58.428 100.531 59.3819C98.2417 61.7219 97.0971 64.7233 94.2102 66.9234L94.0703 66.8471C94.2865 65.4482 94.8588 64.1764 95.6473 63.0573C96.7792 61.315 98.7123 60.3866 100.188 59.0131C101.04 57.9702 101.803 56.7747 103.113 56.2279C103.723 55.9227 104.359 55.6556 105.097 55.5793L105.173 55.7192V55.7065Z" fill="#F3E89F"/>
<path d="M169.182 84.3594C168.686 86.9665 161.526 87.9204 159.199 88.5308C140.949 92.0663 122.216 91.6721 103.801 89.9679C75.2876 87.6914 75.3893 80.9765 103.762 78.2804C122.216 76.6907 140.962 76.767 159.212 80.1626C162.34 80.8875 165.723 81.3453 168.445 83.1512C168.813 83.431 169.182 83.8253 169.195 84.3467L169.182 84.3594ZM169.03 84.3594C166.143 77.2884 112.932 78.929 103.89 79.7683C76.5975 81.9303 76.6357 86.8521 103.851 89.4338C111.978 90.2477 167.389 91.0362 169.03 84.3721V84.3594Z" fill="#F3E89F"/>
<path d="M142.947 82.9858C144.218 83.0366 145.452 83.0621 146.762 83.5835C146.927 83.6725 147.118 83.7616 147.283 84.0668C147.728 85.4403 145.109 85.8473 144.231 86.127C136.804 87.6659 129.148 87.6023 121.645 86.6103C124.15 86.3051 126.655 86.2034 129.148 86.038L136.613 85.5802C139.894 85.2622 143.455 85.3894 146.508 84.3084C146.495 84.3339 146.508 84.3974 146.52 84.4102C145.694 83.6598 144.155 83.4055 142.947 82.9858Z" fill="#F3E89F"/>
<path d="M108.125 85.4148C107.349 85.3513 104.78 85.0587 105.861 83.8124C107.298 82.7696 109.117 82.5915 110.77 82.2354C118.693 80.9382 126.795 81.1163 134.73 82.2354C132.06 82.4771 129.402 82.617 126.756 82.6678L118.821 82.9985C114.662 83.3291 110.223 83.0494 106.23 84.2703C106.116 84.3466 106.116 84.3593 106.103 84.372C106.523 84.9443 107.438 85.1223 108.112 85.4148H108.125Z" fill="#F3E89F"/>
<path d="M91.3742 110.456C92.7223 116.497 92.328 122.614 91.6413 128.693C91.5777 134.772 92.7477 140.826 92.5188 146.93C92.4043 150.987 92.1372 155.031 91.3742 159.088H91.1326C90.0261 153.022 89.8099 146.968 90.1279 140.851C90.2042 136.807 91.0562 132.75 90.8655 128.693C90.5348 124.649 89.8862 120.617 90.3313 116.535C90.484 114.513 90.6747 112.478 91.1326 110.456H91.3742Z" fill="#F3E89F"/>
<path d="M138.291 46.6895C130.012 46.6895 121.72 48.4573 113.415 47.8468C110.694 47.9104 108.303 45.1507 108.697 42.5435C108.862 40.4706 109.015 38.3976 109.066 36.3246C109.117 34.2516 109.104 32.1786 109.04 30.1057C108.761 27.702 110.783 25.1966 113.326 25.1585C121.606 24.5353 129.91 24.3446 138.202 24.3318C140.771 24.2682 143.302 26.3921 143.543 29.0119C143.633 31.4665 143.302 33.7938 143.086 36.2229C142.882 38.2958 142.641 40.3688 142.475 42.4418C142.513 44.7183 140.504 46.7785 138.291 46.6768V46.6895ZM138.291 46.3716C143.505 45.9264 141.064 39.9237 141 36.2229C140.784 34.1499 140.593 32.0769 140.517 30.0039C140.491 28.5668 139.461 27.6384 138.189 27.702C129.885 27.702 121.593 27.4985 113.314 26.8881C111.698 26.7228 109.969 28.1599 110.096 30.1057C109.956 34.2643 110.083 38.3976 110.439 42.5435C110.503 44.3113 111.991 45.3796 113.403 45.2143C121.707 44.6038 129.999 46.3716 138.278 46.3716H138.291Z" fill="#F3E89F"/>
<path d="M141.268 9.07067C141.039 9.21056 140.734 9.22328 140.467 9.29959C133.319 10.5841 125.905 9.94819 118.757 9.21056C111.903 8.57468 103.547 7.16302 97.8751 11.983C97.6716 12.1865 97.3536 12.1738 97.1502 11.983C96.2345 11.0419 95.3061 10.1008 94.3523 9.18513L91.4908 6.45083C91.0966 6.08202 91.1856 5.39526 91.6561 5.14091C97.519 1.31289 104.45 -0.0733373 111.318 0.00296873C115.298 -0.047902 120.678 1.42735 124.544 2.40661C128.766 3.37315 133.052 4.00903 137.389 4.32698L139.068 4.42872C139.805 4.49231 140.492 4.88655 140.899 5.44613C141.687 6.52713 141.268 7.91336 141.293 9.05795L141.268 9.07067ZM141.013 8.8799C140.365 6.04386 140.517 5.45885 137.389 5.95484C130.763 6.62887 123.845 5.61146 117.46 4.12349C109.219 2.41933 100.266 3.09336 92.5718 6.578L92.7371 5.26808L95.2807 8.30761C96.1327 9.32502 96.9975 10.3043 97.8878 11.2835H97.1502C100.113 8.71457 103.954 7.73531 107.693 6.90866C114.23 5.26808 123.488 6.97225 130.102 7.73531C133.179 8.07869 137.745 8.67642 140.797 8.8036H140.975C141.026 8.81631 141.115 8.76544 141.052 8.86718L141.013 8.8799Z" fill="#F3E89F"/>
<path d="M117.435 7.95157C119.012 13.878 118.962 20.0206 117.893 26.0234L117.283 25.4129C122.866 25.9725 128.691 24.3701 134.337 24.3955L132.697 26.0361C132.493 20.4912 132.938 14.9972 134.172 9.54128C134.197 9.38867 134.452 9.37595 134.49 9.54128C135.736 14.9844 136.169 20.4912 135.965 26.0361C135.991 26.9518 135.253 27.7276 134.325 27.6767C128.665 27.7021 122.866 26.0997 117.27 26.6593C116.965 26.6974 116.698 26.4685 116.672 26.176C115.909 21.6358 115.553 17.0701 116.253 12.4918C116.456 10.9911 116.685 9.47769 117.118 7.97701C117.156 7.8244 117.397 7.8244 117.435 7.97701V7.95157Z" fill="#F3E89F"/>
<path d="M116.634 29.3045C117.715 33.921 117.728 38.563 116.634 43.1795C115.54 38.563 115.553 33.921 116.634 29.3045Z" fill="#F3E89F"/>
<path d="M125.804 29.3045C126.885 33.921 126.898 38.563 125.804 43.1795C124.71 38.563 124.723 33.921 125.804 29.3045Z" fill="#F3E89F"/>
<path d="M134.985 29.3045C136.066 33.921 136.079 38.563 134.985 43.1795C133.892 38.563 133.904 33.921 134.985 29.3045Z" fill="#F3E89F"/>
<path d="M178.875 54.2311C182.296 50.0089 186.849 47.1601 191.529 44.6038C195.84 41.5135 199.389 37.4311 203.814 34.4679C206.727 32.4712 209.741 30.6017 213.06 29.1392L213.2 29.3299C209.601 33.3741 205.493 36.6807 200.991 39.5677C198.091 41.5898 194.734 42.976 192 45.227C189.354 47.5798 186.925 50.1996 183.784 51.9419C182.271 52.8703 180.719 53.7479 179.028 54.4219L178.888 54.2311H178.875Z" fill="#F3E89F"/>
<path d="M192.953 146.79C198.256 146.511 203.267 147.999 208.164 149.779C213.2 150.924 218.478 150.835 223.501 152.144C226.846 152.984 230.152 153.976 233.357 155.464L233.306 155.705C228.029 155.731 222.954 154.879 217.943 153.454C214.599 152.653 211.419 151.076 207.998 150.542C204.577 150.148 201.08 150.084 197.786 148.914C196.133 148.405 194.492 147.846 192.902 147.032L192.953 146.79Z" fill="#F3E89F"/>
<path d="M192.889 100.994C199.26 97.7129 206.204 96.1359 213.186 94.8515C220.003 92.9438 226.438 89.8407 233.305 88.0984C237.858 86.9029 242.475 85.8601 247.219 85.3005L247.282 85.5294C240.809 88.5689 234.107 90.7564 227.201 92.3969C222.648 93.6178 217.892 94.0884 213.415 95.5891C208.989 97.2169 204.665 99.1627 199.985 100.04C197.683 100.549 195.356 101.007 192.965 101.21L192.901 100.981L192.889 100.994Z" fill="#F3E89F"/>
<path d="M68.2691 61.3657C63.2075 59.369 59.1378 55.8844 55.2843 52.1708C51.0494 48.9787 46.0768 46.8294 41.9308 43.4973C39.1456 41.3099 36.4622 38.9953 34.084 36.2737L34.2239 36.0829C39.1583 38.3085 43.5459 41.2336 47.6537 44.6674C50.4516 46.8294 52.779 49.6145 55.7549 51.5476C58.7944 53.3535 62.0247 54.9051 64.6318 57.3723C65.9672 58.5424 67.2644 59.7505 68.4217 61.1749L68.2818 61.3657H68.2691Z" fill="#F3E89F"/>
<path d="M54.3807 153.963C49.6624 156.392 44.4736 157.104 39.2848 157.486C34.2232 158.516 29.4413 160.767 24.3288 161.632C20.9332 162.242 17.5122 162.687 13.9767 162.649L13.9258 162.408C18.7331 160.22 23.7057 158.91 28.8563 158.147C32.2392 157.511 35.7875 157.626 39.1195 156.723C42.4006 155.667 45.6182 154.294 49.1029 154.014C50.8197 153.798 52.5493 153.645 54.3298 153.734L54.3807 153.976V153.963Z" fill="#F3E89F"/>
<path d="M54.3299 108.154C47.1826 107.531 40.4676 105.178 33.8799 102.533C27.1014 100.511 20.0049 99.7095 13.2518 97.5221C8.74976 96.1104 4.31129 94.5334 0 92.4732L0.0635884 92.2443C7.16005 93.1091 13.9894 94.8514 20.7171 97.1406C25.2191 98.5268 29.505 100.663 34.0834 101.783C38.6999 102.762 43.3927 103.423 47.8184 105.178C50.044 105.979 52.2442 106.831 54.3808 107.925L54.3172 108.154H54.3299Z" fill="#F3E89F"/>
</svg>
