<svg width="200" height="240" viewBox="0 0 200 240" fill="none" xmlns="http://www.w3.org/2000/svg">
<path d="M80.8667 233.089C60.2004 239.741 37.8046 241.47 16.5916 236.32C14.0099 235.735 11.2756 234.921 8.71932 234.272C4.73869 233.433 1.44481 229.859 0.73262 225.904L0.0585832 223.284L0.0204302 223.119C-0.157617 194.288 0.885232 165.47 0.936102 136.639C0.986973 129.453 0.885232 122.255 0.872514 115.069C0.796208 111.508 0.897949 107.782 1.71188 104.209C4.76412 89.5323 18.9698 78.4425 33.9512 78.7859C39.3308 78.7732 50.1535 78.5951 55.5203 78.5824C66.8518 78.2517 78.0815 84.051 84.275 93.6147C88.5608 99.7573 90.0488 107.808 89.7309 115.082C89.9089 150.844 88.8279 187.255 88.2683 222.953V222.979V223.004L87.4544 226.171C86.7295 229.439 84.1224 232.199 80.8794 233.089H80.8667ZM80.7776 232.784C83.8935 231.881 86.3607 229.236 87.0347 226.069L87.8232 222.89C87.4798 194.428 86.3988 165.317 86.4116 136.651L86.348 115.082C86.6023 107.998 85.4196 101.296 81.5407 95.3952C75.9958 86.6454 65.9107 81.2913 55.5076 81.4693C50.1281 81.4693 39.3053 81.2913 33.9385 81.2658C15.1036 80.719 0.681749 96.3998 1.96623 115.082C1.45753 150.463 3.05995 188.552 2.78016 222.61C3.16169 223.844 3.56866 226.425 4.16639 227.519C5.20924 229.643 7.10417 231.169 9.41879 231.767L12.0132 232.53C13.7428 233.051 15.4724 233.547 17.1766 234.018C37.8937 239.957 60.2767 239.423 80.7776 232.784Z" fill="#F3E89F"/>
<path d="M59.9211 80.1212C55.241 80.7952 50.1666 81.1513 45.2703 81.3039C40.1451 81.5964 34.7528 80.7189 29.6657 80.5282L29.1316 80.5154V80.0194C29.2588 76.4076 29.0553 72.7958 28.7246 69.184C33.4556 68.6753 39.9162 68.4591 44.7362 68.3192C50.2048 68.1793 55.6734 68.4209 61.1292 68.8152C60.9385 72.5796 60.417 76.5348 59.9211 80.1339V80.1212ZM59.6921 79.8923C59.3233 76.4331 58.8019 73.2536 58.5603 69.9598L59.8066 71.2061C57.2885 71.3841 54.7831 71.524 52.265 71.5876C47.9029 71.7784 41.6076 71.524 37.1946 71.3714C34.6765 71.2951 32.1711 71.0535 29.653 70.8373L30.5178 69.9725C30.2253 73.3172 30.06 76.6747 30.1617 80.0194L29.653 79.5107C34.6002 79.32 39.2421 78.4425 44.1893 78.735C49.3654 78.9003 54.338 79.3073 59.6921 79.9177V79.8923Z" fill="#F3E89F"/>
<path d="M24.1445 89.5577C22.8092 91.5671 21.3848 93.195 19.5026 94.5685C18.5742 95.1789 17.4169 95.6367 16.6157 96.4507C14.9369 98.0022 14.6317 100.546 13.7923 102.53L12.8131 105.595C11.961 107.579 11.4523 109.613 10.3458 111.903H10.0279C7.67514 106.536 10.4349 100.609 14.7334 97.1502C16.8191 94.9246 17.4296 91.7324 20.4691 90.3843C21.5247 89.7993 22.682 89.3542 23.9919 89.2652L24.1445 89.545V89.5577Z" fill="#F3E89F"/>
<path d="M88.1157 137.91C87.6198 140.517 80.4597 141.471 78.1324 142.082C59.8825 145.617 41.1494 145.223 22.7342 143.519C-5.77882 141.242 -5.67708 134.527 22.696 131.831C41.1494 130.242 59.8952 130.318 78.1451 133.713C81.2736 134.438 84.6565 134.896 87.3781 136.702C87.7469 136.982 88.1157 137.376 88.1285 137.898L88.1157 137.91ZM87.9631 137.91C85.0762 130.839 31.8655 132.48 22.8232 133.319C-4.4689 135.481 -4.43075 140.403 22.7851 142.985C30.9117 143.799 86.3226 144.587 87.9631 137.923V137.91Z" fill="#F3E89F"/>
<path d="M61.8802 136.537C63.152 136.588 64.3856 136.613 65.6955 137.135C65.8609 137.224 66.0516 137.313 66.217 137.618C66.6621 138.991 64.0422 139.398 63.1647 139.678C55.7376 141.217 48.0816 141.153 40.5781 140.161C43.0835 139.856 45.5889 139.754 48.0816 139.589L55.5468 139.131C58.828 138.813 62.3889 138.941 65.4412 137.86C65.4285 137.885 65.4412 137.949 65.4539 137.961C64.6272 137.211 63.0884 136.957 61.8802 136.537Z" fill="#F3E89F"/>
<path d="M27.0722 138.966C26.2964 138.902 23.7275 138.61 24.8085 137.364C26.2456 136.321 28.0642 136.143 29.7175 135.787C37.6406 134.489 45.7418 134.667 53.6776 135.787C51.0069 136.028 48.3489 136.168 45.7036 136.219L37.7678 136.55C33.6091 136.88 29.1706 136.6 25.1773 137.821C25.0628 137.898 25.0628 137.91 25.0501 137.923C25.4698 138.495 26.3855 138.673 27.0595 138.966H27.0722Z" fill="#F3E89F"/>
<path d="M10.3463 165.024C12.1522 171.18 11.6308 177.068 10.7024 183.261C10.6261 189.34 12.1776 195.381 11.8851 201.499C11.7325 205.556 11.3764 209.6 10.359 213.657H10.0411C8.57853 207.59 8.26059 201.562 8.70571 195.42C8.82017 191.375 9.93932 187.318 9.68497 183.261C9.25257 179.23 8.36233 175.198 8.97278 171.103C9.17626 169.081 9.43062 167.046 10.0411 165.024H10.359H10.3463Z" fill="#F3E89F"/>
<path d="M50.0008 111.521C45.4097 115.133 39.8012 108.609 44.3033 104.603C49.0851 100.94 54.4265 107.693 50.0008 111.521ZM50.0008 111.521C53.8669 108.075 49.0342 102.492 45.1045 105.595C41.3146 108.863 45.8675 114.675 50.0008 111.521Z" fill="#F3E89F"/>
<path d="M35.3737 122.497C33.4025 126.236 27.7177 123.501 29.5745 119.559C31.6602 115.731 37.2305 118.694 35.3737 122.497ZM35.3737 122.497C36.9634 119.101 32.0798 116.761 30.3884 119.966C28.7987 123.221 33.5678 125.79 35.3737 122.497Z" fill="#F3E89F"/>
<path d="M35.7443 100.838C35.6171 106.676 27.0072 106.854 26.791 100.838C27.0072 94.8102 35.6171 95.001 35.7443 100.838ZM35.7443 100.838C35.5408 95.6623 28.1645 95.8403 28.0501 100.838C28.1645 105.849 35.5408 106.027 35.7443 100.838Z" fill="#F3E89F"/>
<path d="M47.3924 95.1408C42.9285 93.8818 44.4928 87.2305 49.1602 88.2479C53.7513 89.5705 51.8945 96.2218 47.3924 95.1408ZM47.3924 95.1408C51.3985 96.0311 52.7339 90.27 48.9058 89.2271C45.0524 88.2987 43.4373 93.9963 47.3924 95.1408Z" fill="#F3E89F"/>
<path d="M43.4116 47.7548C39.1512 46.5848 40.6646 40.1878 45.1031 41.1798C49.478 42.4389 47.7102 48.7723 43.4116 47.7548ZM43.4116 47.7548C47.2269 48.6069 48.4987 43.1129 44.8615 42.1209C41.186 41.2307 39.6472 46.6611 43.4116 47.7548Z" fill="#F3E89F"/>
<path d="M36.9527 64.4658C31.3315 62.8888 33.3027 54.5078 39.1783 55.7923C44.9648 57.4965 42.6375 65.8011 36.9527 64.4658ZM36.9527 64.4658C42.0143 65.5595 43.6804 58.374 38.8604 57.0132C33.9768 55.8686 31.9801 62.9778 36.9527 64.4658Z" fill="#F3E89F"/>
<path d="M49.8465 127.978C46.5272 123.171 53.4074 117.982 57.1083 122.725C60.4657 127.736 53.382 132.633 49.8465 127.978ZM49.8465 127.978C53.0386 132.06 58.9142 127.596 56.0781 123.476C53.0513 119.482 46.9723 123.667 49.8465 127.978Z" fill="#F3E89F"/>
<path d="M199.725 42.7314L190.835 43.4308C184.985 43.6089 170.703 46.7374 164.751 47.7549C136.035 53.1217 106.606 58.0307 77.6735 62.3929L60.2503 65.2544L59.8433 65.318L59.7797 64.9237C57.6558 52.2569 55.3539 39.6283 53.0012 27.0123L52.8867 26.3637L53.548 26.2366C85.3041 20.2084 125.873 13.0865 157.871 7.69419C166.506 6.05361 175.307 5.35414 183.752 2.83604L192.222 0.356095L193.455 0V1.25905C193.493 4.83272 193.557 13.7224 193.582 17.1689C193.633 18.695 193.506 20.9206 193.748 22.3704C195.274 28.1824 197.983 36.8812 199.7 42.7314H199.725ZM199.521 42.5915L195.948 32.5445C194.981 29.6195 193.226 25.5371 192.552 22.5739C192.323 20.9587 192.234 18.8094 192.196 17.1943C192.069 13.786 191.687 4.82 191.547 1.2972L192.794 2.20016C187.681 3.78987 180.903 6.12992 175.701 7.08374C164.077 9.2839 135.564 14.1421 123.508 16.2405C112.087 18.1354 82.3154 23.0699 71.2256 24.8249L53.777 27.5592L54.3238 26.7834C55.3412 33.1168 56.2951 39.4757 57.3761 45.7963C58.4571 52.1297 59.449 58.4631 60.5936 64.7838L60.1231 64.4532C68.822 62.9143 86.1943 59.7349 94.855 58.0562C117.988 53.6304 141.211 49.777 164.472 46.0634L181.933 43.3545C187.109 42.5788 194.269 42.6551 199.521 42.5915Z" fill="#F3E89F"/>
<path d="M94.2183 20.0049C92.5141 26.0712 89.1185 31.3109 85.4812 36.3471C82.429 41.7139 80.5341 47.7039 77.3292 53.0072C75.2308 56.5554 72.9797 60.0019 70.2709 63.2068L70.0547 63.0796C72.0132 57.115 74.7729 51.621 78.0923 46.3559C80.1652 42.8076 82.9504 39.6409 84.769 35.9401C86.4605 32.1757 87.834 28.2586 90.2504 24.863C91.3822 23.1461 92.5777 21.442 93.9893 19.8777L94.2055 20.0049H94.2183Z" fill="#F3E89F"/>
<path d="M134.191 13.1373C132.487 19.2036 129.091 24.4433 125.454 29.4795C122.402 34.8464 120.507 40.8364 117.302 46.1397C115.203 49.6879 112.952 53.1344 110.244 56.3392L110.027 56.2121C111.986 50.2475 114.746 44.7534 118.065 39.4883C120.138 35.9401 122.923 32.7734 124.742 29.0726C126.433 25.3081 127.807 21.3911 130.223 17.9955C131.355 16.2786 132.55 14.5744 133.962 13.0101L134.178 13.1373H134.191Z" fill="#F3E89F"/>
</svg>
