<svg width="268" height="242" viewBox="0 0 268 242" fill="none" xmlns="http://www.w3.org/2000/svg">
<path d="M151.155 222.948C129.452 223.476 107.475 218.78 88.5895 207.826C86.2728 206.532 83.8893 204.978 81.6275 203.623C78.051 201.692 75.9055 197.332 76.3414 193.335L76.428 190.631L76.4273 190.463C84.427 162.762 93.6031 135.414 101.82 107.781C103.91 100.896 105.852 93.9705 107.875 87.0703C108.81 83.6259 109.962 80.0829 111.76 76.888C118.85 63.6873 135.61 57.0672 149.88 61.6444C155.039 63.158 165.463 66.0523 170.634 67.564C181.6 70.4627 190.723 79.203 193.947 90.1265C196.308 97.2335 195.461 105.377 193.099 112.253C183.139 146.601 171.778 181.208 161.119 215.293L161.11 215.32L161.102 215.347L159.421 218.15C157.787 221.087 154.508 222.984 151.151 222.923L151.155 222.948ZM151.155 222.626C154.402 222.64 157.524 220.807 159.069 217.961L160.721 215.137C168.461 187.747 175.67 159.526 183.806 132.035L189.861 111.324C192.105 104.595 192.889 97.8394 190.828 91.084C187.987 81.117 179.833 73.1247 169.813 70.3465C164.653 68.8203 154.329 65.5881 149.177 64.0348C131.266 58.18 113.002 69.1201 108.932 87.4051C98.4203 121.196 89.1601 158.175 79.2288 190.754C79.2413 192.052 78.8921 194.644 79.1624 195.863C79.5575 198.195 80.9423 200.191 82.9918 201.424L85.2589 202.894C86.7668 203.878 88.2853 204.848 89.7978 205.78C107.982 217.347 129.598 223.182 151.143 222.628L151.155 222.626Z" fill="#F3E89F"/>
<path d="M137.432 69.1398C134.359 70.8755 131.255 72.0108 128.143 73.4952C123.447 76.7754 120.667 81.8254 117.811 86.7199L117.663 86.679C117.727 86.1025 117.827 85.5199 117.926 84.9248C118.824 80.1859 122.353 76.3693 126.428 74.0501C128.839 72.445 131.002 70.2483 133.918 69.5547C135.035 69.2103 136.208 68.9731 137.408 68.9891L137.432 69.1398Z" fill="#F3E89F"/>
<path d="M102.782 137.682C102.371 143.863 100.256 149.619 97.8628 155.239C96.0804 161.058 95.4809 167.192 93.5378 172.972C92.2814 176.827 90.8749 180.63 88.997 184.301L88.7675 184.234C89.4318 178.103 90.9345 172.225 92.9715 166.469C94.1882 162.606 96.1601 158.959 97.1202 155.021C97.9594 151.051 98.4752 146.991 100.053 143.213C100.769 141.31 101.539 139.424 102.54 137.617L102.77 137.684L102.782 137.682Z" fill="#F3E89F"/>
<path d="M172.087 69.2527C164.144 66.9053 155.698 66.26 147.904 63.3096C145.28 62.5921 143.764 59.2784 144.879 56.8871C145.626 54.9403 146.361 52.9955 146.99 51.0289C147.616 49.0498 148.203 47.0641 148.736 45.0612C149.144 42.6788 151.789 40.8435 154.242 41.5366C162.361 43.2895 170.366 45.4597 178.334 47.8031C180.821 48.4651 182.649 51.2272 182.131 53.8073C181.516 56.1838 180.541 58.3211 179.64 60.6012C178.864 62.5269 178.035 64.4479 177.3 66.3928C176.695 68.5874 174.174 69.9909 172.091 69.2778L172.087 69.2527ZM172.182 68.9545C177.306 70.01 176.666 63.5316 177.652 60.0018C178.037 57.958 178.434 55.9122 178.952 53.8987C179.338 52.5114 178.609 51.3263 177.378 51.032C169.42 48.674 161.525 46.1388 153.758 43.197C152.258 42.5848 150.195 43.4651 149.764 45.3747C148.444 49.3178 147.393 53.3342 146.57 57.4047C146.132 59.1094 147.251 60.5674 148.654 60.8087C156.801 62.5702 164.241 66.6197 172.184 68.9671L172.182 68.9545Z" fill="#F3E89F"/>
<path d="M185.601 34.008C185.341 34.0749 185.047 34.0056 184.775 33.9971C177.556 33.2091 170.636 30.4936 163.971 27.7635C157.579 25.2091 149.961 21.4969 143.163 24.505C142.913 24.6347 142.602 24.5423 142.472 24.2925C141.389 22.2493 139.804 19.3972 138.61 17.3845C138.329 16.9139 138.617 16.2889 139.14 16.1803C145.826 14.1685 152.869 14.8172 159.435 16.8419C163.263 17.9224 168.002 20.8544 171.429 22.8998C175.203 25.019 179.137 26.8552 183.202 28.3747L184.774 28.9498C185.46 29.2146 186.001 29.7856 186.234 30.444C186.69 31.698 185.89 32.9063 185.59 34.0225L185.601 34.008ZM185.419 33.7535C185.599 30.8278 185.936 30.3496 182.778 29.9226C176.235 28.6926 169.886 25.7581 164.183 22.5151C156.757 18.5536 147.985 16.6594 139.618 17.8171L140.149 16.6128L141.717 20.2531C142.242 21.4575 142.805 22.6559 143.367 23.8418L142.653 23.6458C146.219 22.0124 150.194 22.1553 153.997 22.4286C160.738 22.713 169.123 26.9604 175.241 29.5711C178.096 30.7671 182.294 32.6389 185.192 33.622L185.355 33.6735C185.398 33.7052 185.497 33.6768 185.406 33.7555L185.419 33.7535Z" fill="#F3E89F"/>
<path d="M163.066 26.1943C162.891 32.3253 161.119 38.2071 158.388 43.6484L157.972 42.8903C163.107 44.9871 169.125 45.1026 174.613 46.7444L172.586 47.8508C173.964 42.4822 175.941 37.3275 178.672 32.4528C178.752 32.3113 178.994 32.376 178.97 32.5472C178.613 38.1791 177.456 43.6415 175.655 48.9356C175.371 49.7404 174.485 50.1639 173.68 49.8794L169.656 48.4564C165.652 46.9918 161.86 44.7595 157.617 44.0666C157.325 44.0099 157.126 43.7323 157.183 43.4401C157.734 38.8718 158.686 34.3947 160.661 30.1934C161.278 28.808 161.935 27.4292 162.77 26.1124C162.852 25.9834 163.08 26.0376 163.068 26.2068L163.066 26.1943Z" fill="#F3E89F"/>
<path d="M156.241 46.435C155.973 51.1644 154.659 55.6344 152.309 59.7407C152.577 55.0113 153.893 50.5538 156.241 46.435Z" fill="#F3E89F"/>
<path d="M165.036 49.0337C164.767 53.7631 163.454 58.2331 161.104 62.3394C161.372 57.61 162.688 53.1525 165.036 49.0337Z" fill="#F3E89F"/>
<path d="M173.842 51.6307C173.574 56.3601 172.26 60.8301 169.911 64.9364C170.179 60.207 171.494 55.7495 173.842 51.6307Z" fill="#F3E89F"/>
<path d="M193.487 102.419C194.698 106 175.666 114.937 172.333 116.74C156.69 124.149 140.446 131.498 123.022 133.112C118.689 133.553 114.334 133.702 109.983 133.542C105.609 133.243 101.172 133.031 97.1079 131.113C91.3773 127.449 104.128 126.009 106.241 125.366C110.491 124.474 114.709 123.548 118.91 122.509C127.294 120.409 135.477 117.684 143.361 114.13C155.313 108.864 167.821 104.836 180.674 102.491C184.408 101.925 188.24 101.074 192.026 101.646C192.547 101.77 193.15 101.919 193.489 102.432L193.487 102.419ZM193.346 102.506C189.531 99.6334 173.062 104.92 168.262 106.401C160.036 109.094 151.967 112.214 144.059 115.694C136.155 119.366 127.774 122.058 119.292 124.032C115.05 125.052 110.77 125.833 106.501 126.599C103.287 127.366 99.4566 127.406 96.6845 129.171C96.5894 129.302 96.5848 129.354 96.6067 129.492C96.7047 129.786 97.1326 130.13 97.5446 130.374C105.372 133.86 114.595 133.313 122.965 132.503C135.497 131.226 148.304 125.503 159.949 120.903C165.381 118.536 193.501 107.709 193.334 102.508L193.346 102.506Z" fill="#F3E89F"/>
<path d="M120.954 127.04C125.333 127.454 129.766 125.85 134.073 125.078C142.944 123.442 150.88 118.837 159.394 116.008C162.947 114.544 167.127 114.268 170.094 111.699C170.212 111.552 170.393 111.394 170.128 111.346C169.89 111.307 169.599 111.34 169.335 111.382L169.315 111.256C169.695 111.132 170.521 110.82 170.621 111.449C170.026 113.139 167.715 114.162 166.185 114.906L159.864 117.272C155.637 118.792 151.406 120.286 147.109 121.61C139.584 123.935 132.369 127.73 124.299 127.669C123.164 127.656 121.957 127.68 120.907 127.15L120.967 127.038L120.954 127.04Z" fill="#F3E89F"/>
<path d="M204.661 60.1279C211.966 68.2033 215.733 78.8217 217.211 89.4551C221.272 108.023 220.428 125.051 210.01 141.469L209.785 141.35C214.627 128.017 217.696 114.307 217.576 100.136C217.551 95.7492 216.983 91.2682 215.723 87.0512C214.94 84.6258 213.96 81.9353 212.984 79.5919C210.501 73.0192 207.755 66.5781 204.45 60.2642L204.659 60.1154L204.661 60.1279Z" fill="#F3E89F"/>
<path d="M227.782 34.9758C238 46.2465 243.98 60.7509 246.938 75.5278C250.539 90.2158 252.415 105.473 249.738 120.524C247.931 130.494 244.608 140.162 239.813 148.995L239.578 148.89C246.243 130.078 249.845 110.387 248.492 90.4627C247.983 80.4999 245.116 70.7689 241.028 61.7077C237.234 52.5484 232.886 43.6314 227.588 35.1353L227.782 34.9758Z" fill="#F3E89F"/>
<path d="M69.1353 206.13C61.4616 198.409 57.1949 187.973 55.227 177.417C50.3093 159.049 50.3404 142.009 59.9881 125.119L60.2235 125.224C56.0076 138.768 53.577 152.608 54.3618 166.751C54.592 171.131 55.3735 175.578 56.8181 179.74C57.725 182.133 58.8119 184.768 59.8953 187.056C62.693 193.501 65.726 199.807 69.3269 205.958L69.1333 206.117L69.1353 206.13Z" fill="#F3E89F"/>
<path d="M47.2135 232.341C36.4805 221.564 29.8273 207.359 26.1841 192.729C21.9042 178.226 19.3107 163.07 21.2878 147.91C22.6339 137.873 25.4941 128.046 29.8701 119.009L30.1035 119.101C24.3206 138.198 21.6449 158.052 23.9351 177.879C24.915 187.806 28.2226 197.39 32.7425 206.254C36.9708 215.228 41.724 223.94 47.4052 232.169L47.2135 232.341Z" fill="#F3E89F"/>
</svg>
