<svg width="306" height="293" viewBox="0 0 306 293" fill="none" xmlns="http://www.w3.org/2000/svg">
<g clip-path="url(#clip0_609_4222)">
<path d="M77.8608 196.476C59.6879 178.643 40.4731 158.888 22.7811 140.474C20.6572 137.95 17.2511 134.303 15.5079 131.538C7.67372 120.638 2.64462 107.615 0.761211 94.3508C-1.24242 79.1633 0.761211 63.3747 6.89231 49.3093C13.4241 33.6008 25.2656 19.9361 39.7718 11.06C41.0541 10.1383 43.3383 9.05639 44.7408 8.31505C49.5295 5.6903 55.34 3.70671 60.5895 2.20399C82.7897 -3.4262 107.334 1.74315 125.226 16.1292C131.177 20.6374 136.367 26.6482 141.416 32.058L156.623 48.5479L152.877 48.5078L172.532 27.1291C185.716 12.0618 204.791 1.92348 225.007 0.921666C278.784 -2.16392 316.392 52.6954 302.788 102.726L302.247 102.606C303.85 93.0885 304.251 83.3909 302.708 73.9539C300.123 55.2199 290.826 37.3877 276.721 24.8049C253.178 2.9854 215.73 0.74134 189.703 19.335C180.306 25.5262 164.718 43.8394 156.583 51.9941L154.66 54.0378L152.836 51.9741C147.427 46.1636 135.846 32.3185 130.636 26.7083C96.795 -11.4808 38.8301 -4.02729 14.6864 40.6336C0.881428 66.4002 1.62277 99.0994 16.3294 124.325C17.3112 125.768 19.8958 129.715 20.8375 131.137C21.9195 132.56 24.8849 136.026 26.0269 137.469L33.5806 145.744C48.167 161.853 64.1359 179.725 78.2615 196.095L77.8608 196.476Z" fill="#4C5930"/>
<path d="M138.51 292.429C142.257 287.721 146.104 283.153 150.031 278.624C156.082 271.632 164.176 266.302 172.992 263.357C181.708 260.932 190.123 259.209 198.258 255.262C208.897 250.513 218.775 243.681 226.609 234.685C234.724 225.889 242.438 216.732 250.052 207.496C259.409 195.955 269.246 184.414 279.024 173.193C284.374 167.864 279.104 158.607 271.791 160.751C269.367 161.312 267.704 163.596 265.92 165.299L259.569 171.631C246.786 184.274 233.822 196.696 220.398 208.658L220.017 208.277C227.711 199.08 235.626 190.084 243.68 181.208C249.491 174.776 256.002 167.784 261.973 161.432L263.516 159.809C267.563 154.56 275.658 152.957 281.188 156.944C287.84 161.172 288.702 171.37 283.031 176.76C265.119 196.836 245.544 215.53 227.932 235.867C220.318 245.124 211.201 253.679 200.242 259.309C194.812 262.175 188.961 264.278 182.97 265.721C176.999 266.923 171.73 268.165 166.36 270.81C155.541 275.719 147.847 285.236 138.911 292.83L138.51 292.449V292.429Z" fill="#4C5930"/>
<path d="M220.037 208.277C231.097 194.191 243.139 180.988 255.902 168.465C266.401 158.567 277.561 149.15 286.898 138.13C291.066 132.179 285.756 123.604 278.683 124.285C274.596 124.485 272.272 128.312 269.587 130.997C251.454 150.773 232.48 169.627 212.043 187.079L211.662 186.698C228.473 165.74 246.746 146.185 265.94 127.451L268.325 125.086C270.769 122.301 274.596 119.757 278.523 119.937C286.518 119.737 293.17 128.533 290.304 136.066C289.563 138.431 287.66 140.374 286.117 141.817C282.931 144.942 279.826 148.148 276.76 151.394C264.898 164.738 253.518 178.543 240.354 190.685C233.902 196.856 227.371 202.947 220.418 208.638L220.037 208.257V208.277Z" fill="#4C5930"/>
<path d="M211.663 186.698C224.205 171.07 237.73 156.343 251.976 142.298C260.992 133.662 270.469 125.467 279.085 116.391L281.669 113.686C286.358 109.118 285.096 102.646 280.046 99.0192L278.644 97.777C275.598 94.9519 270.509 94.8717 267.504 97.6768C266.822 98.318 264.558 100.822 263.837 101.604C255.362 110.68 246.786 119.997 238.11 128.833C224.025 142.999 209.659 156.924 194.512 170.048L194.131 169.667C214.728 144.441 237.169 120.979 260.411 98.2579L263.096 95.6331C268.505 89.7825 277.402 90.6641 282.11 96.8753C287.68 101.664 288.422 109.759 282.912 114.848C266.241 131.738 251.755 150.693 234.243 166.822C227.05 173.755 219.757 180.607 212.083 187.079L211.703 186.698H211.663Z" fill="#4C5930"/>
<path d="M194.111 169.687C203.107 157.746 213.065 146.665 223.765 136.267C231.98 128.713 240.595 121.54 248.009 113.165C251.735 109.458 251.255 103.267 247.247 100.201L245.123 98.3981C242.559 95.6932 238.231 94.7916 235.045 96.695C232.861 98.0374 229.736 102.125 227.792 104.048C225.268 106.793 222.663 109.438 220.078 112.103C209.539 122.602 198.74 132.86 187.139 142.318L186.758 141.937C198.199 127.15 210.601 113.305 223.765 100.121C225.268 98.7387 228.293 95.573 229.816 94.2105C234.023 90.1432 241.176 89.7424 245.684 93.3289C247.147 94.3708 248.59 96.2743 249.812 97.5566C252.777 100.562 253.959 105.371 252.617 109.378C250.493 114.888 245.103 117.953 241.537 122.422C231.739 133.622 222.442 145.303 211.342 155.301C205.933 160.41 200.423 165.439 194.512 170.048L194.131 169.667L194.111 169.687Z" fill="#4C5930"/>
<path d="M160.23 169.286C166.862 160.791 173.954 152.736 181.208 144.842C184.053 141.256 188.921 138.451 188.661 133.381C188.24 125.988 179.404 123.003 174.075 128.312C163.335 136.367 153.377 145.363 143.7 154.64C134.343 163.756 126.729 174.676 122.101 186.878C119.255 194.412 117.552 202.627 113.305 209.659C109.157 216.993 102.946 222.763 96.2938 227.752C92.1263 231.078 81.6473 239.353 77.3796 242.739C44.4801 268.586 43.2178 269.127 75.6164 240.616C82.5289 234.384 93.048 225.709 99.5998 219.397C106.893 212.124 111.361 202.326 114.126 192.549C117.332 182.09 122.782 172.071 129.835 163.656C136.807 155.201 146.064 149.33 154.359 142.358C160.57 137.248 166.601 131.919 172.351 126.289C174.395 124.105 177.06 122.341 180.126 121.981C186.677 120.919 193.329 126.429 193.51 133.161C194.171 139.673 188.521 143.86 184.433 147.948C176.759 155.441 168.945 162.795 160.65 169.687L160.27 169.306L160.23 169.286Z" fill="#4C5930"/>
</g>
<defs>
<clipPath id="clip0_609_4222">
<rect width="305.593" height="292.81" fill="white"/>
</clipPath>
</defs>
</svg>
