<svg width="292" height="284" viewBox="0 0 292 284" fill="none" xmlns="http://www.w3.org/2000/svg">
<g clip-path="url(#clip0_607_4199)">
<path d="M135.618 283.981C134.505 261.643 132.299 238.74 124.585 217.665C120.889 206.845 113.308 198.796 105.028 191.275C96.749 183.697 88.0925 176.477 79.0966 169.672C74.6458 166.279 70.0629 162.773 65.6121 159.625C63.4999 158.306 60.8595 157.834 58.4078 158.419C53.2969 159.474 49.8268 164.997 51.0338 170.087C51.543 172.82 53.4855 174.8 55.1451 176.949C59.3508 182.283 68.2147 193.292 72.3449 198.495C74.6646 201.021 73.0427 205.582 69.5914 205.978C67.9695 206.091 66.4419 206.223 65.0463 205.356L63.2735 204.131L56.2956 199.305C47.2619 192.481 35.2485 187.731 32.1555 175.761C28.7986 159.587 25.5736 139.794 22.575 123.527C20.425 112.009 3.58355 113.555 3.80987 125.374C4.01732 129.087 4.41337 136.364 4.62082 140.171C5.26204 151.463 5.71467 162.754 6.28045 174.064C6.88395 181.774 5.82782 191.105 10.7501 197.646C11.9383 199.626 14.5786 201.982 16.1816 203.66C30.4016 217.779 50.2606 237.628 64.0656 251.822C70.7984 259.306 75.0041 268.882 76.1922 278.835C76.2677 280.249 76.6449 281.663 76.3242 283.095C75.9471 283.076 76.2111 283.02 76.1168 282.982C76.1168 282.907 76.0791 282.662 76.0791 282.586L76.0225 282.058C75.5133 276.837 74.1177 271.653 71.9677 266.884C69.6669 261.794 66.4985 257.138 62.67 253.123C54.6171 245.319 46.2624 237.59 38.134 229.749C36.5875 228.297 10.9953 203.716 10.5615 203.301C6.22387 199.004 3.56469 193.103 3.05549 187.034C2.84804 184.036 2.54629 177.326 2.37655 174.272C1.81077 162.98 1.15069 151.689 0.679207 140.398C0.528332 136.628 0.170004 129.295 0.037988 125.544C-0.414638 117.928 6.73307 111.18 14.3146 112.103C21.1794 112.725 25.8188 118.437 26.2337 125.091C27.5727 133.461 30.1942 150.238 31.4955 158.607L32.7779 166.996C34.0226 185.375 43.49 188.259 57.0688 198.25L64.0091 203.151L65.7253 204.357C66.2345 204.678 66.8191 204.866 67.4226 204.885C68.7428 204.885 70.0441 205.036 71.0625 204.15C72.5524 203 72.741 200.681 71.4397 199.286L70.1006 197.646L64.7257 191.086L53.957 177.985C52.1088 175.78 49.9211 173.518 49.2799 170.558C47.6202 164.47 51.675 157.627 57.8609 156.157C60.8973 155.346 64.2542 155.798 67.0077 157.401C71.8923 160.624 76.4185 163.829 81.0202 167.222C94.6367 177.495 108.121 188.183 119.135 201.36C129.621 215.347 132.299 233.274 134.524 250.05C135.807 261.323 136.297 272.671 136.033 284H135.656L135.618 283.981Z" fill="#4C5930"/>
<path d="M155.948 284C155.741 259.08 157.533 221.813 172.846 201.341C183.86 188.165 197.345 177.458 210.961 167.203C215.563 163.81 220.089 160.624 224.974 157.382C227.708 155.78 231.084 155.327 234.121 156.138C240.306 157.608 244.361 164.432 242.702 170.539C242.06 173.499 239.873 175.761 238.024 177.967L227.256 191.068L221.881 197.627C221.277 198.495 219.825 199.776 219.731 200.889C219.335 202.698 220.712 204.621 222.56 204.847C223.691 204.885 225.238 205.055 226.275 204.357L227.991 203.151L234.932 198.25C243.682 191.445 255.413 186.468 257.846 175.252C259.6 165.883 261.523 151.406 263.126 141.849L265.786 125.091C266.2 118.437 270.84 112.706 277.705 112.103C286.531 111.274 293.169 119.078 291.887 127.693C291.246 143.15 290.435 158.852 289.624 174.291C289.115 179.437 289.511 186.562 288.172 191.558C286.795 197.439 282.834 202.378 278.365 206.28L253.866 229.767C245.738 237.609 237.364 245.319 229.33 253.142C225.502 257.157 222.333 261.813 220.033 266.903C217.883 271.672 216.487 276.856 215.978 282.077L215.921 282.605L215.902 282.869V283.001C215.808 283.039 216.091 283.095 215.695 283.114C215.374 281.681 215.733 280.268 215.827 278.854C216.336 274.612 217.373 270.428 218.958 266.431C221.051 261.116 224.087 256.12 227.954 251.822C235.893 243.641 243.833 235.668 251.83 227.637L275.838 203.66C279.666 200.097 283.325 195.78 284.494 190.559C285.626 185.959 285.362 178.834 285.758 174.064C286.512 157.929 287.304 141.529 288.228 125.374C288.737 116.703 277.516 112.141 271.783 118.72C270.01 120.529 269.444 123.187 269.105 125.619C266.219 141.171 263.107 160.379 259.883 175.78C256.79 187.75 244.757 192.5 235.743 199.324L228.765 204.15L226.992 205.375C225.087 206.449 222.013 206.431 220.259 205.017C218.316 203.49 218.071 200.342 219.712 198.513L221.032 196.855L226.332 190.238C228.274 187.75 237.798 175.968 239.477 173.65C243.494 168.24 240.25 159.719 233.649 158.419C231.197 157.834 228.538 158.306 226.445 159.625C221.975 162.773 217.411 166.279 212.96 169.672C199.683 179.965 186.387 190.615 175.374 203.264C165.284 216.61 162.247 233.99 159.532 250.258C157.91 261.398 156.873 272.671 156.439 283.962H156.062L155.948 284Z" fill="#4C5930"/>
<path d="M180.843 56.193C181.051 78.7946 159.155 96.382 137.335 87.6166C120.851 81.2452 111.101 60.736 118.588 44.3927C125.529 27.7666 136.863 13.478 148.612 0L150.121 1.65883C160.645 13.5346 170.074 26.5036 176.619 40.9996C178.674 45.8441 180.749 50.8395 180.843 56.193ZM180.466 56.193C179.749 45.6745 172.771 36.8525 166.831 28.5772C160.55 20.3019 153.987 12.1397 147.123 4.35444H150.102C141.163 14.4394 132.601 25.0522 125.378 36.419C121.832 42.0929 118.4 48.1062 117.362 54.6473C116.023 68.0122 125.529 81.3017 138.278 84.9776C157.608 91.4432 180.598 77.3809 180.466 56.193Z" fill="#4C5930"/>
<path d="M148.707 29.5386C149.763 45.2975 149.443 61.0376 148.934 76.7777C149.141 103.036 150.386 129.276 148.707 155.516H148.519C146.84 129.276 148.066 103.017 148.292 76.7777C147.972 61.1507 147.123 44.7885 148.707 29.5386Z" fill="#4C5930"/>
<path d="M165.114 50.2928C161.851 54.4399 157.061 56.5512 152.912 59.5484C151.441 60.7548 150.083 62.1686 148.612 63.375C145.594 60.7925 142.615 58.1346 140.106 55.0243C139.314 54.0629 138.522 53.0827 137.824 52.0271L137.956 51.8951C139.031 52.5549 140.031 53.3089 141.03 54.0818C144.029 56.3438 146.65 59.0017 149.159 61.7727L148.121 61.6973C151.082 59.9631 154.081 58.3231 156.438 55.7783C158.928 53.3843 161.832 51.5935 164.982 50.142L165.095 50.2928H165.114Z" fill="#4C5930"/>
<path d="M234.214 128.861C215.94 142.17 188.895 134.611 183.332 111.783C178.919 94.6855 189.932 74.8172 207.604 71.3864C225.162 67.3713 243.399 68.2572 261.202 69.9538L260.712 72.1404C257.166 87.5977 252.112 102.81 244.115 116.571C241.362 121.057 238.514 125.657 234.214 128.842V128.861ZM233.988 128.56C242.135 121.849 245.266 111.048 248.529 101.415C251.603 91.4998 254.432 81.4148 256.77 71.311L258.505 73.7427C245.096 72.3478 231.48 71.5561 218.033 72.2912C203.096 72.8379 191.799 76.6268 186.142 91.594C176.561 119.304 209.508 145.732 233.988 128.578V128.56Z" fill="#4C5930"/>
<path d="M237.232 87.2396C226.802 96.382 215.562 104.469 204.171 112.329C185.896 126.392 168.169 141.171 148.724 153.687L148.611 153.536C166.037 138.362 185.18 125.468 203.794 111.839C214.525 103.319 225.595 93.988 237.213 87.2396H237.232Z" fill="#4C5930"/>
<path d="M229.896 112.65C224.634 112.405 220.108 109.747 215.261 108.126C213.412 107.636 211.489 107.353 209.641 106.863C209.98 102.904 210.414 98.9457 211.489 95.1002C211.809 93.8938 212.149 92.6873 212.602 91.4998H212.79C212.884 92.8004 212.847 94.0446 212.809 95.3075C212.715 99.0588 212.073 102.735 211.281 106.392L210.734 105.506C213.865 106.901 216.939 108.371 220.39 108.823C223.785 109.445 226.935 110.784 229.933 112.48L229.877 112.669L229.896 112.65Z" fill="#4C5930"/>
<path d="M63.2922 128.56C87.7529 145.695 120.719 119.285 111.139 91.5752C105.462 76.608 94.2028 72.8379 79.2473 72.2724C65.8005 71.5372 52.1652 72.3289 38.775 73.7239L40.5101 71.2922C42.8486 81.396 45.6776 91.4809 48.7516 101.396C52.0332 111.048 55.145 121.849 63.2922 128.541V128.56ZM63.0659 128.861C58.766 125.657 55.9182 121.057 53.1647 116.59C45.1684 102.829 40.114 87.6355 36.5685 72.1593L36.0781 69.9726C53.8814 68.2761 72.1184 67.3713 89.6765 71.4053C107.348 74.836 118.362 94.6855 113.949 111.802C108.46 134.573 81.2464 142.207 63.0659 128.88V128.861Z" fill="#4C5930"/>
<path d="M60.1797 87.0888C71.8725 94.5536 82.7544 103.093 93.4854 111.839C112.1 125.468 131.242 138.362 148.668 153.536L148.555 153.687C129.13 141.189 111.402 126.392 93.1271 112.329C81.9434 104.412 69.9111 96.3632 60.1797 87.0888Z" fill="#4C5930"/>
<path d="M67.3477 112.461C73.2506 108.71 80.4738 108.823 86.5465 105.468L85.9996 106.354C84.9246 101.472 84.2268 96.514 84.4908 91.4998L84.6794 91.481C85.547 93.8373 86.1505 96.269 86.6408 98.7195C87.1877 101.396 87.3763 104.13 87.6592 106.844C85.811 107.334 83.8873 107.617 82.0391 108.107C78.7387 108.974 75.8344 111.01 72.4774 111.707C70.8366 112.141 69.1582 112.48 67.4042 112.631L67.3477 112.443V112.461Z" fill="#4C5930"/>
</g>
<defs>
<clipPath id="clip0_607_4199">
<rect width="292" height="284" fill="white"/>
</clipPath>
</defs>
</svg>
