<svg width="282" height="277" viewBox="0 0 282 277" fill="none" xmlns="http://www.w3.org/2000/svg">
<g clip-path="url(#clip0_579_4071)">
<path d="M127.852 89.9021L116.876 89.9395H116.651C116.614 81.9162 116.539 73.8929 116.37 65.8696L115.883 42.0241L116.876 43.0154C107.268 43.2024 97.6777 43.4642 88.0692 43.5577C60.33 43.9131 29.5752 43.5016 1.66738 42.9967L2.64134 42.0241C2.34166 60.2776 2.17309 82.0097 2.3042 100.263C2.34166 119.676 2.73499 139.089 2.97848 158.502L1.66738 157.193L44.0535 156.782L42.3304 158.502L42.2742 149.806C40.5885 127.194 72.261 122.949 76.2505 145.186C76.6251 148.366 76.3255 155.248 76.4004 158.502L74.4525 156.557C86.9267 156.52 104.552 156.613 116.839 156.763L115.115 158.483C115.19 148.889 115.565 129.626 115.808 120.05L115.827 119.003H116.839L124.181 119.19L127.852 119.265C133.752 119.396 139.465 115.674 141.637 110.082C145.589 100.712 138.004 89.6963 127.833 89.8834L127.852 89.9021ZM127.852 89.528C138.303 89.2288 146.338 100.675 142.461 110.419C140.42 116.441 134.314 120.817 127.889 120.892L124.218 120.967L116.876 121.116L117.906 120.088C118.131 129.663 118.524 148.945 118.599 158.521L118.618 160.223H116.876C104.645 160.559 86.8892 160.354 74.4899 160.466H72.5607V158.521L72.542 149.824C72.5982 147.225 72.4858 144.494 71.3433 142.138C64.3008 128.111 44.4094 134.301 45.8704 149.824C45.9078 150.797 45.7954 159.419 45.8142 160.279H44.091L1.70484 159.867H0.375C1.01182 120.911 1.48007 81.0746 0.730871 42.0802V41.1264H1.72357C29.6876 40.715 60.33 40.1352 88.1254 40.5654C98.0523 40.6589 107.998 40.9394 117.925 41.1264L117.906 42.099L117.419 65.9444C117.251 73.8929 117.176 81.8414 117.138 89.7899L116.914 89.5654L127.889 89.6028L127.852 89.528Z" fill="#4C5930"/>
<path d="M207.941 138.696C196.104 143.671 184.323 148.721 172.616 153.976L172.036 154.238L171.773 153.639C166.754 142.119 159.449 126.297 154.579 114.944L153.98 113.56L155.385 112.943C158.119 111.69 164.619 109.147 167.128 107.744C172.804 104.471 175.388 96.9154 172.766 90.8558C170.35 84.7214 163.083 81.0745 156.677 82.7764C153.849 83.5432 147.462 86.3859 144.652 87.4146L143.566 87.8447L143.154 86.7974C138.827 75.6695 131.766 58.4821 127.271 47.5599L127.027 46.9802L127.589 46.7557C136.598 43.1088 145.514 39.2187 154.467 35.4595C179.228 24.8179 209.833 11.3336 234.763 0.710637L236.336 0.0373535L237.029 1.64575C251.676 35.9084 267.578 73.2756 281.382 107.8L281.981 109.259L280.558 109.839C256.714 119.302 231.579 128.84 207.923 138.752L207.941 138.696ZM207.791 138.36C225.173 131.122 244.203 122.556 261.509 114.87C267.465 112.233 273.384 109.521 279.378 106.94L278.554 108.978C263.626 74.9401 248.024 37.4046 233.864 2.95492L236.13 3.89003L209.121 14.887C182.88 25.4912 153.961 36.8061 128.095 47.8779L128.432 47.0737L132.59 56.7989C135.175 62.8958 142.517 79.597 145.308 85.8997L143.791 85.2825C145.364 84.5718 152.388 81.542 153.774 80.9062C170.444 73.818 184.735 94.2783 172.598 107.594C170.481 109.932 167.578 111.391 164.656 112.494L156.583 115.767L157.389 113.785C161.94 125.212 168.402 141.558 172.953 153.153L172.111 152.817C184.06 148.16 195.954 143.316 207.791 138.378V138.36Z" fill="#4C5930"/>
<path d="M159.075 275.018C159.075 270.735 158.438 265.161 159 260.935C162.428 243.448 187.245 243.803 190.71 261.159C191.197 263.366 190.973 266.171 191.066 268.378C191.066 269.912 191.104 272.979 191.104 274.494V274.924V274.98V274.999C191.422 275.335 188.369 272.268 189.68 273.559H189.793H190.017L204.027 273.465L232.048 273.334L230.381 274.999L230.568 245.879C230.662 228.748 231.43 204.528 231.373 187.64C231.448 177.934 231.523 168.227 231.43 158.521L232.048 159.138C194.25 159.288 154.618 160.223 116.858 160.316L118.656 158.521C118.787 171.351 118.824 188.968 118.843 201.592V203.575H116.876L108.167 203.556C105.601 203.5 102.791 203.556 100.45 204.716C90.0737 209.26 90.0924 224.297 100.394 228.954C102.754 230.132 105.563 230.282 108.167 230.225C109.534 230.244 117.457 230.319 118.543 230.338V231.965C118.487 242.7 118.169 264.301 117.981 275.036L116.895 273.951C128.882 274.082 146.826 274.569 158.626 274.83H158.963C159.057 274.83 159.188 274.83 159.281 274.83C159.206 274.905 159.469 274.643 159.113 275.018H159.075ZM159.45 275.018C159.057 275.392 159.356 275.111 159.244 275.205H159.225H159.188H159.113C158.813 275.205 158.251 275.205 157.951 275.223C146.02 275.579 127.871 275.859 115.809 276.102C115.603 264.806 115.322 243.224 115.228 231.927L116.876 233.573C113.898 233.536 106.481 233.872 103.578 233.536C95.3368 232.657 88.6689 225.045 88.8 216.76C88.6127 207.558 96.779 199.423 105.994 199.628C107.193 199.572 115.453 199.628 116.895 199.61L114.928 201.574C114.816 189.024 115.116 171.22 115.116 158.502V156.707H116.895C154.655 156.763 194.288 157.735 232.085 157.885H232.703V158.502C232.535 186.518 233.115 217.676 233.565 245.879L233.752 274.999V276.663H232.066L204.046 276.532L190.036 276.439C189.961 276.439 189.774 276.439 189.699 276.439C190.991 277.729 187.92 274.681 188.238 274.98C188.238 274.195 188.238 272.642 188.257 271.838C188.163 268.603 188.538 264.582 188.144 261.589C185.41 246.197 163.702 246.048 160.124 261.122C159.431 264.993 159.712 270.959 159.45 274.98V275.018Z" fill="#4C5930"/>
<path d="M116.688 201.574C114.572 196.281 115.152 190.801 116.276 185.434C116.37 180.047 114.534 174.717 114.871 169.293C115.04 165.703 115.471 162.112 116.688 158.521H117.063C118.786 163.87 119.179 169.2 118.655 174.661C118.524 178.233 117.194 181.824 117.494 185.434C117.999 188.987 119.048 192.54 118.355 196.206C118.112 198.001 117.793 199.797 117.082 201.592H116.707L116.688 201.574Z" fill="#4C5930"/>
<path d="M1.85348 158.521C3.01474 177.934 3.31442 197.347 3.33315 216.76C3.27696 236.173 1.9284 255.586 2.24681 274.999L1.64745 274.4C11.256 274.326 20.8458 274.008 30.4543 273.727C49.6526 273.222 68.851 273.016 88.0493 272.979C97.6578 273.016 107.248 273.129 116.856 273.316L115.189 274.98C115.489 260.617 115.92 246.272 116.669 231.909H117.043C117.83 246.796 118.261 261.701 118.561 276.607C98.8003 277.037 79.0214 277.056 59.2612 276.757C40.0628 276.663 20.8645 275.784 1.66618 275.56H1.06681V274.98C1.38522 255.567 0.036659 236.154 -0.0195312 216.741C0.0179289 197.328 0.31761 177.915 1.46014 158.502H1.83475L1.85348 158.521Z" fill="#4C5930"/>
</g>
<defs>
<clipPath id="clip0_579_4071">
<rect width="282" height="277" fill="white"/>
</clipPath>
</defs>
</svg>
