<svg width="74" height="61" viewBox="0 0 74 61" fill="none" xmlns="http://www.w3.org/2000/svg">
<path d="M34.5882 11.234C34.5882 11.234 34.761 11.077 35.0124 10.9985L35.1539 11.077C35.5153 10.8572 34.7767 10.6373 34.1639 10.5588C34.1639 10.5588 34.1639 10.5588 34.1482 10.5588C33.8339 10.072 33.551 9.63227 33.2839 9.22397C33.2681 9.14545 33.221 9.08263 33.1581 9.01982C33.0796 8.89419 32.9853 8.75286 32.9067 8.64293C32.9067 8.48589 33.0481 8.29745 33.4881 8.01478C33.6296 8.23463 33.8967 7.27671 34.541 7.54367C34.6196 7.29241 34.1167 6.69567 33.4724 7.18249C33.0796 7.40234 32.671 7.54367 32.341 7.73212C31.7281 6.78989 30.801 5.43937 29.5281 3.63344C24.2638 6.27167 19.7223 9.63227 15.8409 13.6524C16.3594 12.8829 16.9094 12.1135 17.5223 11.3754C17.5223 11.4539 17.6166 11.5795 17.6166 11.658C17.6166 11.4225 17.5066 11.0613 17.6637 10.9671C17.7737 11.0299 17.7894 11.1712 17.7894 11.2497C18.858 11.4382 18.9209 9.52234 19.6909 9.7579C19.7852 9.56945 19.6123 9.23967 19.3609 9.08264C21.1838 7.29241 23.3209 5.61211 25.2381 3.69626C25.4109 3.72767 25.5524 3.93181 25.6624 4.19878C25.8509 3.68056 26.5895 2.98959 27.3438 2.43996C28.0981 1.87463 28.931 1.38781 29.7638 0.963811L30.0781 0.806774C30.0781 0.806774 30.1881 0.743959 30.2353 0.743959L30.3295 0.885293L30.7224 1.48203L31.4767 2.69122C31.9324 3.47641 32.4039 4.26159 32.8596 5.04678C33.0324 4.98396 33.0796 4.87404 33.1424 4.77982C33.1739 4.65419 33.2681 4.60707 33.4881 4.60707C33.3467 3.99463 32.781 3.55493 32.341 3.27226C31.8853 2.95818 31.5081 2.72263 31.3667 1.93744L31.6338 1.70189C31.241 0.759663 31.1153 2.51848 30.8324 1.3407C30.7538 0.728255 31.0681 0.885293 30.9896 0.728255L30.581 0.210032C30.581 0.210032 30.4553 -0.0412271 30.361 0.00588409L30.0467 0.162921C29.6381 0.382773 29.2138 0.586922 28.8053 0.838181C27.9881 1.30929 27.171 1.89033 26.621 2.67552C26.3381 2.39285 25.8667 2.64411 25.4738 2.86396C25.2066 3.0053 24.9395 3.16233 24.5781 2.95818C24.4995 3.36648 24.2324 3.4293 24.4052 3.93181C21.0423 5.48648 18.4809 8.39167 15.778 10.9043C15.5894 13.1499 12.8865 13.4326 11.928 15.3484C11.8808 15.3327 11.8337 15.2856 11.818 15.2542C11.6765 16.008 11.2051 16.856 10.5765 17.3742L10.6708 18.285C6.74221 21.3315 5.02934 26.184 2.89218 30.5653C1.76074 33.125 0.723589 35.6219 0.252156 38.2759C-0.219277 40.9141 -0.0935612 43.7093 1.17931 46.3633C1.03788 46.3633 0.959305 46.4261 0.880733 46.2848C1.35217 47.8237 1.13216 49.4098 1.9336 50.8074L1.79217 50.8545C3.00218 52.5034 3.88219 54.1837 5.0922 55.7541C6.27078 57.3088 7.90508 58.6593 9.80652 58.8791C13.5466 61.0934 18.9052 61.1562 22.9123 59.2246L23.0066 59.5073C24.5781 58.5965 26.1967 57.9683 27.7367 56.9947C29.261 56.0211 30.691 54.7177 31.3824 52.9588C32.6239 51.4042 32.8124 49.2528 32.6081 47.3526C32.5453 46.6145 32.4353 45.9236 32.341 45.2169C32.341 44.2904 32.231 43.3639 32.0739 42.4216C32.0739 42.2175 32.0581 41.9976 32.0739 41.7935C32.561 40.5529 31.791 39.2966 30.8796 38.3387C30.5024 37.5221 30.0624 36.7369 29.5281 35.9674C29.3238 35.6847 29.0881 35.4492 28.8838 35.1822C28.5538 33.6747 27.7681 32.4027 26.6995 31.429C26.1495 30.9422 25.5209 30.5339 24.8609 30.2041C24.2952 29.9372 23.8709 29.843 23.1795 29.6545C22.8966 29.1991 22.7081 28.4767 22.5981 27.6444C23.0852 24.5508 24.5624 21.6299 27.0452 18.8818C28.5852 17.2015 30.2981 15.6625 32.1681 14.2178C33.221 13.9351 34.4153 13.6681 35.4524 12.8044L34.9339 12.6945C35.6253 12.6945 35.861 12.4746 35.861 12.2548C35.5939 11.9878 35.0596 11.7209 34.8082 11.5324C34.7453 11.4225 34.6667 11.3126 34.6039 11.2183L34.5882 11.234ZM3.92933 33.2193C3.91362 32.8738 3.97647 32.544 4.19648 32.3713C4.10219 32.6539 4.0079 32.9366 3.92933 33.2193ZM3.83504 33.5647C3.83504 33.5647 3.80361 33.6904 3.77219 33.7532C3.77219 33.659 3.74076 33.5647 3.70933 33.4705L3.83504 33.5647ZM3.36361 35.2921C3.15932 36.093 2.98646 36.8939 2.84503 37.6791C2.18503 36.6898 2.84504 36.0459 3.36361 35.2921ZM2.76646 38.0717C2.76646 38.0717 2.75075 38.1973 2.73503 38.2602C2.67218 38.2602 2.60932 38.2287 2.53075 38.2287L2.76646 38.0717Z" fill="#E77622"/>
<path d="M73.1976 6.14617L73.3076 5.98914L72.7891 6.09906L73.1976 6.14617Z" fill="#E77622"/>
<path d="M71.5795 5.72215C71.5323 5.80067 71.3909 5.86348 71.3438 5.942L72.9309 5.78496C73.4023 5.0783 71.2652 6.19326 71.5952 5.72215H71.5795Z" fill="#E77622"/>
<path d="M70.8574 5.37669C71.3289 5.17254 71.0303 5.89491 71.5803 5.45521C71.6903 5.04691 71.0774 5.31387 70.8574 5.37669Z" fill="#E77622"/>
<path d="M73.9998 12.2705C73.7326 12.0036 73.1984 11.7366 72.9469 11.5482C72.8841 11.4382 72.8055 11.344 72.7426 11.2341C72.7898 11.1556 72.9155 11.0771 73.1669 10.9985L73.3084 11.0771C73.6698 10.8572 72.9312 10.6373 72.3183 10.5588C72.3183 10.5588 72.3183 10.5588 72.3026 10.5588C71.9883 10.072 71.7055 9.63231 71.4383 9.22401C71.4226 9.14549 71.3755 9.08268 71.2969 9.01986C71.2183 8.89423 71.1241 8.7529 71.0455 8.64297C71.0455 8.48594 71.1869 8.29749 71.6269 8.01483C71.7683 8.23468 72.0355 7.27675 72.6798 7.54371C72.7584 7.29245 72.2555 6.69571 71.6112 7.18253C71.2183 7.40238 70.8098 7.54371 70.464 7.73216C69.8512 6.78994 68.924 5.43942 67.6512 3.63349C62.3868 6.27171 57.8454 9.63231 53.9639 13.6525C54.4825 12.883 55.0325 12.1135 55.6453 11.3754C55.6453 11.4539 55.7396 11.5796 55.7396 11.6581C55.7396 11.4225 55.6296 11.0613 55.7868 10.9671C55.8968 11.0299 55.9125 11.1713 55.9125 11.2498C56.9811 11.4382 57.0439 9.52238 57.8139 9.75794C57.9082 9.56949 57.7354 9.23972 57.4839 9.08268C59.3068 7.29245 61.444 5.61216 63.3611 3.6963C63.534 3.72771 63.6754 3.93186 63.7854 4.19882C63.974 3.6806 64.7126 2.98963 65.4669 2.44C66.2212 1.87467 67.054 1.38786 67.8869 0.963854L68.2012 0.806817C68.2012 0.806817 68.3112 0.744002 68.3583 0.744002L68.4526 0.885336L68.8455 1.48208L69.5998 2.69126C70.0555 3.47645 70.5269 4.26164 70.9826 5.04682C71.1555 4.98401 71.2026 4.87408 71.2655 4.79556C71.2969 4.66993 71.3912 4.62282 71.6112 4.62282C71.4698 4.01038 70.904 3.57067 70.464 3.28801C70.0083 2.97393 69.6312 2.73838 69.4898 1.95319L69.7569 1.71763C69.364 0.77541 69.2383 2.53423 68.9555 1.35645C68.8769 0.744002 69.1912 0.90104 69.1126 0.744002L68.704 0.22578C68.704 0.22578 68.5783 -0.02548 68.484 0.0216312L68.1697 0.178668C67.7612 0.39852 67.3369 0.602669 66.9283 0.853928C66.1112 1.32504 65.294 1.90608 64.744 2.69126C64.4611 2.4086 63.9897 2.65986 63.5968 2.87971C63.3297 3.02104 63.0626 3.17808 62.7011 2.97393C62.6226 3.38223 62.3554 3.44504 62.5283 3.94756C59.1654 5.50223 56.6039 8.40742 53.901 10.92C53.7125 13.1656 51.0096 13.4483 50.051 15.3642C50.0039 15.3485 49.9567 15.3014 49.941 15.2699C49.7996 16.0237 49.3282 16.8717 48.6996 17.3899L48.7939 18.3008C44.8653 21.3473 43.1524 26.1997 41.0152 30.5811C39.8838 33.1408 38.8466 35.6377 38.3752 38.2916C37.9038 40.9298 38.0295 43.7251 39.3024 46.379C39.1609 46.379 39.0824 46.4418 39.0038 46.3005C39.4752 47.8395 39.2552 49.4255 40.0566 50.8232L39.9152 50.8703C41.1252 52.5192 42.0052 54.1995 43.1995 55.7698C44.3781 57.3245 46.0124 58.675 47.9139 58.8949C51.6539 61.1091 57.0125 61.1719 61.0197 59.2404L61.114 59.523C62.6854 58.6122 64.304 57.9841 65.844 57.0104C67.3683 56.0368 68.7983 54.7334 69.4898 52.9746C70.7312 51.4199 70.9198 49.2685 70.7155 47.3684C70.6526 46.6303 70.5426 45.9393 70.4483 45.2326C70.4483 44.3061 70.3383 43.3796 70.1812 42.4374C70.1812 42.2332 70.1655 42.0134 70.1812 41.8092C70.6683 40.5686 69.8983 39.3123 68.9869 38.3544C68.6097 37.5378 68.1697 36.7526 67.6355 35.9832C67.4312 35.7005 67.1954 35.4649 66.9912 35.198C66.6612 33.6904 65.8754 32.4184 64.8069 31.4448C64.2569 30.958 63.6283 30.5497 62.984 30.2199C62.4183 29.9529 61.994 29.8587 61.3025 29.6703C61.0197 29.2149 60.8311 28.4925 60.7211 27.6602C61.2083 24.5666 62.6854 21.6457 65.1683 18.8975C66.7083 17.2172 68.4212 15.6782 70.2912 14.2335C71.3441 13.9508 72.5383 13.6839 73.5755 12.8202L73.0569 12.7102C73.7484 12.7102 73.9841 12.4904 73.9841 12.2705H73.9998ZM42.0681 33.2193C42.0524 32.8738 42.1152 32.544 42.3352 32.3713C42.241 32.654 42.1467 32.9366 42.0681 33.2193ZM41.9738 33.5648C41.9738 33.5648 41.9424 33.6904 41.9109 33.7532C41.9109 33.659 41.8795 33.5648 41.8481 33.4706L41.9738 33.5648ZM41.5024 35.2922C41.2981 36.0931 41.1252 36.894 40.9838 37.6792C40.3238 36.6898 40.9838 36.046 41.5024 35.2922ZM40.9052 38.0718C40.9052 38.0718 40.8895 38.1974 40.8738 38.2602C40.8109 38.2602 40.7481 38.2288 40.6695 38.2288L40.9052 38.0718Z" fill="#E77622"/>
<path d="M55.9278 11.2499C55.9278 11.2499 55.9278 11.2499 55.9121 11.2499C55.9121 11.3127 55.9121 11.297 55.9278 11.2499Z" fill="#E77622"/>
<path d="M35.059 6.14617L35.169 5.98914L34.6504 6.09906L35.059 6.14617Z" fill="#E77622"/>
<path d="M33.4408 5.72215C33.3937 5.80067 33.2522 5.86348 33.2051 5.942L34.7922 5.78496C35.2637 5.0783 33.1265 6.19326 33.4565 5.72215H33.4408Z" fill="#E77622"/>
<path d="M32.7188 5.37669C33.1902 5.17254 32.8916 5.89491 33.4416 5.45521C33.5516 5.04691 32.9388 5.31387 32.7188 5.37669Z" fill="#E77622"/>
<path d="M17.7892 11.2499C17.7892 11.2499 17.7892 11.2499 17.7734 11.2499C17.7734 11.3127 17.7734 11.297 17.7892 11.2499Z" fill="#E77622"/>
</svg>
