<svg width="454" height="610" viewBox="0 0 454 610" fill="none" xmlns="http://www.w3.org/2000/svg">
<path d="M51.1187 119.874C51.1187 119.874 50.7147 120.278 50.5801 120.547C50.984 120.547 51.1187 120.21 51.1187 119.874Z" fill="#F3E89F" fill-opacity="0.1"/>
<path d="M12.2749 50.1257C11.669 50.4623 10.9958 50.8663 10.3899 51.2029C10.1206 50.7316 9.85127 50.3277 9.44733 49.7891L12.2749 50.1257ZM24.4605 39.6233C28.2306 37.4016 32.6066 36.5937 37.1173 35.9878C39.2043 35.7185 41.3586 35.3819 43.513 35.0453C34.2897 38.8154 25.2683 43.1241 16.5163 47.7694C18.6033 43.932 21.3636 41.3737 24.4605 39.6233ZM64.5179 27.4377C63.7773 27.707 62.9695 27.909 62.2289 28.1783C63.1041 27.5724 63.912 26.9665 64.7872 26.2259L64.5852 27.4377H64.5179ZM79.3964 23.129C75.8282 24.0716 72.2601 25.0141 68.692 26.0913C69.8364 25.3507 70.9809 24.7448 72.1927 24.2062C74.6837 23.1964 77.1747 22.7251 79.3964 23.0617M-15.4623 156.766C-17.8186 160.536 -19.973 164.037 -22.464 164.508C-23.2718 166.124 -22.464 167.807 -20.9828 167.74C-35.6593 185.917 -48.4508 207.663 -56.9335 229.947C-57.6068 230.889 -58.078 230.956 -58.5493 230.485C-59.7611 235.467 -61.6462 240.314 -63.06 245.296C-64.3391 250.346 -65.8202 255.327 -67.3014 260.444C-69.0518 265.426 -69.725 270.677 -70.7348 275.861L-72.216 283.671L-72.9565 287.575C-73.1585 288.855 -73.1585 290.201 -73.2931 291.48C-73.0238 292.288 -72.8219 289.393 -72.6199 291.48C-72.3506 288.114 -71.8793 285.084 -71.5427 282.122C-71.2061 279.16 -70.8695 276.198 -69.9943 273.236L-69.7923 274.043C-68.7151 269.735 -70.6002 272.966 -69.2537 268.523C-68.5805 266.772 -68.8498 269.061 -68.6478 268.254C-68.3785 265.897 -67.638 263.608 -66.8974 261.387C-66.2242 259.098 -65.4836 256.809 -64.8104 254.587C-64.1371 252.298 -63.4639 250.076 -62.9253 247.855C-62.3867 245.633 -61.9828 243.411 -61.3096 241.257C-59.2225 239.641 -57.2702 231.966 -54.5772 229.341C-54.1733 226.917 -52.9615 224.763 -53.6347 223.484C-51.5477 219.983 -49.4606 216.415 -47.3736 212.846C-45.1519 209.346 -43.4689 205.643 -40.9779 202.344L-33.8416 192.313L-30.3408 187.264C-29.129 185.648 -27.7152 184.099 -26.4361 182.484C-21.1848 176.222 -16.2702 169.625 -10.2784 164.037L-1.5937 155.352C1.50317 152.727 4.7347 150.168 7.96622 147.677C8.77411 145.725 9.78397 143.84 10.9285 142.157C12.073 140.406 13.4867 138.858 15.1698 137.579C18.4687 134.953 22.3061 132.799 26.2782 130.846C28.2979 129.904 30.2503 128.827 32.4046 128.019C34.559 127.278 36.7133 126.47 38.8004 125.595C42.9744 123.845 46.9465 121.825 50.4473 118.863C50.7166 119.132 50.9186 119.536 50.9859 119.805C55.0926 115.16 62.4309 110.313 69.3652 108.697L73.2026 102.234C78.7905 101.628 84.109 100.686 89.4276 99.8104C94.8808 99.3391 100.199 98.5986 105.451 97.7907C110.634 96.6462 116.02 96.5789 121.272 95.9056C126.59 95.4344 131.774 94.2899 137.093 94.3572L153.048 93.5493C158.367 93.5493 163.685 94.0206 169.004 94.2899C171.629 94.4919 174.322 94.5592 176.948 94.8958L184.758 96.3769L192.567 97.9927C195.125 98.5986 197.751 99.0698 200.175 100.147C205.83 102.032 211.418 103.917 216.938 105.802C222.257 108.091 227.441 110.582 232.557 112.871L236.395 114.622C237.674 115.295 238.818 116.035 240.097 116.709C242.521 118.055 244.945 119.402 247.368 120.748L254.707 124.585L261.708 128.961C264.065 130.375 266.421 131.789 268.777 133.135L272.413 135.155L275.846 137.444C280.424 140.474 285.204 143.301 290.186 146.062C294.831 149.226 299.679 152.255 304.863 155.15C307.555 156.497 309.979 158.18 312.47 159.796C315.028 161.411 317.654 163.027 320.414 164.576C319.606 165.249 319.404 165.922 318.193 165.316C320.886 167.47 323.578 169.692 325.531 172.318C327.551 174.943 329.368 177.636 331.186 180.329C333.004 183.022 334.821 185.648 336.774 188.206C338.457 190.899 340.342 193.525 342.564 195.948L341.688 196.42C344.718 199.247 347.68 202.277 350.306 205.576C352.662 209.009 354.884 212.577 356.971 216.213C361.482 223.349 364.107 231.495 367.204 239.372C368.887 243.277 369.964 247.316 371.109 251.355C372.321 255.395 373.532 259.367 374.946 263.339C377.235 271.35 379.255 279.295 382.352 287.037C382.621 291.951 382.89 296.866 383.16 301.915C383.294 304.406 383.496 306.965 383.631 309.523C383.766 312.081 383.631 314.639 383.631 317.198C383.631 327.498 382.688 338.068 381.207 348.503C379.793 359.073 377.302 369.441 374.475 379.741C371.445 389.974 367.743 399.938 363.501 409.498L362.828 409.094C356.365 424.579 347.007 438.38 336.572 450.902C326.002 463.491 314.086 474.667 301.766 485.641C288.032 495.739 273.894 505.838 258.881 515.196C253.36 518.562 247.638 521.861 241.713 524.756C232.826 528.391 223.67 531.488 214.312 534.046C212.899 534.248 211.485 534.518 210.138 534.652C199.03 533.508 187.72 537.076 175.871 540.846C169.071 541.452 162.204 541.856 155.27 541.856C150.153 541.856 145.037 541.654 140.055 541.317C137.833 540.375 135.611 539.5 133.457 538.692C130.966 537.817 128.542 536.537 126.119 535.595C121.272 533.575 116.492 531.959 111.712 530.613C106.932 529.132 102.286 527.381 97.5064 526.237C95.0827 525.631 92.7264 525.092 90.3028 524.554C87.8791 524.083 85.5901 523.207 83.1665 522.669C78.3865 521.39 73.4719 520.38 68.49 519.437C63.5754 518.158 58.5934 516.879 53.6788 515.532L46.0713 513.647C44.6575 513.176 43.2437 512.705 41.8299 512.166C-4.21931 486.179 -40.4393 444.843 -59.8958 394.956C-60.0304 394.485 -60.1651 394.081 -60.2997 393.61C-61.5789 389.032 -62.858 384.454 -64.4064 379.876C-65.4836 375.163 -66.6281 370.451 -67.9746 365.805L-68.2439 366.546C-68.4458 362.978 -70.1963 359.409 -71.0041 355.909C-71.8793 352.475 -72.6199 349.244 -72.1486 347.022L-71.9467 347.763C-71.8793 345.608 -72.8892 343.252 -73.6971 341.165C-74.2357 336.991 -74.7069 332.749 -74.9762 328.508C-74.5723 325.882 -75.9861 318.342 -74.7069 318.073C-74.5723 320.497 -74.303 314.236 -73.6971 319.689C-73.6971 318.14 -74.101 310.667 -74.7069 311.341C-75.0435 311.004 -75.3802 310.129 -75.6495 309.859C-75.3802 236.14 -40.3047 170.365 13.958 128.221C13.0828 129.029 12.2076 129.904 11.3324 130.712C8.50481 133.135 6.1485 136.03 3.59021 138.791C1.03191 141.551 -1.52637 144.244 -4.15199 146.937C-4.01733 146.398 -4.4886 145.725 -4.35396 145.119C-4.7579 146.802 -4.69058 149.158 -6.10437 150.034C-6.84492 149.899 -6.64296 148.822 -6.50832 148.283C-10.4131 148.889 -12.9714 153.063 -15.395 156.766M263.93 107.283C255.716 109.101 251.273 105.533 246.56 100.753C245.349 99.4738 244.069 98.262 242.723 97.1848C249.994 100.214 257.063 103.581 263.93 107.283ZM268.575 109.909C268.306 110.38 268.037 110.919 267.767 111.525L267.027 109.034C267.565 109.303 268.037 109.64 268.575 109.909ZM226.565 91.193C227.239 91.395 227.912 91.6643 228.585 91.8662C227.643 91.8662 226.7 91.9336 225.69 92.1355L226.565 91.193ZM223.401 90.1158C219.833 90.1832 216.534 89.8465 214.582 87.5575C217.544 88.3654 220.506 89.1733 223.401 90.1158ZM42.0992 585.549C53.6115 590.329 65.4604 594.368 77.646 597.667C79.1271 598.206 80.6082 598.677 82.022 599.216C94.2749 606.352 110.567 607.698 126.253 606.419C132.851 607.025 139.449 607.496 146.181 607.698C155.27 607.9 164.291 607.698 173.178 607.092C199.636 613.017 226.7 609.247 251.004 599.35C263.391 594.099 275.307 587.636 286.281 579.826C290.455 577.066 294.427 573.969 298.399 570.872C358.991 537.413 406.521 483.285 431.834 417.038C434.056 411.989 436.211 406.872 438.096 401.621C440.048 395.697 442.068 389.705 443.279 383.579L442.674 384.319C444.963 378.664 445.434 371.662 446.309 366.142C446.578 364.795 446.848 363.449 447.117 362.035C447.386 360.958 447.723 359.948 448.127 359.208V360.15C448.8 357.794 448.733 354.966 448.665 352.341C449.608 345.945 450.416 339.549 450.954 333.019C451.089 332.144 451.156 331.134 451.224 330.124C451.358 328.239 451.426 326.354 451.56 324.536C451.695 322.988 451.897 321.91 452.368 321.843C452.233 325.007 453.176 316.928 453.176 324.065C453.445 322.045 453.849 312.35 453.176 313.158C452.839 312.687 452.503 311.408 452.166 311.206C453.715 218.434 409.348 134.145 339.669 79.0748C348.286 84.73 356.634 90.991 364.646 98.06C363.972 97.858 363.299 98.3293 362.626 98.06C364.646 98.6659 367.406 98.8679 368.752 100.551C368.752 101.359 367.406 101.022 366.733 100.753C368.147 105.196 372.724 109.168 377.168 112.804C381.611 116.439 385.516 120.142 386.055 123.037C387.872 124.518 389.757 124.383 389.892 122.566C409.55 146.533 426.381 175.549 437.49 205.104C437.759 206.653 437.49 207.057 436.749 206.855C439.779 212.914 441.731 219.444 443.885 225.974C445.636 232.639 447.453 239.305 448.598 246.104C451.291 259.704 452.57 273.572 453.311 287.239C453.647 288.249 453.513 284.411 453.984 287.104C454.119 282.661 453.378 278.689 452.907 274.784C452.435 270.879 451.83 267.109 451.56 263.07L452.031 264.012C451.493 258.155 450.887 263.002 450.618 256.943C450.618 254.52 451.224 257.482 451.089 256.337C449.002 244.152 447.05 231.158 442.539 220.252C442.741 218.636 441.866 215.405 440.923 211.971C439.913 208.538 438.634 204.97 438.634 202.479C437.086 199.584 436.278 196.42 434.729 195.746C427.66 175.011 417.899 154.814 405.578 135.963C393.326 117.045 378.447 99.8104 362.289 83.6528C357.038 81.4984 352.393 78.4016 347.815 74.9681C345.526 73.2177 343.372 71.2653 341.15 69.3129C338.928 67.3605 336.707 65.3408 334.485 63.1865C330.109 58.8104 325.396 54.7037 320.549 50.5297C315.567 46.6249 310.248 42.9894 304.324 40.5658C304.324 40.1619 304.593 39.8252 304.863 39.6233C300.621 38.7481 295.774 37.065 290.859 35.0453C285.877 33.1602 281.097 30.6019 276.856 27.9763L267.363 29.1881C242.184 13.2998 212.427 4.48044 182.267 1.51821C174.726 0.575684 167.119 0.441037 159.511 0.0370966C151.904 0.0370966 144.296 -0.164874 136.621 0.373714C121.406 0.912301 106.191 2.59539 90.976 4.61509C56.5737 10.001 24.5951 20.3014 -3.88271 36.7284C-32.0239 53.4246 -56.5969 76.5838 -72.8892 106.61C-73.6298 105.87 -74.4376 105.87 -73.6298 104.254C-84.5361 120.142 -97.9335 132.126 -105.474 148.889L-106.282 148.283C-114.158 169.759 -124.122 190.428 -131.461 212.173C-138.866 233.784 -143.108 256.405 -142.03 277.814C-144.993 303.262 -144.858 330.932 -139.943 358.198C-138.933 365.065 -137.183 371.797 -135.702 378.529C-133.817 385.194 -132.201 391.927 -129.912 398.457C-125.738 411.652 -120.352 424.309 -114.428 436.427L-115.168 436.629C-105.204 455.817 -94.6347 474.263 -82.1798 491.565C-69.725 508.8 -55.6544 525.092 -38.7562 538.826C-22.5313 554.176 -2.80553 566.698 18.1321 576.056C26.0089 579.624 34.0877 582.654 42.1665 585.482" fill="#F3E89F" fill-opacity="0.1"/>
<path d="M149.276 443.766L149.882 443.362L149.074 443.631L149.276 443.766Z" fill="#F3E89F" fill-opacity="0.1"/>
<path d="M150.422 443.566C151.432 444.172 152.038 442.287 152.711 442.691C152.576 442.691 152.711 442.489 152.509 442.421L150.422 443.566Z" fill="#F3E89F" fill-opacity="0.1"/>
<path d="M153.316 442.824C154.192 443.093 154.461 442.554 154.663 442.352C154.394 442.756 153.114 442.218 153.316 442.824Z" fill="#F3E89F" fill-opacity="0.1"/>
<path d="M229.186 429.966C229.186 429.966 229.119 430.168 229.119 430.37C229.321 430.37 229.321 430.235 229.186 429.966Z" fill="#F3E89F" fill-opacity="0.1"/>
<path d="M229.321 359.41C229.321 359.41 229.051 359.208 228.917 359.073C229.186 358.669 229.522 358.198 229.926 357.727C229.724 358.265 229.522 358.871 229.321 359.41ZM235.514 363.045C235.447 363.786 235.312 364.527 235.245 365.267C233.697 363.382 232.013 361.699 230.263 360.151C235.178 357.323 235.986 360.151 235.582 363.045M239.352 369.307L238.342 369.71C238.342 369.71 238.14 369.374 238.073 369.239C238.477 369.239 238.88 369.307 239.419 369.307M240.025 373.077C239.688 372.269 239.284 371.461 238.88 370.653C240.227 371.057 240.967 371.865 240.025 373.077ZM95.0776 350.119C92.1827 350.793 89.3551 352.004 86.9988 353.889C85.2484 355.169 83.7 356.717 82.2862 358.198C79.8625 359.814 77.5735 361.834 75.5538 364.19C75.2172 364.392 74.8133 364.661 74.4093 364.863C69.2254 364.998 68.2156 369.98 69.2928 374.356C67.879 377.991 67.1384 381.694 67.0711 385.397C63.503 388.426 61.6852 392.466 61.6179 396.303C61.4832 400.41 63.4356 404.045 66.1959 406.738C68.9561 409.499 72.7936 411.047 76.5637 411.922C77.9775 412.192 79.3913 412.394 80.8051 412.595C94.1351 424.781 109.081 432.86 123.555 437.169C126.046 438.717 128.874 439.929 131.836 440.198L131.702 439.727C132.981 440.669 134.664 440.131 136.01 440.063C136.347 440.063 136.751 440.131 137.087 440.198C137.357 440.333 137.626 440.467 137.761 440.737H137.491C138.03 441.208 138.771 440.871 139.444 440.467C141.06 440.669 142.743 440.804 144.291 440.939C144.358 440.939 144.426 440.939 144.493 440.939C145.032 440.939 145.503 440.939 146.041 440.939C146.445 441.006 146.715 441.208 146.782 441.612C146.041 441.612 147.994 442.218 146.243 442.487C146.715 442.622 149.138 442.689 148.869 442.016C149.004 441.679 149.273 441.343 149.34 441.006C174.721 440.333 194.447 435.216 211.009 425.522C209.325 427.541 207.44 429.426 205.286 430.975C205.286 430.638 204.949 429.898 204.949 429.494C204.949 430.571 205.286 432.389 204.68 432.321C204.276 431.783 204.276 431.109 204.276 430.773C202.391 429.09 201.449 430.504 200.439 431.648C199.496 432.86 198.554 434.072 197.409 432.86C197.005 433.466 197.409 435.014 198.082 436.024C191.014 438.919 183.002 440.669 175.462 442.15C175.058 441.949 174.923 441.477 174.923 440.939C171.894 442.42 168.46 442.622 165.094 442.554C161.728 442.554 158.362 442.285 154.995 442.285C154.793 442.622 155.669 442.622 154.995 442.958C157.15 443.43 158.833 442.083 160.853 442.756L160.651 443.093C162.132 443.43 160.853 442.15 162.401 442.689C163.007 443.026 162.266 443.228 162.603 443.228C165.565 443.026 168.931 443.901 171.557 442.487C172.5 443.766 174.856 442.622 176.27 444.036C176.943 443.43 177.818 443.632 177.885 442.554C183.406 443.026 189.128 442.891 194.784 441.881C200.439 440.939 205.892 438.986 211.682 437.438C212.355 432.793 215.048 431.917 218.616 431.715C222.05 431.446 226.493 431.85 228.243 428.686C228.513 428.955 228.715 429.292 228.917 429.561C229.253 426.329 230.869 423.637 233.764 423.165C233.293 421.549 232.821 419.866 232.283 418.251C234.504 417.981 236.591 417.645 238.611 416.837C240.766 415.894 242.785 414.683 244.603 413.201C248.238 410.172 251.066 406.065 252.884 401.487C256.587 392.196 256.385 382.031 255.577 371.596C253.557 359.949 248.44 348.84 238.813 341.973C234.033 338.607 228.176 336.453 222.117 336.52C216.058 336.52 209.797 338.742 205.151 343.185C205.017 342.108 204.815 341.569 205.286 341.031C202.324 342.579 199.564 342.983 196.669 343.656C193.841 344.33 191.081 345.339 189.33 347.898L188.792 347.022C187.849 348.84 187.041 350.658 186.032 352.072C185.291 353.418 184.685 354.428 183.81 355.438C182.194 357.458 180.107 358.737 178.087 360.218C173.913 362.911 170.143 365.334 166.575 370.114C160.987 371.663 154.861 372.673 148.465 372.134C142.137 371.663 135.674 369.71 129.817 367.018L130.22 366.344C127.729 365.536 125.642 364.055 123.555 362.574C121.536 360.958 119.853 359.208 117.833 357.458C113.996 353.889 109.014 350.591 103.358 350.254C100.598 349.244 97.5013 349.177 94.6064 349.715" fill="#F3E89F" fill-opacity="0.1"/>
<path d="M204.477 431.043C204.477 431.043 204.477 431.043 204.544 431.111C204.544 430.841 204.544 430.841 204.477 431.043Z" fill="#F3E89F" fill-opacity="0.1"/>
<path d="M101.948 262.803L101.611 262.466L101.813 262.87L101.948 262.803Z" fill="#F3E89F" fill-opacity="0.1"/>
<path d="M101.008 261.118C101.008 261.118 100.806 261.118 100.738 261.185L101.815 262.195C102.489 261.724 100.536 261.387 101.008 261.118Z" fill="#F3E89F" fill-opacity="0.1"/>
<path d="M101.137 260.781C101.407 260.377 100.868 260.242 100.666 260.175C101.07 260.31 100.531 260.915 101.137 260.781Z" fill="#F3E89F" fill-opacity="0.1"/>
<path d="M89.5605 222.339C89.5605 222.339 89.6952 222.339 89.8298 222.205C89.8298 222.003 89.7625 222.137 89.5605 222.339Z" fill="#F3E89F" fill-opacity="0.1"/>
<path d="M51.4548 233.312C51.4548 233.312 51.3201 233.38 51.2528 233.447C50.9835 232.976 50.7142 232.504 50.4449 231.966L51.4548 233.312ZM53.6091 230.417C54.013 230.821 54.4843 231.225 54.8882 231.629C53.8784 232.033 52.8685 232.504 51.926 233.043C50.2429 227.926 51.926 228.802 53.6091 230.417ZM57.1772 230.821C57.1772 230.821 57.0426 230.821 56.9079 230.889C56.9079 230.552 56.9079 230.215 56.9079 229.744L57.1772 230.821ZM58.793 230.35C58.3891 230.485 57.9851 230.552 57.5812 230.687C57.7158 229.542 58.0524 229.138 58.793 230.35ZM36.5089 275.322L35.8357 275.659C37.5188 277.544 38.2593 279.765 39.2019 282.054C40.1444 284.343 41.2889 286.767 43.4433 288.181C44.6551 290.806 47.4153 291.884 50.3776 291.884C51.5221 291.884 52.5992 291.816 53.6091 291.749C54.8882 292.288 56.1674 292.759 57.4465 293.095C57.5812 293.297 57.7158 293.432 57.8505 293.634C58.3217 297.875 60.8127 296.529 62.7651 294.173C63.7076 294.307 64.7175 294.375 65.66 294.375C66.4005 294.375 67.1411 294.375 67.8817 294.307C69.4301 297.808 71.3825 299.828 73.2002 300.703C75.0853 301.511 76.9703 301.04 78.3168 299.558C80.2692 297.606 81.2117 294.038 81.5483 290.47C88.2806 286.902 93.6665 281.112 96.6288 274.11C97.8406 273.235 98.7831 272.023 98.8504 270.609H98.3792C99.3217 270.138 98.5811 269.196 98.3792 268.522C98.3792 268.388 98.3792 268.253 98.4465 268.051C98.5138 267.916 98.6485 267.849 98.9851 267.782V267.916C99.4563 267.715 98.9851 267.311 98.6485 266.974C98.7831 266.233 98.8504 265.56 98.9178 264.82C98.9178 264.752 98.9178 264.685 98.9178 264.55C98.9178 264.348 98.9178 264.146 98.9178 263.944C98.9851 263.742 99.187 263.675 99.591 263.675C99.591 264.012 100.197 263.137 100.466 263.944C100.601 263.742 100.668 262.598 99.9949 262.665C99.6583 262.665 99.3217 262.463 98.9851 262.463C99.187 252.634 94.2724 243.209 86.6649 236.948C88.146 236.948 89.5598 237.15 90.7043 237.756C90.435 237.89 89.8291 238.496 89.5598 238.698C90.3677 238.16 91.8488 237.082 91.8488 237.486C91.4449 237.958 90.9063 238.294 90.637 238.429C89.2905 240.381 90.3004 240.314 91.2429 240.314C92.2527 240.314 93.1953 240.314 92.2527 241.458C92.724 241.458 94.0032 240.516 94.8784 239.641C97.302 242.536 98.9851 246.171 100.466 249.672C100.264 249.941 99.8603 250.143 99.3217 250.278C99.9949 250.816 100.466 251.557 100.735 252.365C100.937 253.173 100.937 254.048 100.937 254.856C100.937 256.539 100.601 258.222 100.534 259.77C100.87 259.838 100.937 259.434 101.207 259.77C101.745 258.693 100.399 257.953 101.139 256.943H101.476C101.813 256.27 100.534 257.01 101.072 256.202C101.409 255.866 101.543 256.202 101.611 256.068C101.409 254.654 102.217 252.701 100.87 251.624C102.082 250.816 100.87 249.941 102.284 248.729C101.745 248.527 101.88 247.989 100.87 248.258C101.139 245.228 101.005 241.93 99.9276 239.035C98.9178 236.073 97.302 233.447 95.7535 230.485C92.1181 232.168 91.5122 230.956 91.1756 228.6C90.9736 226.243 90.7716 223.012 88.5499 223.214C88.7519 222.877 88.9539 222.541 89.0885 222.271C86.7995 223.752 84.8471 224.022 84.3086 221.935C83.2987 223.146 82.2889 224.493 81.279 225.772C79.9999 219.242 75.4892 216.751 71.0459 215.943C66.4005 215.135 61.8899 216.077 56.8406 214.866C51.2528 214.394 45.1937 214.125 40.481 216.751C35.8357 219.309 32.8735 225.099 35.3644 233.582C34.6239 232.841 34.0853 232.504 33.9507 232.033C33.8833 233.784 32.8735 234.524 31.8636 235.332C30.8538 236.14 29.8439 237.015 30.1805 238.765L29.3727 238.227C31.4597 243.343 30.1805 245.7 29.3053 248.595C28.3628 251.355 28.2955 254.654 31.3924 257.549C30.4498 263.54 32.7388 270.407 36.1723 275.322" fill="#F3E89F" fill-opacity="0.1"/>
<path d="M91.0401 238.566C91.0401 238.566 91.0401 238.566 91.0401 238.498C90.8382 238.633 90.8382 238.633 91.0401 238.566Z" fill="#F3E89F" fill-opacity="0.1"/>
<path d="M227.569 233.584C227.569 233.584 227.434 233.652 227.367 233.719C227.098 233.248 226.829 232.844 226.492 232.305L227.569 233.652V233.584ZM229.656 230.622C230.127 231.026 230.531 231.43 231.003 231.834C229.993 232.238 229.05 232.777 228.108 233.315C226.29 228.266 228.04 229.074 229.723 230.622M233.292 230.959C233.292 230.959 233.157 230.959 233.09 231.026C233.09 230.69 233.09 230.353 233.022 229.882L233.359 230.959H233.292ZM234.907 230.42C234.503 230.555 234.099 230.622 233.763 230.757C233.83 229.612 234.234 229.208 234.907 230.42ZM208.719 258.292C207.978 264.284 210.334 271.084 213.768 275.931L213.095 276.268C214.845 278.085 215.586 280.307 216.595 282.596C217.538 284.885 218.75 287.309 220.904 288.655C222.116 291.213 225.011 292.29 227.973 292.223C229.118 292.223 230.195 292.089 231.205 292.021C232.484 292.56 233.763 292.964 235.109 293.3C235.244 293.502 235.379 293.637 235.581 293.839C236.119 298.08 238.61 296.599 240.495 294.243C241.438 294.31 242.448 294.378 243.39 294.378C244.131 294.378 244.871 294.378 245.612 294.243C247.228 297.744 249.18 299.763 250.998 300.571C252.95 301.312 254.768 300.908 256.114 299.359C258.067 297.407 258.942 293.772 259.211 290.203C265.809 286.501 270.925 280.576 273.618 273.373C274.157 272.901 274.696 272.43 275.099 271.824C275.436 271.218 275.638 270.545 275.705 269.804H275.234C276.177 269.333 275.369 268.391 275.234 267.717C275.234 267.583 275.234 267.448 275.301 267.246C275.369 267.112 275.503 267.044 275.84 266.977V267.112C276.311 266.91 275.84 266.506 275.503 266.169C275.571 265.428 275.638 264.688 275.705 263.947C275.705 263.88 275.705 263.813 275.705 263.678C275.705 263.476 275.705 263.274 275.705 263.072C275.705 262.87 275.975 262.803 276.379 262.803C276.379 263.139 276.985 262.264 277.254 263.072C277.388 262.87 277.388 261.726 276.783 261.86C276.446 261.86 276.109 261.658 275.773 261.658C275.773 251.56 270.791 242.337 263.318 236.277C264.732 236.277 266.213 236.479 267.357 237.018C267.088 237.153 266.482 237.759 266.213 237.961C267.021 237.422 268.502 236.345 268.434 236.681C268.031 237.153 267.492 237.489 267.223 237.624C265.876 239.576 266.886 239.509 267.829 239.509C268.838 239.509 269.781 239.509 268.838 240.653C269.31 240.653 270.589 239.711 271.464 238.836C273.955 241.663 275.571 245.366 277.119 248.867C276.917 249.136 276.513 249.338 275.975 249.473C276.715 250.011 277.186 250.752 277.388 251.492C277.59 252.3 277.59 253.108 277.658 253.983C277.658 255.667 277.388 257.35 277.321 258.898C277.658 258.965 277.658 258.561 277.994 258.831C278.533 257.754 277.186 257.08 277.86 256.003H278.196C278.466 255.33 277.254 256.07 277.792 255.263C278.129 254.926 278.264 255.263 278.331 255.128C278.129 253.714 278.87 251.829 277.59 250.752C278.802 249.944 277.59 249.069 278.937 247.857C278.398 247.655 278.6 247.116 277.523 247.386C277.792 244.356 277.658 241.057 276.581 238.162C275.571 235.2 273.888 232.575 272.339 229.612C268.704 231.363 268.098 230.084 267.761 227.727C267.492 225.371 267.223 222.139 265.001 222.341C265.136 222.005 265.405 221.668 265.54 221.399C263.251 222.88 261.365 223.217 260.76 221.13C259.75 222.341 258.807 223.688 257.865 225.034C256.384 218.571 251.806 216.148 247.228 215.474C242.582 214.801 238.139 215.946 233.09 214.801C227.502 214.532 221.443 214.33 216.797 217.158C212.219 219.85 209.392 225.708 212.152 234.123C211.344 233.382 210.873 233.113 210.671 232.575C210.671 234.392 209.661 235.133 208.651 235.941C207.641 236.749 206.699 237.691 207.103 239.374L206.228 238.836C208.449 243.885 207.237 246.241 206.497 249.203C205.622 252.031 205.689 255.263 208.853 258.09" fill="#F3E89F" fill-opacity="0.1"/>
</svg>
