<svg width="123" height="122" viewBox="0 0 123 122" fill="none" xmlns="http://www.w3.org/2000/svg">
<path d="M14.3086 42.855C14.3086 42.855 14.261 42.926 14.2482 42.9597L14.2948 43.0248C14.4655 42.7306 14.6513 42.4747 14.8359 42.1828C14.6606 42.4189 14.4712 42.6527 14.3086 42.855Z" fill="#E77622"/>
<path d="M31.9462 85.5651C31.9462 85.5651 31.9985 85.6383 32.0218 85.6708C32.0346 85.6371 31.9695 85.5976 31.9462 85.5651Z" fill="#E77622"/>
<path d="M28.861 59.5066L28.8726 59.5228L28.8808 59.517C28.8808 59.517 28.8668 59.5147 28.861 59.5066Z" fill="#E77622"/>
<path d="M72.6774 17.0788L72.689 17.0951L72.6972 17.0893C72.6972 17.0893 72.6914 17.0811 72.6774 17.0788Z" fill="#E77622"/>
<path d="M73.7344 29.6617C73.6542 29.756 73.5764 29.8362 73.5067 29.9107C73.5485 29.9176 73.6565 29.742 73.7344 29.6617Z" fill="#E77622"/>
<path d="M76.341 100.003L76.1654 99.809L76.1421 99.7764C76.3025 99.7601 76.6001 99.6948 76.6117 99.711L76.5792 99.7343C76.4362 99.7751 76.2676 99.7973 76.1956 99.7996L76.3211 99.8205C76.234 99.8705 76.1921 99.8636 76.3968 100.012C76.3968 100.012 76.3782 100.009 76.341 100.003ZM76.0583 99.6765C76.2571 99.645 76.5093 99.6367 76.3594 99.7193L76.1223 99.766L76.0641 99.6846L76.0583 99.6765ZM73.7153 96.8648C73.9048 96.8891 74.056 96.9285 74.0107 97.0715L74.1397 97.0284C74.4061 97.2805 74.0549 97.1506 74.1992 97.4039C74.2876 97.4759 74.4119 97.2887 74.483 97.5083C74.4156 97.5688 74.4098 97.6467 74.4203 97.713C74.1807 97.4295 73.9631 97.1425 73.7211 96.8729M71.7454 99.4909L71.5897 99.5654C71.298 99.7249 70.8843 99.9716 70.4113 100.187L70.1137 100.166L70.1288 100.119C70.1288 100.119 70.0661 100.151 70.0498 100.163C62.3724 99.5189 49.7413 98.275 42.1678 96.4872C41.7677 96.1341 41.3838 95.7693 41.0279 95.4092C41.4057 95.5077 41.4826 95.7355 41.7896 95.8725C41.7896 95.8725 41.7919 95.8586 41.7803 95.8423C42.051 95.6364 42.3754 95.7977 42.5743 95.8522L42.6499 95.958C42.7465 96.1962 43.2588 95.5717 43.0684 95.9414C44.0867 95.9385 45.2608 96.0331 46.4048 96.137C46.5698 96.0067 47.2651 96.2224 47.0498 95.9215C47.3 96.2712 48.1429 96.4183 48.4626 96.4356C48.444 96.4612 48.4452 96.4972 48.3894 96.4879C48.9674 96.9351 49.1471 96.155 49.6647 96.7068C49.7866 96.3615 50.7064 96.9084 51.0654 96.5165C51.1236 96.5978 51.1399 96.6722 51.1144 96.7396C52.1444 96.8389 53.2617 97.0603 54.1499 97.1504C54.9216 96.9058 55.9437 97.441 56.6224 97.0663C57.1433 97.2101 57.992 97.4514 58.7406 97.3463L58.6674 97.3986C59.0871 97.4181 59.5486 97.4445 60.0089 97.435C60.7924 97.4647 61.4771 97.4422 61.7677 97.3327C62.6166 97.832 63.2536 97.7944 64.1953 97.9938C64.5627 97.9401 65.2625 97.9559 66.0077 98.0008C66.7551 98.0317 67.5445 98.0696 67.8781 98.0031C68.9977 98.2965 68.6546 97.9886 70.1638 98.3969C70.4334 98.327 70.7403 98.2919 71.1111 98.2603L71.1809 98.3579C71.21 98.3985 71.2588 98.4496 71.2821 98.4822C71.2344 98.4671 71.2356 98.5031 71.1449 98.4451C71.2683 98.7379 71.3684 98.9122 71.5103 99.0935C71.5802 99.1911 71.6523 99.2748 71.7442 99.3689L71.8024 99.4502C71.8024 99.4502 71.764 99.4653 71.7396 99.4828M51.0608 103.97C50.5283 103.81 50.0167 103.611 49.5074 103.397C51.8852 104.229 54.5383 104.827 57.4505 105.031C55.2859 104.944 53.1212 104.685 51.0527 103.976M42.7181 95.4174C42.338 95.4188 42.6773 95.2744 42.389 95.1979C42.2809 95.2014 42.3322 95.4107 42.1101 95.3236C42.1077 95.1655 42.0088 95.1133 41.8774 95.0843L43.1911 95.202C43.0122 95.33 42.8495 95.4464 42.775 95.2906L42.7181 95.4174ZM61.1093 96.7217L60.785 96.7323L59.4958 96.7692C56.3068 96.2469 53.0417 96.6152 49.9862 95.8499C49.2237 95.9527 48.4435 95.773 47.6378 95.5747L61.1093 96.7217ZM60.8512 94.7793C61.0082 94.8269 61.1674 94.8605 61.3244 94.9081C61.9627 95.0786 62.622 95.2955 63.094 95.4742L60.857 94.7875L60.8512 94.7793ZM47.2845 90.1473C47.3472 90.1147 47.4844 90.0658 47.4774 90.0216C47.1984 90.0613 47.1449 89.9521 47.146 89.9021C47.1309 89.8638 47.1553 89.8463 46.416 89.8956C46.4543 89.8805 46.753 89.8512 46.8751 89.85C46.5682 89.799 46.2275 89.7353 45.8973 89.6518C45.6102 89.6113 45.9008 89.5879 45.9659 89.5413L46.318 89.4493C46.8387 89.335 47.4409 89.2486 48.0616 89.2227C49.7107 88.5718 51.6337 88.9914 53.3948 88.7892L53.3785 88.8868C55.6976 88.7772 58.058 89.6708 60.2533 90.5227C61.1359 90.9488 61.7882 91.1216 62.6719 91.5837L62.6395 91.693C64.3381 92.1255 65.4261 93.8186 67.0424 94.5313L66.8553 94.5791C67.1958 94.5568 67.5531 95.211 67.7483 94.9854C67.7855 95.0202 67.8367 95.0574 67.8623 95.076L67.9612 95.2142C68.0263 95.2537 68.0937 95.2793 68.1589 95.3187C68.6137 95.7311 69.0894 96.19 69.5431 96.6524C68.2874 96.4439 66.9121 96.2228 66.0367 96.0989C66.0948 96.0943 66.2087 96.0988 66.3203 96.1174C65.6541 95.9423 66.0435 95.799 65.1901 95.5857C65.3482 95.5832 65.34 95.5891 65.5993 95.6249C65.0575 95.5207 64.9098 95.4173 64.6586 95.2896C64.4074 95.1619 64.0505 95.0237 63.4343 94.9358L63.5331 94.902L62.8216 94.7839C62.9925 94.7477 63.24 94.6813 63.4958 94.7811C62.6296 94.5155 61.7855 94.2463 60.9193 93.9807L59.331 93.5306C58.3486 93.2744 57.3545 93.0018 56.372 92.7455C54.3711 92.2341 52.376 91.7309 50.4121 91.0823L50.5911 91.0403L49.7866 90.9641C49.7866 90.9641 49.8459 90.9094 49.8901 90.9024C49.4191 90.6737 48.9261 90.5345 48.4123 90.4349L47.6879 90.2645C47.5542 90.2494 47.4031 90.21 47.2763 90.1531M40.7359 95.1385L40.7848 95.1896C40.7592 95.171 40.7534 95.1629 40.7359 95.1385ZM48.5861 85.8477C49.5508 85.6494 50.5004 85.4989 51.3167 85.7634C50.3727 85.75 49.4579 85.7774 48.5861 85.8477ZM61.1349 87.4579C62.4978 88.2289 63.9977 88.6929 65.3338 89.4954C65.9932 89.8844 66.7165 90.1908 67.3015 90.6822C67.9109 91.1561 68.4855 91.6672 69.0032 92.219C69.6532 92.4918 70.1011 93.0321 70.5339 93.62C67.0084 90.3755 63.365 88.3585 59.8223 87.2041C60.2547 87.2759 60.6849 87.3617 61.1209 87.4556M69.2192 97.3512L69.125 97.3571L66.2682 96.4743C67.9541 96.8545 70.355 97.461 69.225 97.3594M43.2194 86.6985C43.868 86.5051 44.5235 86.3559 45.1954 86.2811C44.5003 86.4094 43.8471 86.5447 43.2194 86.6985ZM34.0587 89.6361L34.5141 89.3103L34.584 89.4079L34.0587 89.6361ZM32.6667 86.9679C32.6667 86.9679 32.6654 86.8458 32.6235 86.7529L32.4527 86.875C32.4502 86.6309 32.434 86.7286 32.4711 86.5914C32.0943 86.2708 32.208 86.0173 31.9951 85.7024C31.9951 85.7024 31.9928 85.7163 31.9765 85.728C31.6417 85.7584 31.4567 85.4482 31.316 85.3029L31.317 85.1669C31.3506 84.9216 30.6044 85.1848 30.9496 84.9626C30.5135 84.6966 30.0704 84.3865 29.6238 84.0543C29.226 83.7733 28.8504 83.4887 28.4468 83.1995C28.262 83.2333 28.2014 82.9939 27.9085 83.1173C28.0526 83.0265 28.12 82.966 28.1769 82.9253C28.3676 82.8996 28.4338 82.8891 28.4664 82.8659C28.4919 82.8844 28.5315 82.9053 28.5315 82.9053C29.0547 83.1212 28.2139 82.6161 28.9592 82.833C28.9032 82.4796 29.9646 82.5197 30.0723 82C30.1816 82.0324 30.2282 82.0975 30.2329 82.1556C31.1684 81.7447 32.2283 81.3185 33.0348 80.9507C33.5448 80.3401 34.7107 80.2684 35.059 79.5521C35.5669 79.3856 36.4072 79.1165 36.973 78.6012L36.937 78.6884C37.6586 78.2706 38.5266 77.662 38.8843 77.148C39.3134 77.3698 39.5795 77.1057 39.9514 77.0241C40.3394 76.5868 41.3027 76.0084 41.9091 75.378C42.1312 75.465 42.4378 74.9138 42.6332 75.1183C44.3177 73.3479 46.759 71.7247 48.9738 70.3865C49.1259 70.0318 49.2 69.5854 49.3242 69.2261C49.366 69.233 49.3974 69.2598 49.3382 69.3144C49.6541 68.9655 50.1481 68.8826 50.4583 68.5256C50.4583 68.5256 50.4595 68.5616 50.4619 68.6337C50.7046 68.2511 51.28 68.1961 51.5156 67.6833L51.5947 67.7251L51.7654 67.4308C51.8142 67.482 51.8724 67.5633 51.8306 67.6424C54.2367 65.4542 56.3031 62.8083 58.323 60.1833C58.7864 59.5936 59.2359 59.0016 59.6994 58.412L59.6774 58.5875L60.0199 57.8631C60.0199 57.8631 60.0583 57.934 60.0455 57.9677C60.774 57.25 61.1906 56.2512 61.7411 55.4394C61.7726 55.4661 61.7645 55.644 61.8865 55.5567C62.0814 54.8149 62.7951 54.7471 62.5703 54.1578C62.6087 54.1427 62.7215 54.1972 62.7157 54.2751C63.5842 52.5843 64.5526 50.8958 65.499 49.2108C65.5675 49.1003 65.6325 48.9677 65.6929 48.8631C65.8691 48.0609 66.2069 47.2783 66.5528 46.4899C66.4128 47.549 66.1345 48.621 65.8166 49.6721C65.558 50.5825 65.2377 51.4755 64.9651 52.3835C64.6065 53.2916 64.5511 53.9706 64.1646 54.8741L64.0448 54.8613C63.9419 55.6972 63.5123 56.4717 63.0966 57.2485C62.6274 58.0021 62.1524 58.7475 61.9926 59.6242L61.9006 59.444C61.995 59.7822 61.4582 60.2522 61.7106 60.416C61.6955 60.4636 61.6665 60.509 61.6456 60.5485L61.5073 60.6474C61.5074 60.7335 61.4841 60.787 61.4749 60.8428C61.1521 61.4056 60.8432 61.9708 60.5029 62.5092C60.4182 62.6313 60.3194 62.7511 60.2381 62.8953C60.1057 63.0884 59.9687 63.3093 59.8689 63.5651C59.8457 63.6186 59.7946 63.6675 59.7632 63.7268L59.7492 63.6384C59.7086 63.7536 59.654 63.8663 59.6018 63.9652C59.4752 64.1664 59.3509 64.3536 59.2185 64.5467C59.1941 64.5641 59.1918 64.5781 59.1674 64.5955C59.1825 64.5479 59.1383 64.5549 59.1743 64.4677C58.2123 65.2541 57.7725 66.5645 56.978 67.5508L56.9151 67.3253C56.7248 67.9531 55.8837 68.7023 55.4087 69.3617L55.3691 69.2548L55.2042 69.6432L55.0647 69.534C54.3688 70.3145 53.8497 71.1529 53.1271 71.8788L53.0585 71.7312C52.5789 72.5906 51.6691 73.1921 51 73.9412L51.0162 73.8435C49.6522 75.065 48.4161 76.2934 47.1126 77.4962C42.9437 80.8468 38.1493 83.9931 32.6352 86.9412M30.4314 85.493C30.6477 85.4859 30.8464 85.4543 30.8384 85.6322L30.9441 85.5566C31.2616 85.7598 30.8989 85.6996 31.1001 85.9122C31.1967 85.9784 31.2616 85.7598 31.4012 85.955C31.3118 86.105 31.3758 86.1945 31.4758 86.2828L30.4314 85.493ZM47.9878 69.9361C47.2582 70.7037 46.5229 71.4633 45.6849 71.8044C45.6443 71.8335 45.5978 71.8545 45.549 71.8894C46.3716 71.2518 47.1884 70.6061 47.9796 69.9419M52.1308 66.2228C51.6034 66.809 51.0353 67.3383 50.4265 67.8107C51.0004 67.2895 51.5743 66.7684 52.1308 66.2228ZM28.804 81.9112C28.4845 82.1521 28.1951 82.2976 27.8964 82.4129L27.3665 82.5829L27.0561 82.6819C26.9655 82.7099 26.8086 82.7483 26.8377 82.789L26.7725 82.7495C30.9703 80.952 34.8854 78.914 38.5574 76.6565C38.1275 77.0009 37.6999 77.3313 37.2619 77.6814C34.3763 79.0445 31.8446 81.1258 28.804 81.9112ZM55.3902 58.5926C55.3507 58.6577 55.3077 58.7007 55.2624 58.7577C54.9465 59.1067 54.6584 59.4602 54.3622 59.8196C54.7095 59.4114 55.0568 59.0031 55.3902 58.5926ZM56.3218 57.3853C56.7318 56.8585 57.1418 56.3316 57.5518 55.8047C57.1592 56.356 56.7609 56.8991 56.3392 57.4097C56.0465 57.7912 55.7561 58.1587 55.4518 58.5239C55.7445 58.1425 56.0232 57.7587 56.3218 57.3853ZM28.1419 78.9915C28.1419 78.9915 28.0779 78.9881 28.0559 78.9916C28.0698 78.9939 28.1059 78.9927 28.1361 78.9834C28.0279 78.9009 28.0267 78.7789 28.0068 78.6824C27.8569 78.679 28.001 78.5882 27.7313 78.6582C28.0451 78.5812 28.109 78.4987 28.102 78.4545C28.1322 78.4452 28.152 78.4556 28.1578 78.4637C28.2241 78.4532 28.2485 78.4358 28.2729 78.4183C28.2578 78.38 27.8893 78.3977 28.2612 78.3161C27.9102 78.3581 28.3576 78.2102 27.9391 78.2267C28.0275 78.2127 28.0879 78.1941 28.1519 78.1975C28.1891 78.2324 28.2542 78.2719 28.3089 78.3311L28.5091 78.8518C28.386 78.903 28.2686 78.9624 28.1535 79.0078M27.1806 77.3554C27.2516 77.403 27.3144 77.4564 27.3877 77.4901C27.1798 77.8355 27.853 78.0548 27.3987 78.4166C27.5615 78.4723 27.4732 78.5723 27.3512 78.6596L27.1888 77.3496L27.1806 77.3554ZM27.0674 76.5266L27.03 76.2337C27.1684 76.3068 27.3102 76.4021 27.0836 76.515L27.0592 76.5324L27.0674 76.5266ZM26.9541 75.6978C27.0006 75.7629 27.0111 75.8291 26.9891 75.9187L26.9541 75.6978ZM27.7746 77.2748L27.7979 77.3073C27.7979 77.3073 27.7502 77.2922 27.7165 77.2795L27.7746 77.2748ZM29.1566 71.3685C29.0471 71.078 28.9807 70.8304 28.7936 70.8782L28.8318 70.691C28.6295 70.6144 28.4187 70.0275 28.2894 69.5544C28.1507 69.0512 28.0132 68.4979 27.8083 68.0052C27.6941 67.5705 27.4835 67.3277 27.331 66.9081L27.446 66.8627C26.7668 66.2912 27.2811 65.2225 26.5518 64.6499L26.7181 64.6417C26.4565 64.6197 26.5992 64.2349 26.3087 64.3443L26.2924 64.2699L26.3283 64.1827C26.3283 64.1827 26.2632 64.1432 26.2376 64.1247L25.9419 63.3158C25.9382 63.1216 25.8882 62.9485 25.752 62.7753L25.7241 62.6847L25.788 62.6881C25.7392 62.637 25.7042 62.5882 25.6635 62.5313L25.5948 62.2977C25.5948 62.2977 25.5657 62.257 25.5785 62.2233C25.6041 62.2418 25.6168 62.2081 25.6599 62.2511C25.8466 61.6012 25.2279 61.1831 25.0404 60.6287L25.2485 60.6274C24.9485 60.4486 24.9632 59.8847 24.7421 59.5757L24.8363 59.5698L24.6514 59.4316L24.8187 59.3734C24.665 58.9178 24.3695 58.539 24.189 58.1148L24.3494 58.0984C23.9342 57.7929 24.0432 57.2233 23.7639 56.8328L23.8337 56.8444C23.5821 56.0285 23.2038 55.3278 22.8081 54.6027L20.988 49.5482C21.0507 49.5156 21.1309 49.5074 21.2112 49.5853C21.2588 49.5143 21.204 49.283 20.9646 49.3436C20.9506 49.3413 20.9227 49.3367 20.9146 49.3425L20.762 48.9229C20.9779 48.3997 21.224 47.8671 21.4841 47.3369L21.541 47.2961C21.4551 47.4682 21.5086 47.4054 21.4319 47.5217C21.568 47.6948 21.4089 47.9193 21.4404 48.1181C21.4404 48.1181 21.4427 48.1041 21.459 48.0925C21.7031 48.004 21.7067 48.1981 21.7428 48.2829L21.7103 48.3922C21.5918 48.5876 22.1915 48.2571 21.8743 48.484C22.2708 48.729 22.6407 49.0915 22.999 49.4377C23.1582 49.3852 23.2503 49.7374 23.3884 49.4665C23.2352 49.7851 23.4237 50.1174 23.5377 50.208C23.4993 50.2232 23.4831 50.2348 23.4656 50.2104C23.3485 50.6999 23.9759 50.2019 23.7682 50.7194C24.0529 50.5158 23.9847 51.1424 24.3926 50.9736C24.3508 51.0526 24.3078 51.0957 24.2509 51.1364C24.5475 51.4652 24.7303 51.9615 24.9514 52.2705C25.4118 52.347 25.3297 52.9713 25.8481 52.957C25.9227 53.1987 25.9613 53.6137 26.2776 53.7809L26.2195 53.7856C26.437 54.0726 26.7046 54.4467 27.0732 54.5151C26.7781 54.8245 26.9223 54.9058 26.8794 55.1209C27.1608 55.2393 27.3425 55.6995 27.667 55.9469C27.5299 56.0818 27.8915 56.192 27.6544 56.3247C28.5848 57.0239 28.9332 58.3361 28.8666 59.5149C29.0526 59.6032 29.4072 59.6692 29.6293 59.7562C29.6107 59.7818 29.5828 59.7772 29.5712 59.7609C29.6469 59.9527 29.4471 60.2062 29.539 60.3864C29.539 60.3864 29.5018 60.3802 29.4274 60.3678C29.6019 60.5258 29.3114 60.8073 29.5719 60.9653L29.5069 61.0118L29.6325 61.1187C29.5581 61.135 29.4558 61.1467 29.4325 61.1141C29.6824 62.8042 30.2845 64.5743 30.0857 66.3763L30.0031 66.3124L30.1149 66.675C30.1149 66.675 30.0533 66.6576 30.0359 66.6332C29.8501 67.0611 30.0551 67.5539 29.9414 67.9794C29.8937 67.9643 29.8193 67.8946 29.7542 67.9412C29.9579 68.3119 29.3558 68.3983 29.8384 68.6432C29.814 68.6607 29.6942 68.648 29.6651 68.6073C29.6583 68.8212 29.6341 69.0967 29.6202 69.2665C29.6156 69.3804 29.5948 69.506 29.5739 69.6315C29.5102 69.8861 29.4313 70.1024 29.3407 70.2164C29.3688 70.5651 29.3341 70.8604 29.3052 71.0778C29.2692 71.251 29.2172 71.608 29.1693 71.3348M22.0399 60.3528L22.1894 61.5244C22.0218 61.1525 21.8425 60.7644 22.0225 60.4144C22.0411 60.3888 22.0376 60.3667 22.0399 60.3528ZM20.9325 51.9976L21.617 57.1144C21.5274 56.9203 21.4319 56.7181 21.3423 56.524C21.4264 55.2836 20.6398 54.1495 20.982 52.9089C20.776 52.6382 20.8409 52.3336 20.9325 51.9976ZM22.3423 69.886L22.4155 69.8337C21.6782 69.2669 21.5241 68.2951 21.0737 67.5107C20.9677 67.1562 20.7398 66.975 20.5896 66.6276L20.7046 66.5822C20.0441 66.1571 20.5736 65.2128 19.9281 64.7401L20.0862 64.7377C19.8304 64.7239 20.0081 64.3878 19.7222 64.4694C19.7164 64.4613 19.7047 64.445 19.7012 64.4229L19.743 64.3438C19.743 64.3438 19.6977 64.3148 19.6581 64.2939C19.5952 64.0684 19.5288 63.8208 19.474 63.5896C19.4855 63.4338 19.4692 63.2734 19.3563 63.1328C19.347 63.1026 19.3516 63.0747 19.3342 63.0503L19.3981 63.0537C19.3609 63.0189 19.3399 62.9724 19.2992 62.9154C19.2829 62.841 19.2863 62.7771 19.2677 62.7167C19.27 62.7027 19.2526 62.6783 19.2711 62.6527C19.277 62.6609 19.313 62.6597 19.3444 62.6864C19.6544 62.1573 19.1136 61.7449 19.0587 61.2556L19.254 61.288C19.0086 61.0824 19.1629 60.6278 19.0337 60.3268L19.1313 60.343L18.9825 60.2036L19.1591 60.1756C19.124 59.7827 18.9843 59.4154 18.9271 59.026L19.1026 59.048C18.7967 58.689 19.0661 58.275 18.9647 57.8926L19.0182 57.9158C19.084 57.2171 19.0011 56.5511 18.9588 55.8559C19.1391 54.2516 19.4996 52.5553 20.0936 50.7903C20.1636 51.0599 20.2091 51.347 20.2465 51.64C20.3953 51.6933 20.2769 51.9747 20.5419 51.8467C20.2444 51.998 20.1969 52.327 20.2342 52.4479C20.1923 52.4409 20.1702 52.4444 20.1726 52.4305C19.7961 52.7121 20.5877 52.6499 20.1171 52.9374C20.4716 52.9174 20.0557 53.3501 20.4905 53.4079C20.4197 53.4463 20.3534 53.4568 20.2813 53.4592C20.3223 53.8602 20.2505 54.2927 20.2809 54.6275C20.6193 54.8772 20.2267 55.3425 20.693 55.5131C20.628 55.7316 20.4922 56.0747 20.7063 56.3396L20.6447 56.3222C20.7076 56.6337 20.7788 57.0254 21.0847 57.2123C20.6732 57.3591 20.7884 57.4857 20.6629 57.6369C20.8886 57.8321 20.8889 58.2622 21.0983 58.555C20.9205 58.633 21.2147 58.8037 20.9474 58.8597C21.5907 59.6904 21.5647 60.8401 21.2817 61.854C21.4596 61.948 21.7933 62.0536 21.991 62.1581C21.9666 62.1756 21.9445 62.1791 21.9271 62.1547C21.9853 62.322 21.7471 62.5047 21.8251 62.6825C21.8251 62.6825 21.7926 62.6771 21.7275 62.6663C21.874 62.8196 21.5452 63.0303 21.7894 63.1998L21.7406 63.2347L21.8465 63.3311C21.7744 63.3335 21.664 63.351 21.6349 63.3103C21.7684 64.8378 22.447 66.3195 22.5619 67.8725L22.477 67.8226L22.6748 68.0991C22.6284 68.1201 22.6028 68.1015 22.569 68.0887C22.474 68.4887 22.7799 68.8477 22.7895 69.222C22.7511 69.2371 22.6581 69.193 22.5988 69.2477C22.8815 69.4881 22.3539 69.7303 22.8422 69.8113C22.7957 69.8323 22.7213 69.8486 22.6899 69.8219C22.7562 69.9834 22.7726 70.1438 22.8169 70.3089C22.6947 70.1381 22.5598 70.001 22.3563 69.8884M20.6467 50.3087L20.6409 50.3005C20.6409 50.3005 20.6815 50.2715 20.7059 50.254L20.7222 50.3284C20.7222 50.3284 20.6664 50.3191 20.6525 50.3168M20.5732 49.9309C20.6476 49.9146 20.6604 49.8809 20.6615 49.8309L20.7023 50.0599C20.6535 50.0088 20.6023 49.9716 20.5732 49.9309ZM22.4284 47.9524C22.2692 48.0048 22.1321 48.0537 22.2052 47.9153L22.0995 47.9909C21.9436 47.8934 22.1843 47.8688 22.1214 47.7294C22.0737 47.7143 21.9436 47.8934 21.9284 47.769C22.0376 47.6294 22.0329 47.5713 21.998 47.5225C22.1469 47.6619 22.2819 47.799 22.4226 47.9442M27.5578 54.23C27.3658 54.0476 27.1739 53.8652 26.9797 53.6968C26.6991 53.0123 26.2093 52.465 25.715 51.9457C25.2345 51.4287 24.7889 50.8745 24.4898 50.2156C24.1386 50.0856 23.9884 49.7381 23.8348 49.3685C25.3679 51.0136 26.6035 52.638 27.5496 54.2358M29.6904 58.9994C29.4356 58.5916 29.1447 58.1849 29.2421 57.771C29.2444 57.757 29.2328 57.7408 29.2491 57.7291C29.4074 58.1568 29.56 58.5764 29.6904 58.9994ZM72.5859 29.7941C72.421 30.0104 72.2642 30.2209 72.105 30.3594C72.2549 30.1907 72.4094 29.9942 72.5859 29.7941ZM72.9344 29.3359C73.4849 28.6101 74.0877 27.6995 74.638 26.6297C74.5767 27.0424 74.5141 27.4191 74.2666 27.5715L74.3086 27.7505C73.836 28.5681 74.1261 27.7704 73.6929 28.3508C73.5593 28.5938 73.8418 28.5762 73.4399 29.0112C73.2992 28.952 73.1295 29.1102 72.9262 29.3417M69.4251 31.5631L69.4391 31.5654L69.4332 31.5573L69.4251 31.5631ZM69.4262 31.5131L69.4402 31.5154L69.4344 31.5073L69.4262 31.5131ZM71.6781 24.4682C71.6721 24.03 71.6939 23.5963 71.6368 23.379C71.6494 23.0872 71.5296 23.0745 71.4957 22.8037L71.6026 22.678C71.3806 22.677 71.4431 22.3003 71.5023 22.0736C71.5835 21.8434 71.6403 21.5446 71.3693 21.3204L71.5367 21.3482C71.3018 21.2949 71.5109 21.0716 71.2343 21.0973L71.2354 21.0473L71.3005 21.0008C71.3005 21.0008 71.2516 20.9497 71.2237 20.945L71.1745 20.3778C71.207 20.2685 71.222 20.1348 71.1406 20.0209L71.1359 19.9628L71.1917 19.9721C71.1626 19.9314 71.1394 19.8989 71.1242 19.8605L71.1078 19.7001C71.1078 19.7001 71.0985 19.6699 71.1171 19.6443C71.1346 19.6687 71.159 19.6512 71.1904 19.678C71.5435 19.2778 71.0713 18.9271 71.0455 18.5644L71.235 18.5887C70.9966 18.4273 71.1545 18.0807 71.0276 17.8518L71.1334 17.8622L70.9938 17.753L71.1705 17.725C71.1575 17.4146 70.9656 17.1462 70.9224 16.8452L71.0805 16.8427C70.756 16.5953 71.022 16.2453 70.8741 15.9699L70.9299 15.9791C70.9064 15.4304 70.7293 14.9423 70.557 14.4263L70.0365 9.40123C70.1668 9.56622 70.2866 9.75098 70.4065 9.93574C70.5611 9.91123 70.5333 10.1647 70.7401 9.95529C70.5089 10.1821 70.5591 10.4413 70.6196 10.5087C70.5894 10.518 70.5731 10.5297 70.5615 10.5134C70.2815 10.8611 70.9916 10.5131 70.6268 10.897C70.9522 10.7503 70.6537 11.2097 71.0745 11.0931C71.0152 11.1478 70.9502 11.1944 70.8897 11.213C71.0178 11.478 71.0622 11.815 71.153 12.0452C71.5157 12.1054 71.2172 12.5647 71.6915 12.5575C71.6556 12.7307 71.5872 13.0132 71.8384 13.1409L71.7802 13.1456C71.8757 13.3478 71.9956 13.6186 72.3084 13.6777C71.9376 13.8814 72.0539 13.958 71.961 14.086C72.1971 14.1753 72.2461 14.4845 72.4659 14.6715C72.3021 14.7518 72.602 14.8446 72.3382 14.9227C73.0348 15.4326 73.0284 16.3347 72.7116 17.0777C72.8778 17.1555 73.1987 17.2087 73.401 17.2853C73.3766 17.3028 73.3546 17.3063 73.3371 17.2819C73.3941 17.4132 73.135 17.5494 73.206 17.683C73.206 17.683 73.1734 17.6776 73.1083 17.6668C73.2398 17.7818 72.8923 17.932 73.1214 18.0632L73.047 18.0795L73.147 18.1678C73.0668 18.176 72.975 18.1679 72.9575 18.1435C72.9268 19.2351 73.31 20.4241 72.9945 21.5472L72.9178 21.4915L73.0179 21.7518C73.0179 21.7518 72.9447 21.7182 72.9388 21.71C72.6961 22.0066 72.9287 22.1599 72.8486 22.3401C72.8114 22.3053 72.7415 22.2077 72.6939 22.1926C72.8173 22.4855 72.5357 22.109 72.6498 22.3717C72.6978 22.8169 72.5016 23.2645 72.3795 23.2658C72.3358 24.047 72.2337 24.3167 72.1303 24.4644C72.0885 24.5435 72.0467 24.6226 71.9911 24.7854C71.9295 24.94 71.8878 25.1051 71.8217 25.2877L71.8737 24.9308C71.7438 25.2819 71.7191 24.8692 71.7084 24.4589M68.1293 17.3921L68.0518 18.0746C67.9575 17.8224 67.8469 17.5818 68.1084 17.4317C68.1107 17.4177 68.127 17.4061 68.1351 17.4003M66.9955 22.4078C66.9349 22.0823 66.987 21.7254 66.888 21.4151C66.8971 21.1872 66.7657 21.0722 66.7388 20.8456L66.8492 20.8281C66.3585 20.5029 67.1673 20.0351 66.6648 19.6936L66.8206 19.7051C66.5974 19.6681 66.8252 19.5052 66.5648 19.5193C66.5671 19.5053 66.5717 19.4774 66.5659 19.4693L66.6228 19.4286C66.6228 19.4286 66.5914 19.4019 66.5693 19.4054C66.5669 19.2473 66.5645 19.0892 66.5679 18.9392C66.5934 18.8718 66.6131 18.7962 66.5689 18.7172C66.5712 18.7032 66.5596 18.687 66.5642 18.6591L66.62 18.6683L66.5677 18.5951C66.5677 18.5951 66.5781 18.4893 66.5711 18.4452C66.5792 18.4394 66.5734 18.4312 66.5734 18.4312C66.5873 18.4335 66.6234 18.4323 66.6466 18.4649C67.0464 18.2159 66.6393 17.9046 66.6856 17.6255L66.8647 17.6696C66.6542 17.5128 66.883 17.2999 66.8213 17.1105L66.9108 17.1325L66.7969 17.0419L66.9724 17.0639C67.0176 16.8349 66.8931 16.592 66.922 16.3746L67.065 16.4198C66.8347 16.1665 67.167 15.978 67.082 15.756L67.1355 15.7793C67.2841 15.4025 67.2571 15.0038 67.2522 14.6016C67.3334 14.3714 67.4204 14.1493 67.5075 13.9272C67.7994 14.1118 67.3252 14.2912 67.7368 14.4885C67.6404 14.5944 67.4406 14.7619 67.5965 14.9455L67.5488 14.9304C67.5489 15.1024 67.5433 15.3524 67.7979 15.5022C67.3876 15.5129 67.4458 15.5942 67.3144 15.6513C67.4994 15.7895 67.41 16.0255 67.5613 16.237C67.3729 16.2487 67.6276 16.3985 67.344 16.3801C67.8268 16.9692 67.5668 17.5855 67.0951 18.0949C67.2591 18.1867 67.5567 18.2934 67.7347 18.3875C67.7044 18.3968 67.6707 18.384 67.673 18.3701C67.7103 18.4909 67.429 18.5446 67.4663 18.6655C67.4663 18.6655 67.4392 18.6562 67.3849 18.6376C67.4605 18.7434 67.1409 18.8122 67.3363 18.9306L67.2561 18.9388L67.3584 19.0131C67.2782 19.0213 67.1747 18.997 67.1631 18.9807C66.9858 19.8329 67.3467 20.7673 67.1846 21.6579L67.1055 21.6161L67.2393 21.8031C67.2393 21.8031 67.1695 21.7916 67.1358 21.7788C66.9651 21.987 67.2012 22.2484 67.1386 22.453C67.0967 22.4461 67.0409 22.4368 66.999 22.4299M68.6656 12.607L68.3408 15.5565C68.2978 15.4274 68.2407 15.2961 68.1976 15.1671C68.5227 14.5043 67.97 13.7316 68.5381 13.1163C68.3903 12.9269 68.5181 12.7617 68.6656 12.607ZM67.9418 13.2969C67.8616 13.305 67.814 13.29 67.7361 13.2842C67.7628 13.2528 67.7535 13.2226 67.7802 13.1912C67.7953 13.2295 67.8267 13.2562 67.9418 13.2969ZM68.1459 12.4132C68.1459 12.4132 68.1994 12.4365 68.2854 12.4364C68.2215 12.433 68.1587 12.4655 68.1006 12.4702C68.125 12.4528 68.1273 12.4388 68.1319 12.4109M68.5964 11.5132C68.5964 11.5132 68.6033 11.4713 68.6114 11.4655C68.6614 11.4667 68.6975 11.4655 68.716 11.4399C68.7102 11.4318 68.6684 11.4248 68.6347 11.412C68.637 11.3981 68.6532 11.3865 68.6497 11.3644C68.7439 11.3585 68.7881 11.3515 68.7846 11.3294L68.7441 11.6166C68.651 11.5725 68.5476 11.5481 68.5661 11.5225C68.5661 11.5225 68.5762 11.5194 68.5964 11.5132ZM63.6106 17.1939C63.9102 14.8281 64.6341 12.5399 65.7337 10.4502C65.9821 9.90366 66.27 9.37804 66.5929 8.90122L67.5568 7.41264L68.6522 6.03906L69.1586 5.40635C69.1911 5.29706 69.3387 5.22838 69.4711 5.12135L69.4249 5.4864C64.4122 10.9404 63.3578 16.342 63.757 20.7161C63.6051 19.5584 63.5335 18.3925 63.5885 17.1974M70.35 8.80817C70.35 8.80817 70.393 8.76513 70.4057 8.73141L70.4465 8.78835C70.4465 8.78835 70.3721 8.80467 70.35 8.80817ZM70.4814 8.83715L70.479 8.8511L70.5547 8.95684C70.514 8.98592 70.4407 8.86624 70.35 8.89419C70.3431 8.93605 70.535 9.03241 70.4303 9.05805C70.2908 8.94887 70.2466 8.95587 70.2141 8.97914C70.2652 8.93028 70.2884 8.87679 70.3314 8.83376L70.4814 8.83715ZM72.7907 13.4926C72.6836 13.3601 72.5603 13.2393 72.4533 13.1068C72.3353 12.1339 71.384 11.5603 71.381 10.5419C71.1496 10.4247 71.1332 10.1782 71.1156 9.89576C71.8417 11.1345 72.3807 12.335 72.7848 13.4844M73.5937 16.8156C73.4343 16.5239 73.2504 16.2497 73.4351 15.9578C73.4432 15.952 73.4537 15.9322 73.4502 15.9101C73.5131 16.2216 73.5645 16.5168 73.6018 16.8098M69.686 4.82013C70.0229 4.43165 70.3633 4.06526 70.6978 3.69073C71.731 5.06644 72.3499 5.91466 72.9912 7.01744C73.68 8.04929 74.1806 9.1789 74.6835 10.2946C75.1478 11.0813 75.4936 11.9773 75.8092 12.8827C76.0179 13.8276 76.3068 14.7644 76.3539 15.7757C75.8406 12.8234 74.5865 9.54017 72.0501 5.9939L71.7068 5.51401L70.6679 4.13016L69.5991 5.30029L69.5711 5.03759C69.6187 4.96665 69.6558 4.91547 69.6837 4.83408M76.4597 100.152C76.6188 99.9273 76.6664 99.8563 76.9151 99.7399C76.6024 99.6808 76.3745 99.5856 76.0024 99.4952C75.9641 99.5103 75.9478 99.522 75.9234 99.5394L75.8769 99.4744C75.8769 99.4744 75.9396 99.4418 75.9675 99.4464C75.9013 99.4569 75.8733 99.4523 75.8396 99.4395L75.3266 98.8598C75.43 98.7981 75.48 98.7132 75.4485 98.5144L75.2532 98.568C75.324 98.3576 75.2682 98.4343 75.3507 98.3262C75.0575 97.9334 75.2306 97.7113 75.1001 97.3743L75.0757 97.3917C74.7386 97.3501 74.6384 97.0037 74.5302 96.8352L74.565 96.712C74.6543 96.4759 73.8721 96.5683 74.2591 96.439C73.895 96.0847 73.5297 95.6943 73.1691 95.276C72.8027 94.8497 72.3688 94.4837 71.9652 94.1085C71.7513 94.1017 71.3568 93.4986 71.3385 93.8683C71.358 93.4486 70.8042 92.8119 70.5646 92.6145C70.5972 92.5912 70.6216 92.5737 70.6448 92.6063C70.4851 91.8845 69.8868 92.4231 69.7654 91.6861C69.4622 91.9154 69.0175 90.967 68.5061 91.1115C68.4944 91.0092 68.5223 90.9278 68.5769 90.9011C68.178 90.584 67.7639 90.2285 67.3754 89.8916C66.9521 89.592 66.5404 89.3086 66.1636 89.074C65.3556 88.9757 64.7017 87.9927 63.9124 88.1269C63.481 87.833 62.7646 87.3127 62.0216 87.1679L62.1042 87.1457C61.3541 86.7847 60.3333 86.5435 59.7114 86.6195C59.61 86.1511 59.2427 86.1187 58.9379 85.8818C58.3602 85.8647 57.265 85.6399 56.4094 85.6125C56.3139 85.4103 55.7107 85.5467 55.7128 85.2747C53.288 85.4599 50.463 85.1199 47.8799 84.9635C47.5533 85.1601 47.2571 85.5195 46.9539 85.7487C46.9283 85.7301 46.9248 85.708 46.9492 85.6906C46.5273 85.7711 46.0796 85.5749 45.6391 85.681C45.6391 85.681 45.6565 85.648 45.6913 85.5821C45.295 85.7672 44.7741 85.5374 44.3232 85.8352L44.2767 85.7702L43.985 85.9296C43.9803 85.8715 43.9605 85.775 44.0175 85.7343C42.4064 86.0259 40.8165 86.5361 39.2929 87.2078C38.8989 87.379 38.5027 87.564 38.1226 87.7375L36.8803 88.3556L35.2592 89.0971C36.1911 88.578 37.0952 88.0543 37.9691 87.54C39.023 86.8476 40.0909 86.1576 41.1529 85.4594L41.1205 85.6548C42.0791 84.9323 43.1214 84.2236 44.1881 83.4976C45.2431 82.7553 46.3761 82.1047 47.3219 81.2439L47.2243 81.3997C50.7136 78.818 53.7424 75.9877 56.4827 72.8229C58.6259 70.4908 60.5274 68.0612 62.1614 65.5155C64.7372 61.5707 66.7131 57.3543 68.1355 52.8453C70.1123 46.5504 70.9868 39.6425 70.8483 32.0574C70.939 32.0294 71.0424 31.9678 71.219 31.8537L71.1932 31.5771C71.5698 31.4676 71.4338 31.4665 71.6175 31.4826C72.4702 30.5777 72.7957 30.6031 73.4707 29.9482L73.4649 29.94C73.6714 29.3005 74.2522 28.6515 74.5356 28.2398L74.7482 28.1246C75.098 27.9605 75.0681 26.6294 75.2184 27.149C76.3841 24.7907 77.2157 21.8108 77.2522 18.8708C77.0996 18.4513 77.145 16.6238 76.9001 17.2785C77.203 16.5331 76.8947 14.3316 76.5978 13.5727C76.6455 13.5878 76.6827 13.6226 76.7119 13.7493C76.712 12.0649 75.7587 12.1073 75.7101 10.5438C75.3055 10.4767 74.6298 8.07077 73.8041 7.60398C73.7784 7.41335 73.8086 7.31801 73.89 7.34586C73.4827 6.69048 73.0556 6.02465 72.6402 5.37509C71.9712 4.43972 71.3196 3.52875 70.7344 2.6933C70.0025 3.47495 69.3427 4.1682 68.8571 4.67535C68.663 4.851 68.4632 5.01853 68.4516 5.08828L68.4574 5.09642C68.5818 4.9952 68.3135 5.35923 68.1892 5.54647C68.0324 5.75697 67.8675 5.9733 67.7025 6.18962C67.3727 6.62227 66.9614 7.02708 66.6583 7.51435C66.0149 8.45403 65.3645 9.34955 65.215 10.2064C64.459 11.3496 63.4501 13.4113 63.2305 15.3388L63.235 15.1389C62.7504 17.2805 62.808 20.0425 63.268 21.4592C62.9604 22.1465 63.1714 23.0775 63.3022 24.0167C63.8134 25.3846 64.787 28.1553 66.1494 29.9226C66.1764 30.3213 67.2267 31.3773 67.0165 31.5646C67.0304 31.5669 67.0897 31.5983 67.0955 31.6064C67.0932 31.6203 67.1107 31.6447 67.0771 31.8901C67.0308 32.2551 66.9741 32.6399 66.9197 33.0108C66.7923 33.7781 66.6987 34.5582 66.5248 35.3464C66.1317 36.894 65.7747 38.5263 65.1654 40.0809C64.5528 41.9575 63.7297 43.7634 62.8427 45.4798C62.2134 46.6798 61.5492 47.8311 60.9024 48.9208C60.639 49.687 60.4559 50.6171 60.2099 51.4077C60.1588 51.4566 60.1309 51.452 60.1483 51.3903C59.62 52.3706 58.8056 53.0884 58.24 54.0339C58.2152 54.0106 58.2222 53.9401 58.2608 53.8223C57.7767 54.7956 56.8379 55.5285 56.2143 56.6507L56.1202 56.6566L55.9762 56.9194L55.7161 57.3636C55.6614 57.3044 55.5753 57.2184 55.7507 56.9823C49.706 64.6376 41.9054 71.3849 32.976 76.1241C33.0678 76.0462 33.1619 75.9543 33.2618 75.8705C32.7098 76.2161 32.073 76.5978 31.8348 76.7805C31.8522 76.7189 31.9034 76.67 31.9405 76.6188C31.6523 76.7143 31.4338 76.8214 31.1607 76.9553L30.9643 77.0589C30.9016 77.0915 30.7796 77.1787 30.8539 77.0764L31.028 76.7182C31.1476 76.4729 31.2742 76.1856 31.3972 75.8764C31.6201 75.3973 31.8952 74.7333 32.1238 74.1764C32.1552 74.2031 32.0927 74.5797 32.2796 74.2739C32.7226 72.4695 33.5322 71.5215 33.2595 70.4871C33.3013 70.408 33.428 70.3789 33.4235 70.5788C34.4386 65.5005 33.9632 59.9883 31.8224 55.2247C29.6624 51.4829 26.9246 47.4659 23.3297 44.8119L23.4029 44.7596C22.5445 44.058 21.678 43.3622 20.6953 42.5898C20.0671 43.7399 19.5423 44.7423 18.9978 45.8202C18.416 46.8633 18.0203 47.9947 17.5293 49.0959C16.6903 51.3435 16.1024 53.7188 15.9121 56.1171C15.6544 58.5759 15.8682 60.2672 16.2952 62.7034L16.1895 62.7791C16.7941 64.7933 17.3848 66.8911 18.2684 68.9517C19.1346 70.9878 20.2902 72.9644 21.864 74.4944L21.5489 74.3632C22.1129 74.7221 23.0799 76.1943 23.3087 75.9814C23.4088 76.0697 23.4925 76.1697 23.5926 76.2579L23.802 76.5507C23.916 76.6413 24.0241 76.7238 24.1404 76.8005C24.3323 76.9829 24.4929 77.1385 24.6359 77.2698L27.0145 79.3921C26.9564 79.3968 26.9123 79.4038 26.8564 79.3946C26.81 79.4155 26.8449 79.4643 27.0634 79.4432L27.1576 79.5234C26.9554 79.6189 26.7555 79.7004 26.5614 79.79L26.3499 79.8552C26.0129 79.9856 25.6596 80.1277 25.2865 80.2593C24.6973 80.484 24.1046 80.7727 23.4631 81.0962C23.4491 81.0939 23.4247 81.1114 23.405 81.1009L23.0819 81.2337L23.1783 81.1278C22.8971 81.2675 22.624 81.4013 22.3451 81.5271L21.019 82.0452L21.2725 82.245C21.2725 82.245 21.304 82.2717 21.3156 82.288C21.2226 82.2439 21.1923 82.2532 20.9714 82.1162C21.204 82.3555 21.5099 82.6285 21.8496 82.9142C22.1799 83.1698 22.5055 83.4532 22.8417 83.7169C23.4627 84.207 24.1105 84.6658 24.7641 85.1327C26.0795 86.0607 27.4576 86.9561 28.7102 87.9167L28.3219 87.8379C28.8277 88.1154 29.4441 88.5474 30.0989 89.0504C30.7735 89.5637 31.4969 90.1283 32.2028 90.6684C32.7432 90.3925 33.1465 90.1656 33.5218 89.934L36.0728 90.7159L35.7531 90.6987L36.9843 90.9246C36.9494 90.9618 36.8855 90.9583 36.8192 90.9688C36.9855 91.0466 37.1622 91.1046 37.3367 91.1766L37.6901 91.2926C37.9366 91.3622 38.1692 91.4295 38.4121 91.477L38.5796 91.5048C37.9251 91.604 37.2614 91.587 36.5964 91.5339C35.6838 91.4613 34.5143 91.3388 33.7912 91.3765C33.9727 91.5786 34.1519 91.7947 34.3438 91.9771L34.1694 91.9051C35.257 93.082 35.8109 93.8908 36.5136 94.8389C37.1885 95.7824 37.9342 96.6875 38.7624 97.4845C39.4452 98.1641 39.9546 98.5497 40.7071 99.1549L40.6548 99.2537C41.4293 99.5973 42.0051 100.23 42.675 100.772C43.0065 101.063 43.3461 101.349 43.6927 101.593C44.0579 101.811 44.4579 101.992 44.8915 102.1L44.7056 102.184C45.0496 102.098 45.5523 102.783 45.6659 102.358L45.8579 102.626C46.4984 102.611 46.9461 102.893 47.4032 103.205C47.8579 103.532 48.3661 103.881 49.0916 103.916L48.9858 103.991C49.3509 104.038 49.7752 104.115 50.0171 104.299C49.9671 104.298 49.9765 104.328 49.8823 104.334C50.3673 104.737 50.9719 104.894 51.6066 104.957C52.2368 105.047 52.8738 105.096 53.4703 105.259L53.2913 105.387C53.9237 105.291 54.9829 105.603 55.785 105.608L55.7269 105.698L56.1349 105.615L56.135 105.787C57.1569 105.893 58.1356 105.697 59.1376 105.705L59.0761 105.86C59.9955 105.633 61.0499 105.715 62.0286 105.519L61.9554 105.571C63.2202 105.552 64.3789 105.178 65.5319 104.882C66.1816 104.724 66.8046 104.512 67.4322 104.273C70.4402 103.596 73.6375 102.514 77.0135 100.874L76.4109 100.187L76.4597 100.152Z" fill="#E77622"/>
<path d="M41.9214 95.9011C41.9214 95.9011 41.84 95.8733 41.7924 95.8582C41.8017 95.8884 41.8796 95.8942 41.9214 95.9011Z" fill="#E77622"/>
<path d="M74.9423 72.4679C77.6824 72.5859 80.6413 73.199 83.7448 74.5815C85.0995 75.1863 86.4914 75.912 87.8893 76.8178C87.4813 76.8146 87.057 76.823 86.5606 76.8338L87.222 76.7787C86.4617 76.7815 85.8317 76.7773 85.3097 76.7695C84.1821 76.7399 83.5171 76.6869 82.7684 76.6199C81.7326 76.5125 80.4759 76.354 79.1367 76.3037C78.0706 76.2056 77.5289 76.2733 76.5699 76.2216L76.5524 76.1112C74.9484 76.447 73.2575 75.4925 71.5745 75.8726L71.6895 75.7411C71.4373 75.9215 70.8199 75.6255 70.7887 75.9428L70.655 75.9278L70.5085 75.8605C70.4457 75.8931 70.3876 75.8977 70.3214 75.9082L69.6401 75.8668L68.5136 75.7873C68.1532 75.7132 67.7742 75.6646 67.3313 75.6986L67.1314 75.694L67.1965 75.6475C67.0883 75.6511 66.964 75.6663 66.8559 75.6698L66.1886 75.6307C66.1886 75.6307 66.1467 75.6238 66.127 75.6133C66.1851 75.6086 66.1839 75.5726 66.2641 75.5644C65.8373 75.3287 65.5374 75.3219 64.8969 75.3374C64.3145 75.3483 63.395 75.4035 62.8416 75.3689L63.6809 75.2359C63.3961 75.2675 63.0415 75.2874 62.9322 75.255C63.0357 75.1933 63.2077 75.1072 63.3936 75.0233C63.7818 74.8441 64.2013 74.6915 64.3686 74.5473L64.55 74.5774C64.55 74.5774 64.5441 74.4832 64.5534 74.4274L64.9568 74.4586C65.6227 74.2035 66.1026 73.8603 67.1323 73.5295L67.1266 73.6934C67.3521 73.5445 67.5984 73.442 67.8623 73.364C68.5131 73.1566 69.2362 73.119 69.8847 72.9256L69.8371 72.9966C71.5655 72.7316 73.2452 72.5015 74.9586 72.4562M88.8371 77.4554C89.1953 77.7156 89.564 77.956 89.9199 78.2301L89.9723 78.3893C89.7618 78.3185 89.8467 78.3685 89.7188 78.2756C89.319 78.5246 89.1074 78.3317 88.761 78.4319C88.761 78.4319 88.7749 78.4342 88.7866 78.4505C88.7275 78.7633 88.3858 78.8355 88.2219 78.9159L88.0987 78.8811C87.8917 78.7464 87.9177 79.5391 87.8129 79.1347C87.6595 79.2812 87.4945 79.4115 87.3156 79.5395C86.687 80.0014 85.9316 80.4064 85.2216 80.8405C85.1729 81.0475 84.5034 81.1943 84.85 81.3522C84.4616 81.1874 83.7213 81.4587 83.454 81.6007C83.4528 81.5647 83.4632 81.5449 83.4876 81.5275C82.8343 81.4047 83.0765 82.1903 82.3766 81.9164C82.4384 82.2779 81.4572 82.1437 81.3215 82.6588C81.2366 82.6088 81.1901 82.5438 81.1935 82.4798C80.3126 82.864 79.2583 82.9542 78.511 83.1813C77.9161 83.656 76.8778 83.3904 76.3934 83.9336C76.1237 83.9175 75.7703 83.8875 75.4041 83.8912C75.0879 83.8961 74.745 83.9324 74.4463 84.0476L74.5114 84.0011C73.7465 84.0318 72.8084 84.1126 72.2692 84.3385C72.0527 83.9155 71.7273 83.9761 71.4145 83.831C70.8903 84.0092 69.8951 83.7866 69.0895 83.8464C69.0022 83.6384 68.4327 83.7875 68.465 83.5062C67.3456 83.5569 66.126 83.2612 64.9748 82.7691C64.6853 82.6565 64.4144 82.5183 64.1236 82.3697C63.8725 82.242 63.5329 82.0423 63.5038 82.0016C63.391 81.861 63.3932 81.7611 63.6013 81.7598C63.4176 81.7436 63.1165 81.7008 62.748 81.6324C62.541 81.5837 62.312 81.5385 62.1108 81.498C61.8981 81.4412 61.6574 81.3797 61.6062 81.3425C61.676 81.3541 61.7876 81.3726 61.7934 81.3808C62.0049 81.3155 62.8141 81.4499 62.9036 81.3859C62.9563 81.4138 62.9951 81.4393 63.0199 81.4625C62.9873 81.3998 63.1966 81.4345 63.3221 81.4554C63.4477 81.4762 63.5209 81.5099 63.5476 81.3925L63.5941 81.4575C63.5941 81.4575 63.6359 81.3784 63.6708 81.3412C63.6848 81.4296 63.7023 81.54 63.6779 81.5574C63.7523 81.5411 64.0312 81.5014 64.194 81.4711L64.9065 81.3672L66.3164 81.121C67.251 80.9321 68.2134 80.7478 69.1537 80.567C70.2893 80.3327 71.4249 80.0983 72.5756 79.9022C73.3369 79.7634 74.118 79.6351 74.8887 79.5265L74.7586 79.6195L75.4826 79.3599C75.4815 79.4098 75.4548 79.4413 75.4141 79.4703C76.3883 79.4744 77.3436 79.0739 78.256 78.9745C78.2549 79.0245 78.1387 79.1199 78.2759 79.157C78.6222 78.9708 78.7966 79.0427 79.2674 79.0134C79.6557 79.0062 80.0288 78.9606 80.0426 78.7048C80.1065 78.7083 80.2624 78.8058 80.1892 78.8582C82.2174 78.4279 83.9947 78.1281 86.1299 77.8303C86.9668 77.7112 87.8758 77.5897 88.879 77.4624M89.238 79.0989C88.8964 79.3432 88.5629 79.5818 88.2236 79.8121C88.2723 79.6052 88.3106 79.418 88.4571 79.4853L88.428 79.3586C88.6894 79.1225 88.5419 79.4492 88.7964 79.341C88.872 79.2747 88.6952 79.1306 88.9148 79.0596C89.0219 79.192 89.1346 79.1606 89.2299 79.1047M72.2742 84.9127C72.8054 84.8647 73.3169 84.8063 73.8353 84.706C74.5467 84.7381 75.2419 84.6958 75.9184 84.5931C78.1885 84.2603 80.3559 83.3371 82.5422 82.8184C83.0941 82.3868 83.817 82.1771 84.5562 81.9557C81.5208 83.4875 78.6663 84.3611 76.0056 84.7151C74.7131 84.9019 73.4634 84.9596 72.2742 84.9127ZM63.7446 85.9481C64.2481 86.1535 64.7702 86.3334 65.3143 86.5097C64.7795 86.3636 64.2435 86.1814 63.7446 85.9481ZM61.8728 81.9387C62.3368 82.1233 62.7949 82.2997 63.217 82.4773C63.5937 82.6258 64.0147 82.8534 64.3229 83.1124C64.3601 83.1473 64.4194 83.1786 64.445 83.1972C63.5276 82.8084 62.645 82.3823 61.8589 81.9364M58.6443 83.3381C58.6443 83.3381 58.6071 83.3032 58.5897 83.2788C59.2502 83.7039 59.9782 84.1544 60.8085 84.5933C59.9632 84.2881 59.1388 83.9434 58.6443 83.3381ZM60.0966 78.3896C59.8571 78.3642 59.6316 78.3411 59.3944 78.3017C59.6757 78.2481 59.9628 78.2026 60.2383 78.1408L61.1892 78.1983L61.195 78.2064L60.0966 78.3896ZM57.25 78.8274C57.3615 78.7599 57.4603 78.7261 57.6034 78.7713L57.25 78.8274ZM54.8474 79.1811C55.2402 79.06 55.7074 78.9225 56.2026 78.7897C56.3932 78.764 56.5757 78.7441 56.7582 78.7242C56.7501 78.73 56.7257 78.7475 56.7117 78.7452C56.7943 78.8091 56.8734 78.8509 56.9431 78.8624L54.8474 79.1811ZM56.0555 77.8621L57.1622 77.9312C57.0518 77.9487 56.9368 77.9941 56.824 78.0255C56.8101 78.0232 56.774 78.0244 56.7601 78.0221L56.7845 78.0046C56.7845 78.0046 56.7345 78.0035 56.7205 78.0012L56.0974 77.8691C56.0974 77.8691 56.0718 77.8505 56.0497 77.854M55.2549 76.4676L55.1386 76.391C55.4325 76.1316 55.3501 76.4118 55.6174 76.2698C55.6848 76.2093 55.4488 76.1199 55.7033 76.0117C55.8347 76.1267 55.9393 76.101 56.0369 76.0312L55.119 76.7246C55.0132 76.6282 54.9945 76.4818 55.2549 76.4676ZM75.7879 69.4902C74.6579 69.3026 73.5653 69.494 72.4935 69.5598C72.1181 69.6193 71.7426 69.6788 71.3788 69.7546C69.4678 69.9534 67.6767 70.337 66.0728 70.8449C61.5249 72.2044 58.2806 74.3895 57.0071 75.325C56.9571 75.2378 56.8606 75.1716 56.6723 75.1834L56.7479 75.3751C56.5456 75.2985 56.6224 75.3543 56.5084 75.2637C56.1447 75.5115 55.9249 75.3245 55.6146 75.4235L55.6204 75.4316C55.5346 75.7758 55.0476 75.9888 54.7699 76.1506L54.5653 76.174C54.3549 76.1892 54.2888 76.3718 54.2923 76.4799C54.2796 76.5996 54.3099 76.6763 54.1122 76.5718C53.4674 77.1314 52.783 77.67 52.0011 78.2785C52.6184 78.3165 53.3217 78.3544 54.0029 78.3958C54.4457 78.2758 55.2073 78.4811 55.1757 78.1963C55.1665 78.2521 55.2095 78.2951 55.2665 78.3404C54.7539 78.4488 54.3285 78.5932 54.1496 78.7212C53.2938 78.4358 52.772 78.6 51.9338 78.5971C51.8351 78.6309 51.7095 78.696 51.4585 78.7404C52.3621 79.385 53.481 80.3305 54.4533 80.9507C54.4405 81.0704 54.6708 81.2377 54.8674 81.3921C54.9755 81.4746 55.0837 81.5571 55.0071 81.6734C56.9409 82.6754 58.9832 84.276 60.8499 85.6825C61.1905 85.6602 61.6158 85.5158 61.9669 85.4737C61.9762 85.504 61.9576 85.5296 61.9158 85.5226C62.2867 85.663 62.5113 86.0802 62.9252 86.1776C62.9252 86.1776 62.8907 86.1982 62.8218 86.2393C63.2252 86.2704 63.4928 86.7306 64.0055 86.7082L63.9939 86.7779L64.3136 86.7952C64.2822 86.8545 64.2463 86.9417 64.1602 86.9417C67.4986 88.2916 71.2848 88.3252 74.8756 88.1544L74.7373 88.2533L75.4346 88.025C75.4346 88.025 75.4091 88.0924 75.3766 88.1157C76.2822 88.1442 77.1922 87.8867 78.043 87.6839C78.0419 87.7339 77.9315 87.8374 78.0687 87.8745C78.1094 87.8454 78.1559 87.8245 78.2163 87.8059C78.7323 87.5475 79.1882 87.9099 79.3762 87.382C79.4018 87.4006 79.4576 87.4958 79.4042 87.5587C80.2759 87.3163 81.1301 86.9635 81.9913 86.6549C82.8444 86.3521 83.7323 86.0982 84.5574 85.7047C85.1395 85.1778 85.8496 84.8297 86.5817 84.4782C87.2824 84.0999 87.9762 83.6775 88.5408 83.1262L88.5931 83.1994C88.8604 82.9713 89.1694 82.7503 89.4785 82.5292C90.0072 82.1511 90.5592 81.8055 91.0983 81.4076C91.95 80.8107 92.861 80.2451 93.6581 79.589C94.1159 79.2492 94.5759 78.8095 94.9559 78.464C94.7651 78.3177 94.5453 78.1307 94.2894 77.9448L94.3952 77.8692C93.944 77.651 93.6707 77.4407 93.3799 77.2061C93.0891 76.9714 92.7995 76.6868 92.5273 76.4266C91.9655 75.8818 91.3816 75.3404 90.6293 75.0793L90.799 75.0071C90.5037 75.0585 90.1604 74.4926 89.9746 74.7484C89.9374 74.7136 89.8897 74.6985 89.8525 74.6637L89.7769 74.5579C89.7769 74.5579 89.7071 74.5463 89.6513 74.5371C89.0873 74.1782 88.5151 73.8252 87.9662 73.5047C87.7674 73.3642 87.5464 73.2271 87.2906 73.1273C87.2173 73.0937 87.1522 73.0542 87.0871 73.0147L87.144 72.974C87.0626 72.9461 86.9871 72.9264 86.8836 72.9021C86.6801 72.7894 86.4801 72.6989 86.2684 72.5921C86.2987 72.5827 86.3091 72.563 86.3789 72.5746C85.5739 71.8102 84.3462 71.6063 83.2975 71.2745L83.4845 71.1407C82.8894 71.1853 82.0067 70.6732 81.3092 70.5574L81.3649 70.4806L80.9988 70.4843L81.0347 70.3111C80.9173 70.2844 80.7859 70.2555 80.6743 70.2369C79.8837 70.077 79.1141 70.0496 78.341 69.9141L78.4246 69.7559C77.5563 69.8483 76.6366 69.5595 75.7461 69.5693L75.8112 69.5228L75.7879 69.4902Z" fill="#E77622"/>
<path d="M55.5507 75.4206C55.5507 75.4206 55.4763 75.4369 55.4112 75.4834C55.4844 75.4311 55.5204 75.4299 55.5507 75.4206Z" fill="#E77622"/>
<path d="M91.7734 51.1353C91.7734 51.1353 91.735 51.1504 91.7188 51.162C91.735 51.1504 91.7513 51.1388 91.7734 51.1353Z" fill="#E77622"/>
<path d="M77.7301 53.2122L77.7825 53.3714C77.7358 53.1343 78.0253 53.2469 77.8892 52.9877C77.9136 52.9703 77.9275 52.9726 77.9357 52.9668L78.017 52.9946C78.017 52.9946 78.0263 52.9388 78.0333 52.897C78.2053 52.8108 78.3796 52.7108 78.5597 52.6188C78.7038 52.6141 78.8328 52.571 78.9176 52.4489C78.942 52.4314 78.9641 52.4279 78.9804 52.4163L78.9851 52.4744C79.0199 52.4372 79.0408 52.3976 79.0757 52.3604C79.1221 52.3395 79.1628 52.3104 79.2233 52.2917C79.2535 52.2824 79.2558 52.2685 79.2814 52.287C79.2791 52.301 79.2965 52.3254 79.2779 52.351C79.7872 52.5646 79.988 52.003 80.3634 51.8574L80.3891 52.048C80.4912 51.7783 80.8935 51.8594 81.1014 51.6861L81.1154 51.7744L81.1932 51.6081L81.2514 51.7755C81.5618 51.6765 81.8209 51.4543 82.1254 51.3471L82.1417 51.5075C82.3577 51.1563 82.7519 51.3293 83.032 51.1536L83.0227 51.2094C83.5888 51.1242 84.1118 50.9099 84.6324 50.7097C85.8843 50.5519 87.2141 50.486 88.637 50.5502C88.4895 50.6189 88.3523 50.6678 88.221 50.7248C88.2234 50.8829 87.963 50.811 88.1317 51.0469C87.9397 50.7785 87.6654 50.7903 87.5643 50.838C87.5549 50.8078 87.5596 50.7799 87.5735 50.7822C87.2525 50.4709 87.4855 51.2263 87.1446 50.8185C87.2448 51.1649 86.7924 50.8245 86.8508 51.25C86.8042 51.1849 86.7658 51.114 86.7611 51.0559C86.4566 51.163 86.0765 51.1644 85.8103 51.2564C85.7118 51.6343 85.2268 51.3173 85.1899 51.7986C85.0086 51.7684 84.6958 51.7094 84.5425 51.9419L84.5437 51.892C84.3031 52.0025 84.0102 52.126 83.9349 52.4503C83.7149 52.0913 83.6383 52.2076 83.486 52.1321C83.3966 52.3681 83.0328 52.4439 82.8469 52.6998C82.7387 52.5313 82.6773 52.858 82.5632 52.5953C82.0557 53.3641 81.12 53.5169 80.226 53.4187C80.1982 53.5861 80.1938 53.8721 80.1648 54.0895C80.1742 54.1197 80.1637 54.1395 80.1614 54.1534C80.1439 54.129 80.1404 54.1069 80.1567 54.0953C80.0428 54.1767 79.8172 53.9816 79.7068 54.0851C79.6928 54.0541 79.689 54.02 79.6951 53.9828C79.6092 54.1549 79.3475 53.8749 79.2756 54.1354L79.2348 54.0785L79.178 54.2052C79.1616 54.1308 79.1174 54.0518 79.1383 54.0123C77.9458 54.3734 76.9153 55.2703 75.7042 55.657L75.7065 55.557L75.523 55.7989C75.523 55.7989 75.5148 55.7187 75.5171 55.7048C75.1637 55.6748 74.9535 56.0341 74.6478 56.1052C74.6246 56.0727 74.6431 55.9611 74.5757 55.9356C74.4608 56.239 74.1233 55.7673 74.2016 56.2892C74.176 56.2706 74.1341 56.1776 74.1433 56.1218C74.0864 56.1625 74.0318 56.1893 73.9795 56.2021C73.9946 56.1545 74.0155 56.1149 74.0247 56.0591L74.0771 56.1323C74.3858 55.3951 75.1959 55.1354 75.7292 54.6433C75.9906 54.4932 76.0916 54.2734 76.338 54.0849L76.4078 54.1825C76.5887 53.5245 77.5305 53.8959 77.7359 53.2203M88.1122 51.4666L84.1491 52.9733C84.2897 52.8605 84.4326 52.7337 84.5674 52.6127C85.5926 52.4818 86.3081 51.5398 87.3916 51.6623C87.5588 51.432 87.8227 51.44 88.1122 51.4666ZM89.623 50.8286C89.623 50.8286 89.552 50.6089 89.645 50.653C89.7113 50.8146 89.759 50.8296 89.8032 50.8226L89.7125 50.8506C89.7125 50.8506 89.6986 50.8483 89.6707 50.8436C89.6707 50.8436 89.6645 50.8522 89.6521 50.8692L89.3999 50.9636C89.3975 50.8055 89.3927 50.6613 89.4777 50.7973L89.4485 50.6706C89.5403 50.5926 89.5056 50.8019 89.6114 50.8123M75.5508 61.201C75.9378 60.9857 76.2992 60.8378 76.6838 60.5504C77.022 60.37 77.1811 60.1456 77.4983 59.9187L77.5681 60.0163C77.8606 59.2907 78.9233 59.6248 79.2111 58.8411L79.2635 59.0004C79.2169 58.7632 79.5657 58.8211 79.4272 58.576L79.4841 58.5352L79.5655 58.5631C79.5655 58.5631 79.5829 58.5015 79.5899 58.4596L80.215 58.0616C80.358 58.0209 80.5114 57.9603 80.6112 57.7905L80.6763 57.744L80.6926 57.8184C80.7158 57.7649 80.7507 57.7277 80.7937 57.6846L80.9726 57.5566C80.9726 57.5566 81.011 57.5415 81.0307 57.552C81.0284 57.5659 81.0459 57.5903 81.0389 57.6322C81.6412 57.7178 81.836 57.062 82.2579 56.8095L82.3056 56.9966C82.3868 56.6804 82.8645 56.6092 83.0701 56.3638L83.0923 56.4463L83.1724 56.2661L83.2713 56.4043C83.6059 56.2019 83.8417 55.8611 84.1671 55.6284L84.2357 55.776C84.3877 55.3353 84.8934 55.3548 85.1466 55.0384L85.1513 55.0965C85.7835 54.7427 86.2645 54.2635 86.7896 53.7772L91.297 50.8484C91.626 50.8959 91.9643 50.9736 92.2968 51.0431C92.1737 51.1803 91.9121 51.0724 91.7528 51.1248C91.7528 51.1248 91.7668 51.1271 91.7784 51.1434C91.9239 51.3467 91.7391 51.3806 91.674 51.4271L91.5705 51.4028C91.3484 51.3157 91.8254 51.8106 91.523 51.5597C91.4046 51.9271 91.1817 52.3202 90.9552 52.6912C91.0483 52.8213 90.7554 52.9447 91.0496 53.0294C90.7194 52.9459 90.4684 53.1623 90.4162 53.2611C90.3906 53.2425 90.3673 53.21 90.3755 53.2042C89.9104 53.1557 90.5373 53.654 90.006 53.5299C90.2828 53.7622 89.7144 53.7754 89.9529 54.1089C89.8715 54.081 89.818 54.0578 89.775 54.0148C89.5438 54.3277 89.1604 54.5651 88.949 54.8023C89.0236 55.2161 88.4191 55.2305 88.5926 55.6965C88.3928 55.778 88.0383 55.884 87.9792 56.1968L87.9501 56.1561C87.7608 56.3899 87.5122 56.6783 87.5542 57.0294C87.1972 56.8052 87.1601 56.9424 86.9683 56.9321C86.944 57.2076 86.5908 57.4357 86.469 57.781C86.3154 57.6695 86.3215 58.0217 86.1342 57.8114C85.7919 58.794 84.7437 59.3224 83.737 59.4276C83.7244 59.6334 83.7664 59.9845 83.7398 60.1879C83.7224 60.1635 83.6991 60.131 83.7235 60.1135C83.5945 60.2426 83.3201 60.0824 83.1993 60.2057C83.1799 60.1786 83.1733 60.1464 83.1795 60.1092C83.0912 60.2953 82.7842 60.0723 82.71 60.3466L82.6634 60.2816L82.6101 60.4304C82.5716 60.3595 82.5204 60.2363 82.553 60.2131C81.2141 60.7649 79.9127 61.6957 78.3796 61.9071L78.4237 61.8141L78.1471 62.0119C78.1471 62.0119 78.1506 61.9479 78.1634 61.9142C77.775 61.8354 77.416 62.1414 77.0382 62.1288C77.0452 62.087 77.0893 61.994 77.0265 61.9405C76.9092 62.0859 76.7847 62.0151 76.6836 61.9768C76.6363 61.945 76.5914 62.014 76.5488 62.1838C76.5488 62.1838 76.5639 62.0501 76.579 62.0024C76.2245 62.1944 75.5782 62.2018 75.4328 62.0845C75.2213 62.1497 75.0481 62.1998 74.8877 62.2162C74.761 62.2454 74.6645 62.2652 74.5704 62.2711C74.3879 62.2909 74.1112 62.3167 74.3192 62.2294C74.5447 62.0804 74.7434 61.9629 74.5515 61.8665L74.6317 61.8583L74.77 61.8455C74.6955 61.6897 75.1441 61.4058 75.5369 61.1986M92.5003 51.0697L92.5236 51.1022C92.5236 51.1022 92.4619 51.0848 92.4363 51.0663L92.5003 51.0697ZM92.4122 51.5138L92.1463 51.9499C92.0532 51.8198 91.9718 51.7059 92.1206 51.7593L92.0206 51.671C92.0658 51.528 92.1531 51.736 92.2589 51.6604C92.2658 51.6185 92.0658 51.528 92.1785 51.4965C92.3251 51.5639 92.3832 51.5592 92.418 51.522M91.237 53.4117C90.165 54.9899 89.0604 56.3332 87.9172 57.4337C88.0298 57.2302 88.1424 57.0267 88.233 56.8267C88.7431 56.4741 89.1008 55.9601 89.4306 55.4414C89.7663 54.9309 90.1228 54.4668 90.6609 54.1189C90.6804 53.7852 90.9407 53.5991 91.2347 53.4257M85.339 59.5359C85.339 59.5359 85.3773 59.5208 85.4052 59.5254C85.0636 59.7697 84.729 59.9722 84.3966 60.1607C84.6696 59.8548 84.9333 59.5187 85.3308 59.5417M79.6684 65.0671C79.0316 65.3627 78.3575 65.5375 77.7506 65.3938C78.3747 65.3039 78.9931 65.2058 79.6684 65.0671ZM81.5446 53.9387L81.6004 53.9479L80.6904 54.2914C80.9518 54.0553 81.1993 53.8168 81.5446 53.9387ZM79.0459 54.9144C79.2667 54.7934 79.4747 54.706 79.7118 54.6594L79.0459 54.9144ZM67.0428 63.2291L66.8313 63.3803C66.8835 63.2815 66.9544 63.2431 67.0428 63.2291ZM70.6233 65.2786C69.8606 65.0372 69.0828 64.8436 68.3003 64.6779C67.4586 64.4808 66.3378 64.2374 65.4018 63.9601C65.7284 63.7635 66.0735 63.5412 66.4419 63.3515C66.4837 63.3584 66.5151 63.3852 66.5407 63.4037L66.5524 63.506L66.6186 63.4955L66.5663 63.4223C66.5663 63.4223 66.6639 63.4385 66.6977 63.4513L66.0481 63.8667L69.0955 64.7239C69.7396 64.9025 70.6011 65.11 71.6579 65.264C71.3115 65.2781 70.9732 65.2865 70.6094 65.2762M65.8454 63.188L65.8488 63.124C65.8488 63.124 65.8861 63.1589 65.9035 63.1833C65.8896 63.181 65.8617 63.1763 65.8454 63.188ZM77.4548 49.9051L77.4221 49.7563C76.9365 50.2635 76.1683 50.4442 75.628 50.8921L75.6314 50.8281C74.8319 51.2401 74.2057 51.8601 73.5632 52.4058C73.3437 52.6488 73.1043 52.8815 72.8708 53.1223C71.8566 54.0076 70.9678 54.9137 70.2302 55.7732C68.8258 57.4539 67.9386 58.9122 67.552 59.6437L65.945 62.5881C65.874 62.5404 65.7822 62.4463 65.9471 62.316C65.8297 62.2894 65.4334 62.4745 65.5626 62.6894C65.6104 62.8766 65.5861 63.0661 65.6792 63.1962C65.6152 63.1928 65.5652 63.1916 65.5338 63.1649C65.004 63.507 64.3997 63.8654 63.8303 64.1866C64.521 64.4303 65.1581 64.6508 65.7604 64.8225C67.0159 64.8589 68.1742 65.6533 68.5483 65.2996C68.86 65.4947 69.4263 65.8396 69.9901 65.7684L69.925 65.8149C70.5168 65.9203 71.2562 66.0431 71.7013 65.8231C71.8155 66.2578 72.0747 66.2076 72.3189 66.3772C72.7466 66.2188 73.543 66.3869 74.1672 66.2109C74.2487 66.4108 74.6588 66.142 74.6846 66.4187C75.5667 66.1566 76.5315 66.0444 77.5254 65.9728C78.4647 65.9281 79.4214 65.9077 80.3385 65.8664C80.5174 65.6524 80.6974 65.3024 80.8809 65.0605C80.9065 65.0791 80.9018 65.107 80.8774 65.1244C81.1761 65.0092 81.5273 65.1391 81.8364 65.0041C81.8364 65.0041 81.8283 65.0386 81.8121 65.1076C82.0549 64.897 82.4921 65.1129 82.7674 64.7931L82.814 64.8582L82.9999 64.6883C83.0162 64.7627 83.036 64.8592 82.9872 64.8941C85.7173 63.9496 87.9421 61.9034 90.0519 59.9886L90.0288 60.1281L90.3261 59.6327C90.3261 59.6327 90.3587 59.6955 90.3459 59.7292C90.6562 59.5442 90.9164 59.272 91.1429 58.987C91.3438 58.6835 91.5389 58.3718 91.7747 58.1171C91.8038 58.1578 91.8027 58.2938 91.9038 58.246C92.0523 57.6973 92.6975 57.8259 92.4496 57.2901C92.4914 57.2971 92.5903 57.3493 92.5868 57.4133C93.0201 56.8329 93.3568 56.1864 93.7703 55.5956C94.1663 54.9804 94.6251 54.4186 95.0048 53.815C95.1761 52.5246 96.2171 51.6079 96.4383 50.3186L96.5174 50.3604C96.6531 49.9313 96.7691 49.5779 96.9456 49.2058C95.6248 48.8718 94.4632 48.3994 93.2018 48.1828C92.5495 48.01 92.0845 47.9615 91.3835 47.9096L91.388 47.7957C90.1944 48.1208 88.9905 47.0393 87.7517 47.5934L87.8353 47.4353C87.6622 47.6574 87.2099 47.4031 87.1659 47.6682C87.1159 47.6671 87.0717 47.6741 87.0159 47.6648L86.9426 47.6311C86.9426 47.6311 86.8961 47.6521 86.8636 47.6753C86.3533 47.6838 85.8686 47.7109 85.3873 47.76C85.2036 47.7438 84.9956 47.7451 84.798 47.8127C84.6957 47.8244 84.6073 47.8384 84.5132 47.8442L84.5376 47.8268C84.4795 47.8315 84.433 47.8524 84.3667 47.8629C84.1761 47.8886 83.9855 47.9143 83.7925 47.954C83.7867 47.9458 83.7786 47.9516 83.7507 47.947C83.789 47.9319 83.7658 47.8993 83.8262 47.8807C82.9204 47.5941 82.0885 48.2875 81.2284 48.4601L81.2829 48.2613C80.9321 48.5614 80.1416 48.6596 79.6315 48.9261L79.6314 48.8401L79.4107 49.0471L79.3385 48.8775C78.6237 49.0814 78.0939 49.5955 77.4408 49.9028" fill="#E77622"/>
<path d="M83.5364 29.8555C83.7434 30.0763 83.276 29.9557 83.5285 30.2915C83.4494 30.2497 83.3901 30.2183 83.3494 30.1614C83.167 30.3533 82.8881 30.479 82.7324 30.6395C82.8326 30.9859 82.3269 30.8804 82.5457 31.2895C82.3969 31.3221 82.1098 31.3677 82.1204 31.606L82.0913 31.5653C81.9752 31.7467 81.8103 31.963 81.9278 32.2478C81.5871 32.012 81.5744 32.1317 81.4186 32.1202C81.4734 32.3515 81.2375 32.5202 81.2272 32.7981C81.0574 32.6982 81.1669 32.9887 80.9552 32.7959C80.9511 33.598 80.3189 34.0378 79.5983 34.2336C79.6624 34.4091 79.8381 34.6891 79.9359 34.8774C79.9103 34.8588 79.8649 34.8298 79.8893 34.8123C79.8545 34.9356 79.5708 34.8311 79.5279 34.9602C79.5279 34.9602 79.5104 34.9358 79.4755 34.887C79.4919 35.0474 79.157 34.9058 79.2374 35.1557L79.1908 35.0906L79.1956 35.2347C79.1409 35.1755 79.0525 35.1035 79.0769 35.086C78.3473 35.7677 78.0248 36.8467 77.2883 37.5702L77.2603 37.4795L77.2465 37.7353C77.2093 37.7004 77.1977 37.6842 77.1942 37.6621C76.9059 37.7576 76.9259 38.1121 76.7261 38.2797C76.697 38.239 76.6528 38.16 76.597 38.1507C76.6099 38.289 76.5436 38.2995 76.4553 38.3135C76.548 37.8415 76.9302 37.4821 77.0764 37.0333C77.2332 36.8228 77.2075 36.6321 77.3108 36.3984L77.4096 36.4507C77.2128 35.8661 78.1684 35.8957 77.9983 35.2797L78.0925 35.3598C77.9878 35.2134 78.24 35.2051 78.0214 35.0541C78.0237 35.0402 78.04 35.0285 78.0365 35.0065L78.1225 35.0064C78.1225 35.0064 78.1015 34.9599 78.0841 34.9355C78.1851 34.8018 78.2583 34.6634 78.3593 34.5296C78.4581 34.4959 78.5359 34.4156 78.551 34.2819C78.5591 34.2761 78.5696 34.2563 78.5858 34.2447L78.6149 34.2854L78.6334 34.1737C78.6334 34.1737 78.6834 34.0889 78.7101 34.0575C78.724 34.0598 78.7345 34.04 78.7426 34.0342C78.7601 34.0586 78.7798 34.069 78.7892 34.0993C79.2751 34.1082 79.1667 33.5957 79.3723 33.3502L79.4828 33.5048C79.4129 33.2351 79.7744 33.1733 79.8254 32.9524L79.8777 33.0256L79.8695 32.8594L79.9928 32.9802C80.181 32.7964 80.2354 32.5116 80.4295 32.3359L80.5225 32.466C80.513 32.0917 80.8966 32.1124 80.9965 31.8566L81.0372 31.9135C81.4009 31.6657 81.6634 31.2935 81.9537 30.926C82.458 30.5653 83.0007 30.1895 83.5782 29.8625M83.7421 29.7822C83.77 29.8728 83.8061 29.9577 83.5863 29.8567C83.6328 29.8357 83.6898 29.795 83.7421 29.7822ZM83.9361 29.6925C84.0663 29.5995 84.2057 29.5366 84.3475 29.4598C84.3673 29.5562 84.2104 29.5947 84.4337 29.7178C84.1965 29.5924 84.0094 29.6402 83.9361 29.6925C83.9117 29.71 83.9094 29.7239 83.9013 29.7298L83.8838 29.7054C83.8838 29.7054 83.9164 29.6821 83.9303 29.6844M85.3004 28.9872C85.3539 29.0104 85.3947 29.0674 85.447 29.0545C85.4493 29.0406 85.4004 28.9895 85.3713 28.9488C85.3795 28.943 85.3957 28.9313 85.4178 28.9278C85.5062 28.9999 85.5399 29.0126 85.5725 28.9894L85.3587 29.2406C85.2738 29.1046 85.1982 28.9989 85.3226 29.0697L85.2586 28.9803C85.2586 28.9803 85.2888 28.9709 85.2969 28.9651M84.6222 30.0501L82.3605 32.5776C82.4057 32.4346 82.451 32.2916 82.4927 32.1265C83.2085 31.7006 83.2637 30.6776 84.1633 30.4399C84.1713 30.176 84.3828 30.1107 84.6222 30.0501ZM80.4229 34.7504C80.4971 34.476 80.5818 34.1818 80.9038 34.1851C80.9119 34.1793 80.9282 34.1676 80.9421 34.17L80.4229 34.7504ZM79.4889 35.7995C79.5806 35.6355 79.6979 35.4902 79.8606 35.3738L79.4889 35.7995ZM87.9828 27.9416C87.9178 28.0742 87.6934 28.0871 87.5691 28.1883C87.5691 28.1883 87.5772 28.1825 87.5993 28.179C87.8075 28.2637 87.6692 28.3626 87.6297 28.4277L87.5332 28.4476C87.3007 28.4663 87.9449 28.6449 87.5682 28.5824C87.6428 28.9102 87.6163 29.2857 87.5863 29.6391C87.727 29.6983 87.5283 29.9018 87.8236 29.8505C87.4981 29.9111 87.3925 30.1588 87.3821 30.2646C87.3565 30.246 87.3344 30.2495 87.3286 30.2414C86.8974 30.3777 87.6845 30.5155 87.1498 30.6274C87.4882 30.7051 86.9989 30.9321 87.3954 31.0911C87.3071 31.1051 87.2431 31.1017 87.1815 31.0843C87.1143 31.4028 86.9052 31.7122 86.8415 31.9668C87.1009 32.2608 86.5837 32.4831 86.9571 32.7816C86.8339 32.9189 86.583 33.1353 86.6912 33.3898L86.6621 33.3491C86.5961 33.6177 86.5311 33.9223 86.7371 34.193C86.3185 34.1235 86.3535 34.2584 86.192 34.3247C86.313 34.5455 86.1342 34.8456 86.2111 35.1594C86.0158 35.127 86.2019 35.3872 85.9438 35.3014C86.142 36.1801 85.5519 36.9709 84.7978 37.412C84.8897 37.5921 85.0922 37.8408 85.1899 38.029C85.176 38.0267 85.1364 38.0058 85.1411 37.9779C85.1075 38.1372 84.8064 38.0944 84.7611 38.2374C84.7611 38.2374 84.7409 38.2149 84.7006 38.17C84.7263 38.3606 84.3543 38.2702 84.4404 38.5282L84.3753 38.4887L84.394 38.6352C84.3231 38.5876 84.2091 38.497 84.2637 38.4702C83.4808 39.3867 82.9503 40.639 81.8883 41.4232L81.8766 41.3209L81.7722 41.6046C81.7722 41.6046 81.7396 41.5419 81.7442 41.514C81.3595 41.6293 81.4213 41.9048 81.2214 41.9863C81.2225 41.9363 81.2271 41.8224 81.2143 41.7701C81.1076 42.1537 81.1722 41.419 81.0053 42.1654C80.996 42.1352 81.0377 41.9701 81.0633 41.9027C80.7822 42.3004 80.3104 42.5518 80.208 42.4775C79.913 42.7869 79.6806 42.9777 79.5098 43.0999C79.3634 43.2046 79.1844 43.3326 79.2901 43.1709C79.4086 42.9755 79.5084 42.8057 79.2353 42.9396L79.4294 42.7639C79.2306 42.7955 79.4512 42.4164 79.6731 42.0733C79.917 41.7267 80.1655 41.4383 80.2758 41.1627C80.4384 40.9603 80.4499 40.7185 80.6043 40.4359L80.7194 40.4765C80.5911 39.7815 81.6257 39.6808 81.4799 38.9614L81.5857 39.0578C81.4578 38.8788 81.7472 38.8194 81.5088 38.6579L81.5238 38.6103L81.6122 38.5962C81.6122 38.5962 81.5912 38.5498 81.59 38.5137L81.8943 37.9765C82.0023 37.8869 82.0906 37.7869 82.1045 37.6171L82.1219 37.5555L82.1626 37.6124C82.1626 37.6124 82.1811 37.5008 82.1857 37.4729L82.2775 37.309C82.2775 37.309 82.296 37.2834 82.3123 37.2717C82.3216 37.302 82.3356 37.3043 82.3507 37.3426C82.89 37.2028 82.7234 36.6089 82.9417 36.2437L83.0825 36.3889C82.987 36.1007 83.346 35.8808 83.3842 35.6076L83.4552 35.6552L83.419 35.4843L83.5772 35.5679C83.7479 35.2737 83.7802 34.9063 83.9207 34.6214L84.0544 34.7225C83.9577 34.3122 84.3854 34.1538 84.4433 33.8051L84.4724 33.8457C84.8057 33.3491 84.9785 32.7829 85.1572 32.2248L87.5016 28.0768C87.669 28.0185 87.834 27.9742 88.0014 27.916M88.3666 28.2204C88.3515 28.354 88.3505 28.4901 88.3413 28.6319C88.2006 28.5727 88.0599 28.5135 88.2121 28.5029L88.0947 28.4763C88.0574 28.3554 88.2389 28.4715 88.2969 28.3808C88.2737 28.3483 88.0574 28.3554 88.133 28.2891C88.305 28.289 88.3538 28.2541 88.3584 28.2262M87.2673 34.3671C87.266 34.159 87.2542 33.9707 87.2448 33.7684C87.7859 32.8404 87.3714 31.7107 88.0137 30.821C87.8775 30.5619 88.025 30.3212 88.2085 30.0793C88.0107 31.6592 87.6943 33.0904 87.2673 34.3671ZM86.1634 36.9147L86.2203 36.874C86.0612 37.1845 85.8929 37.4648 85.7082 37.7567C85.7743 37.4021 85.8287 37.0312 86.1634 36.9147ZM72.1297 45.6736L72.0123 45.6469C71.9714 45.418 72.1587 45.6282 72.2028 45.4492C72.1865 45.3748 71.9714 45.418 72.0423 45.2935C72.2085 45.2853 72.2619 45.2225 72.2677 45.1446L72.2461 45.9223C72.0984 45.8189 71.9682 45.74 72.1216 45.6794M76.4554 38.4856C76.4554 38.4856 76.4635 38.4798 76.4577 38.4716L76.4868 38.5123C76.4868 38.5123 76.4612 38.4937 76.4554 38.4856ZM82.3975 45.1777C81.934 45.5953 81.4739 46.035 80.8973 46.054C80.8892 46.0598 80.859 46.0691 80.8229 46.0703C81.3331 45.8038 81.856 45.5035 82.3917 45.1696M84.0823 43.9235C84.3693 43.7059 84.6714 43.4407 84.9433 43.1848C84.697 43.4593 84.3949 43.7245 84.0823 43.9235ZM79.5903 28.928L79.5624 28.8374L79.4567 29.0851L79.3334 28.9642C78.8536 29.3935 78.4552 29.8506 78.0625 30.3158L77.9636 30.1776C77.7815 30.7996 77.1191 31.0767 76.8149 31.614L76.7985 31.5396C76.1016 32.37 75.5988 33.2829 75.1693 34.2294C72.6657 38.5159 72.3243 42.8173 72.295 44.289C72.1753 44.2763 72.0788 44.2961 71.9743 44.4078L72.1731 44.4623C71.9732 44.5438 72.0697 44.5239 71.9232 44.5426C71.8885 44.8379 71.6177 44.8718 71.4888 45.087C71.4888 45.087 71.4969 45.0811 71.5027 45.0893C71.7214 45.2403 71.5948 45.4414 71.5484 45.5484L71.4496 45.5822C71.2241 45.6451 71.8718 45.9318 71.4858 45.8391C71.5699 46.4551 71.5622 47.1491 71.5428 47.8269C71.651 47.9093 71.5791 48.1698 71.664 48.2197L71.5001 48.214L71.6489 48.2674C71.6489 48.2674 71.6675 48.2418 71.6838 48.2302L71.7489 48.2697L71.7245 48.2871L71.6547 48.2755C71.5363 48.4709 71.4283 48.6465 71.3121 48.8279C71.3634 49.0371 71.137 49.4081 70.8815 49.8244C71.3453 49.7509 71.8893 49.6692 72.5261 49.2875C72.8957 49.3059 73.828 49.3029 74.6625 48.9397L74.5811 48.9979C75.1379 48.8825 75.2529 48.837 75.5412 48.7415C75.7876 48.6391 76.0165 48.5122 76.1663 48.3436C76.3921 48.7108 76.6129 48.5897 76.8536 48.6512C77.1382 48.3616 77.8333 48.2332 78.2771 47.8912C78.4237 48.0446 78.6641 47.6759 78.7863 47.9327C80.0016 46.916 81.638 46.2988 83.193 45.7398C83.2708 45.4875 83.2775 45.1016 83.3354 44.8388C83.3657 44.8295 83.3843 44.8899 83.3518 44.9132C83.5586 44.7038 83.9469 44.7826 84.1362 44.5489C84.1556 44.576 84.1634 44.6155 84.1595 44.6674C84.2896 44.4023 84.722 44.4741 84.8264 44.1043L84.8916 44.1438L84.9844 43.9299C85.0251 43.9868 85.0856 44.0542 85.0682 44.1158C87.0086 42.5313 88.2114 40.2079 89.3551 38.0252L89.3924 38.1461L89.456 37.6334C89.4932 37.6682 89.5025 37.6985 89.5141 37.7147C89.9253 37.2239 89.9749 36.5369 90.1756 35.9753C90.2233 35.9903 90.2687 36.1054 90.3419 36.053C90.2474 35.5428 90.8833 35.4691 90.4715 35.0997C90.4959 35.0823 90.6052 35.1147 90.6378 35.1775C90.7839 34.5566 90.8718 33.9405 91.004 33.3173C91.1059 32.7035 91.3415 32.1046 91.4376 31.4826C91.0521 30.3936 91.7233 29.2865 91.3239 28.1952L91.4216 28.2114C91.3084 27.6407 91.2953 27.0723 91.3344 26.491L91.3862 25.618L91.4111 24.6043C91.1123 24.5475 90.7915 24.4942 90.4904 24.4514C90.2276 24.3935 90.0579 24.3796 89.8126 24.3461C89.4604 24.4381 89.2501 24.5394 88.8874 24.6512L88.8502 24.5303C87.9997 25.2493 86.6496 24.6166 85.8411 25.5145L85.8631 25.339C85.7993 25.5936 85.3471 25.5114 85.4135 25.7589C85.367 25.7799 85.3228 25.7869 85.2763 25.8078L85.2287 25.7928C85.2287 25.7928 85.1938 25.83 85.1892 25.8579C84.7894 26.0209 84.4117 26.1804 84.0398 26.348C83.8469 26.3877 83.647 26.4692 83.4657 26.6111C83.425 26.6402 83.3623 26.6728 83.31 26.6856L83.3169 26.6437C83.2763 26.6728 83.2437 26.6961 83.217 26.7275C83.0532 26.8078 82.8951 26.8963 82.7394 26.9708C82.7417 26.9568 82.7463 26.9289 82.7731 26.8975C81.9116 26.862 81.4449 27.6877 80.8174 28.0996L80.7859 27.9008C80.6048 28.3008 79.9086 28.4791 79.6089 28.9025" fill="#E77622"/>
<path d="M83.1719 45.8154C83.1719 45.8154 83.1754 45.8375 83.1672 45.8433L83.1719 45.8154Z" fill="#E77622"/>
<path d="M71.4124 45.2392C71.4124 45.2392 71.4356 45.1857 71.4461 45.166C71.41 45.1672 71.4229 45.2195 71.4124 45.2392Z" fill="#E77622"/>
<path d="M52.1154 20.7688L52.1443 20.6374C52.3734 20.7686 52.17 20.8281 52.3038 21.0151C52.3654 21.0325 52.3816 20.7628 52.491 20.9673C52.4353 21.1301 52.4714 21.215 52.5458 21.2847L51.9329 20.7887C51.9921 20.648 52.0606 20.5375 52.1154 20.7688ZM49.1801 26.2738C48.6603 27.7644 48.3275 29.2073 48.1529 30.5617C48.1224 30.2269 48.1118 29.9026 48.1057 29.5504C48.4781 28.3865 48.6261 27.1495 48.9904 25.9915C49.2039 25.3101 49.4883 24.6764 49.9436 24.0925C49.9922 23.6275 50.3011 23.2344 50.6357 22.8599C50.0412 24.0227 49.5572 25.1681 49.1964 26.2622M52.7228 25.3997L52.8333 25.4682C52.824 25.6101 52.6902 25.423 52.6124 25.5033C52.6101 25.5172 52.6833 25.5509 52.7206 25.5857L52.6101 25.6032C52.6101 25.6032 52.5404 25.5916 52.516 25.6091C52.5508 25.4859 52.6135 25.3672 52.6704 25.2405C52.7762 25.3369 52.8797 25.4473 52.7286 25.4079M52.4651 26.002C52.6325 26.0298 52.5988 26.0171 52.6604 26.0345C52.7604 26.1228 52.8465 26.2087 52.9384 26.3028C53.086 26.2342 53.128 26.4992 53.2639 26.2422C53.1013 26.5306 53.2398 26.7758 53.3224 26.8397C53.298 26.8571 53.2654 26.8804 53.2642 26.8443C53.1006 27.2687 53.7047 26.7383 53.4656 27.229C53.7328 27.001 53.5925 27.5439 53.9713 27.3345C53.9295 27.4135 53.8865 27.4566 53.8296 27.4973C54.0344 27.732 54.1683 28.0911 54.3416 28.2991C54.7403 28.2721 54.5698 28.8244 55.0405 28.709C55.0743 28.8938 55.0932 29.2123 55.3675 29.2865L55.2932 29.3029C55.4851 29.4852 55.6689 29.7595 55.9932 29.7488C55.6982 30.0582 55.8214 30.093 55.7797 30.2581C56.0227 30.3056 56.1937 30.6136 56.4624 30.7657C56.3171 30.9064 56.6473 30.9039 56.4056 31.0645C57.2533 31.4417 57.5038 32.3936 57.4102 33.2597C57.5916 33.2899 57.9159 33.2792 58.1391 33.3162C58.1147 33.3337 58.0845 33.343 58.0729 33.3268C58.1741 33.4511 57.9592 33.6663 58.0685 33.7848C58.0685 33.7848 58.0371 33.7867 57.9743 33.7906C58.1383 33.8824 57.8769 34.1185 58.1129 34.2079L58.0479 34.2544L58.1746 34.3113C58.0944 34.3195 58.0154 34.3637 57.9759 34.3428C58.2695 35.5098 58.9271 36.6869 58.9139 37.975L58.8209 37.9308L58.9954 38.1749C58.9954 38.1749 58.9257 38.1633 58.892 38.1505C58.7608 38.4656 58.9993 38.7991 58.9542 39.1142C58.8984 39.1049 58.8135 39.055 58.7705 39.098C58.8961 39.2049 58.8137 39.313 58.7544 39.3677C58.7033 39.4166 58.6917 39.4003 58.9475 39.5001C58.9172 39.5094 58.8161 39.4711 58.7684 39.456C58.8126 39.5351 58.8325 39.6315 58.8383 39.7257C58.8839 40.0128 58.8027 40.329 58.7248 40.4093C58.8601 41.0625 58.8115 41.3555 58.757 41.5543C58.7326 41.6578 58.6966 41.745 58.6828 41.9147L58.6632 42.2484L58.6553 42.5123L58.6461 42.6541L58.6098 42.3112C58.5647 42.6263 58.4063 42.1986 58.2898 41.7778C58.1698 41.335 58.0893 40.9131 57.9647 40.6702C57.9053 40.3808 57.7681 40.3437 57.6505 40.0589L57.7388 39.9589C57.1888 39.7744 57.7288 38.8104 57.0962 38.476L57.2566 38.4596C57.0043 38.4679 57.1855 38.1539 56.9007 38.2715L56.8716 38.2308L56.9193 38.1599C56.8937 38.1413 56.8658 38.1367 56.8402 38.1181L56.6213 37.537C56.6363 37.4033 56.6013 37.2685 56.492 37.15L56.4513 37.093L56.5233 37.0907C56.4861 37.0558 56.4512 37.007 56.4175 36.9942L56.3534 36.8188C56.3534 36.8188 56.3302 36.7862 56.3546 36.7688C56.3685 36.7711 56.3929 36.7536 56.4243 36.7803C56.4835 36.6397 56.4904 36.5118 56.4531 36.3909C56.3693 36.1189 56.0681 35.9041 55.9702 35.6298L56.1609 35.6041C55.8853 35.4938 55.9466 35.0811 55.7593 34.8708L55.8477 34.8568L55.6895 34.7732L55.8511 34.7069C55.7404 34.3803 55.488 34.1305 55.3507 33.8353L55.5215 33.7992C55.1378 33.6064 55.2875 33.1797 55.0595 32.9125L55.1234 32.9159C54.9545 32.336 54.6333 31.8526 54.3168 31.3413L52.364 26.0498C52.4512 26.0858 52.5384 26.1217 52.6488 26.1042L52.479 26.0044L52.4651 26.002ZM53.1524 41.1615L53.135 41.1371C53.135 41.1371 53.1605 41.1557 53.1908 41.1463C53.1826 41.1522 53.1605 41.1557 53.1524 41.1615ZM52.967 36.5361L53.0406 37.0859C52.9765 36.9104 52.9427 36.7256 52.967 36.5361ZM52.737 34.9425L52.8479 35.6992C52.6792 35.4633 52.5244 35.2298 52.7161 34.982C52.7242 34.9762 52.7346 34.9564 52.7428 34.9506M52.4133 39.6984C52.3527 39.459 52.1771 39.351 52.0863 39.1208L52.2013 39.0754C51.6304 38.8445 52.2647 38.1326 51.6763 37.8772L51.8367 37.8609C51.5984 37.8715 51.7878 37.6377 51.5158 37.7216C51.5181 37.7076 51.5065 37.6914 51.4948 37.6751L51.5599 37.6286C51.5599 37.6286 51.5064 37.6053 51.4808 37.5868C51.44 37.4438 51.3958 37.2787 51.355 37.1358C51.3817 37.0184 51.3862 36.9044 51.2862 36.8162C51.2804 36.808 51.2769 36.7859 51.2711 36.7778L51.3292 36.7731C51.3292 36.7731 51.2745 36.7139 51.2512 36.6813C51.2361 36.643 51.2291 36.5988 51.2221 36.5546C51.2244 36.5407 51.1988 36.5221 51.2232 36.5046C51.2291 36.5128 51.2732 36.5058 51.293 36.5162C51.6055 36.1452 51.145 35.8967 51.0959 35.5875L51.2959 35.5921C51.0482 35.4864 51.2154 35.1701 51.1037 34.9796L51.1897 34.9795L51.0676 34.8947L51.2443 34.8667C51.222 34.6121 51.0452 34.3821 51.0229 34.1275L51.181 34.1251C50.8798 33.9102 51.1563 33.6264 51.0318 33.3835L51.0876 33.3928C51.1338 32.9417 51.0138 32.4989 50.924 32.0467C50.962 31.4294 51.0325 30.7889 51.1494 30.1273C51.4598 30.1144 51.0694 30.3936 51.4809 30.4189C51.3984 30.4411 51.3217 30.4713 51.2636 30.476C51.294 30.7248 51.207 31.0329 51.2222 31.2433C51.5652 31.3791 51.1435 31.7176 51.5934 31.8138C51.5261 31.9603 51.3728 32.1929 51.567 32.3614L51.5112 32.3521C51.5706 32.5555 51.6289 32.8089 51.9126 32.9133C51.514 33.0263 51.614 33.1146 51.4897 33.2158C51.6932 33.3285 51.6806 33.6203 51.8888 33.791C51.7133 33.8551 51.997 33.9595 51.7238 34.0073C52.3403 34.5254 52.2512 35.2776 51.9436 35.9648C52.1064 36.0205 52.4412 36.0761 52.6342 36.1225C52.6098 36.1399 52.5878 36.1434 52.5703 36.119C52.6378 36.2306 52.3845 36.3749 52.4461 36.4783C52.4461 36.4783 52.4202 36.4764 52.3683 36.4725C52.502 36.5736 52.1766 36.7203 52.4103 36.8236L52.3278 36.8457L52.4383 36.9142C52.3581 36.9224 52.2558 36.9341 52.2325 36.9016C52.2959 37.9013 52.9045 38.8553 52.9795 39.8712L52.8761 39.8469L53.0622 40.0211C53.0157 40.0421 52.982 40.0293 52.968 40.027C52.8578 40.3026 53.1508 40.5233 53.1312 40.7709C53.0929 40.786 53.0057 40.75 52.9487 40.7908C53.0813 40.8558 53.0395 40.9349 53 41C52.7022 40.6352 52.6623 40.0981 52.4273 39.7007M49.1606 39.6028C49.3004 39.97 49.4447 40.3094 49.5949 40.6569C49.4145 40.3187 49.2701 39.9794 49.1606 39.6028ZM48.1864 35.7998L48.2026 35.7021C48.2844 36.3321 48.4126 36.9412 48.5513 37.5305C48.2848 36.9343 48.0438 36.3567 48.1887 35.7858M51.9907 29.4642L52.1156 30.3092L52.4671 32.8118C52.3821 32.6759 52.3007 32.562 52.2239 32.4202C52.3442 31.6088 51.6417 30.9187 51.9841 30.1082C51.9864 30.0943 51.9992 30.0606 52.0015 30.0466C51.8212 29.8805 51.892 29.67 51.9988 29.4584M51.1622 30.0936C51.1622 30.0936 51.1947 29.9843 51.2098 29.9367C51.297 29.9726 51.3644 29.9982 51.1622 30.0936ZM51.2376 29.7693C51.2654 29.6018 51.3071 29.4367 51.3489 29.2716C51.4221 29.3053 51.3861 29.3925 51.4861 29.3948C51.5163 29.3855 51.5605 29.3785 51.607 29.3575C51.5686 29.3726 51.5361 29.3959 51.5036 29.4192C51.2909 29.5344 51.2608 29.7158 51.2794 29.7762C51.255 29.7937 51.2492 29.7855 51.2376 29.7693ZM51.7156 28.2717L51.6016 28.2671L51.6109 28.2113C51.6109 28.2113 51.733 28.2101 51.7643 28.1508C51.7585 28.1426 51.6783 28.1508 51.6364 28.1439C51.6387 28.1299 51.6434 28.102 51.6515 28.0962C51.7561 28.0705 51.8049 28.0356 51.8072 28.0217L51.8621 28.339C51.7063 28.3275 51.5749 28.2985 51.7318 28.26M49.7686 22.9883C49.7686 22.9883 49.7197 22.9372 49.7464 22.9058C49.2106 23.0677 49.8956 23.4753 49.2772 23.5733C49.5668 23.7719 48.9265 24.1315 49.2324 24.4906C49.1383 24.4964 49.0685 24.4848 49.0197 24.4337C48.899 24.7291 48.748 25.0337 48.5936 25.3163C48.431 25.6047 48.2882 25.9036 48.2082 26.1698C48.3701 26.7056 47.7206 27.2071 48.0453 27.7125C47.8827 28.0009 47.5912 28.5045 47.6625 28.9822L47.6217 28.9253C47.5081 29.4368 47.469 30.1041 47.6785 30.4829C47.2543 30.5774 47.2928 30.8203 47.136 31.0308C47.3036 31.4027 47.2018 32.1026 47.3416 32.6419C47.1475 32.7315 47.4395 33.0882 47.1489 33.1116C47.6532 34.6074 47.7032 36.379 47.7275 38.046C47.938 38.2028 48.2787 38.3525 48.5217 38.4861C48.5031 38.5116 48.4752 38.507 48.4578 38.4826C48.5742 38.7313 48.4163 39.0778 48.5467 39.3288C48.5467 39.3288 48.5122 39.3207 48.4432 39.3045C48.6503 39.5252 48.4052 39.9218 48.7343 40.1413L48.6693 40.1878L48.8379 40.3377C48.7554 40.3598 48.6706 40.3959 48.6217 40.3448C49.4683 42.7145 51.2307 44.6629 52.7897 46.5847L52.6699 46.5719L53.106 46.8379C53.106 46.8379 53.0316 46.8542 53.0095 46.8577C53.3087 47.4306 53.9563 47.7173 54.3705 48.1588C54.3298 48.1879 54.1996 48.195 54.2415 48.2879C54.7449 48.4073 54.5651 49.0154 55.0648 48.7687C55.0742 48.7989 54.9998 48.9012 54.9417 48.9059C55.8942 49.5156 56.763 50.2835 57.5691 51.0839L58.5218 52.0377L58.4268 50.6672C58.6485 50.2381 58.8971 49.8636 59.1653 49.4136L59.5915 48.703C59.7204 48.4879 59.8272 48.2763 59.9282 48.0565C60.2499 47.5436 60.3391 47.1355 60.5736 46.5867L60.691 46.6134C60.7008 45.5613 61.8326 44.7887 61.6866 43.6391C61.6889 43.6252 61.6772 43.6089 61.6877 43.5891L61.8098 43.6739C61.6644 43.4706 61.9676 43.1553 61.7094 43.0695L61.728 42.9579L61.8012 42.9055C61.7802 42.859 61.779 42.823 61.7639 42.7846C61.8567 42.3986 61.9436 42.0045 62.0212 41.5802C62.0897 41.3837 62.1384 41.1767 62.1057 40.9419L62.1335 40.7745L62.1742 40.8314C62.1602 40.7431 62.1578 40.671 62.1496 40.5908C62.1728 40.4513 62.1924 40.2897 62.1958 40.1397C62.2133 40.1641 62.2435 40.1548 62.2563 40.2071C62.7464 39.5 62.2995 38.6517 62.3107 37.8938L62.4967 37.982C62.293 37.6113 62.4147 36.9219 62.2574 36.4442L62.3551 36.4604L62.198 36.2408L62.3828 36.207C62.3673 35.5664 62.0321 34.9947 61.8958 34.3915L62.0539 34.3891C61.6873 33.8766 61.7369 33.1896 61.4273 32.6364L61.4971 32.648C61.3164 31.8797 60.9231 31.2267 60.5577 30.5782C60.4389 30.3435 60.2854 30.146 60.1422 29.9287C58.7584 27.2547 56.5525 24.4801 53.2273 21.7562C53.2912 21.6736 53.3411 21.5887 53.3166 21.4341L53.1539 21.5505C53.2224 21.354 53.1725 21.4389 53.2433 21.3144C53.0339 21.1077 53.2047 20.8995 52.9371 20.5253C52.9371 20.5253 52.9363 20.53 52.9348 20.5393C52.6453 20.5987 52.4487 20.2722 52.2986 20.0968L52.2345 19.9213C52.1134 19.5284 51.8057 20.1296 51.895 19.7215C51.8043 19.6635 51.7159 19.5915 51.5996 19.5148C51.3871 19.9741 51.1549 20.423 50.9367 20.8742C50.8531 21.0323 50.7695 21.1905 50.6836 21.3626C50.2863 21.8557 49.794 22.8348 49.7348 22.9755" fill="#E77622"/>
<path d="M47.6403 38.0601L47.6578 38.0845L47.6659 38.0787C47.6659 38.0787 47.6543 38.0625 47.6403 38.0601Z" fill="#E77622"/>
<path d="M52.8212 20.4483C52.8503 20.489 52.8794 20.5296 52.9084 20.5703C52.9154 20.5285 52.8445 20.4808 52.8212 20.4483Z" fill="#E77622"/>
<path d="M44.912 48.0144C44.912 48.0144 44.8981 48.0121 44.8923 48.0039L44.9039 48.0202L44.912 48.0144Z" fill="#E77622"/>
<path d="M39.6874 39.2844L39.6537 39.2716C39.6537 39.2716 39.6734 39.2821 39.6874 39.2844Z" fill="#E77622"/>
<path d="M38.0898 51.1108C38.0898 51.1108 38.0781 51.0945 38.07 51.1004L38.0816 51.1166L38.0898 51.1108Z" fill="#E77622"/>
<path d="M48.5806 59.7122C48.5717 60.2842 48.286 60.7958 47.9608 61.2866C48.9218 58.7797 49.6823 55.5801 49.4615 51.9021C49.5267 52.1997 49.6002 52.4914 49.6655 52.789C49.4786 55.1233 49.758 57.6283 48.5806 59.7122ZM44.7846 60.7306C44.7205 60.5551 44.6646 60.2878 44.6144 60.0286C44.5106 59.4881 44.4534 59.0127 44.3276 58.6477C44.2751 58.3165 44.1075 58.1166 43.9968 57.704L44.1038 57.6644C43.5001 57.1126 44.1121 56.1462 43.4526 55.5852L43.6165 55.5909C43.3654 55.5492 43.5593 55.2015 43.2595 55.2807L43.2408 55.2203L43.2826 55.1412C43.2826 55.1412 43.2314 55.1041 43.2 55.0773L42.9915 54.3044C43.0053 54.1347 42.9831 53.9661 42.8528 53.8012L42.8307 53.7186L42.8946 53.7221C42.8597 53.6733 42.8248 53.6245 42.7899 53.5757L42.7328 53.3583C42.7328 53.3583 42.7118 53.3118 42.7304 53.2863C42.7421 53.3025 42.7746 53.2793 42.8118 53.3141C43.0672 52.7257 42.4927 52.3006 42.3703 51.7857L42.5621 51.7961C42.2865 51.5998 42.3617 51.1034 42.1744 50.807L42.2604 50.807L42.0952 50.6792L42.2684 50.6291C42.1658 50.2107 41.918 49.847 41.7852 49.4379L41.9456 49.4215C41.5665 49.1149 41.7301 48.6044 41.4985 48.2291L41.5601 48.2465C41.3992 47.4887 41.0884 46.8135 40.7799 46.1243L38.9039 39.1181C38.9888 39.168 39.076 39.204 39.1783 39.1923L39.0248 39.0808C39.2154 39.1411 39.1224 39.097 39.2468 39.1679C39.3374 39.0539 39.5515 39.2328 39.6561 39.2931C39.6561 39.2931 39.6503 39.285 39.6445 39.2769C39.5118 39.0398 39.6386 39.0967 39.6641 39.1153L39.734 39.2129C39.8318 39.4872 39.5615 38.6108 39.7223 39.1106C39.7385 39.0129 39.7767 38.8258 39.8209 38.8188C39.8721 38.8559 39.9244 38.9291 39.9872 38.9826C40.0546 38.836 40.0745 39.1046 40.1754 38.7988C40.071 39.1685 40.0118 39.2232 40.1723 39.3788C40.1479 39.3963 40.1235 39.4137 40.1142 39.3835C39.9599 39.8382 40.5989 39.3565 40.3656 39.8553C40.6723 39.6482 40.5449 40.2435 40.9505 40.0886C40.9028 40.1596 40.8517 40.2084 40.8029 40.2433C41.0473 40.5849 41.2173 41.0289 41.4209 41.3136C41.8557 41.3714 41.7421 41.969 42.2327 41.9501C42.2735 42.1791 42.3086 42.572 42.6133 42.7229L42.5552 42.7276C42.753 43.0041 43.0136 43.3341 43.3519 43.4118C43.0371 43.7107 43.1813 43.792 43.1349 43.985C43.4047 44.0872 43.5712 44.509 43.884 44.7402C43.7411 44.867 44.0853 44.9528 43.854 45.0936C44.7298 45.7335 45.0444 46.947 44.9358 48.0328C45.1242 48.1071 45.4892 48.1533 45.6974 48.2381C45.673 48.2555 45.6346 48.2707 45.6253 48.2404C45.7196 48.4066 45.5 48.6497 45.5861 48.8217C45.5861 48.8217 45.5555 48.819 45.4943 48.8136C45.6571 48.9553 45.3632 49.2148 45.6237 49.3727L45.5551 49.3971L45.6889 49.4982C45.6005 49.5122 45.4599 49.539 45.4796 49.4635C45.7166 51.0152 46.3442 52.6318 46.1801 54.3105L46.0976 54.2467L46.2222 54.5756C46.2222 54.5756 46.1547 54.55 46.135 54.5396C45.9341 54.9291 46.1878 55.387 46.073 55.7765C46.0311 55.7695 45.9509 55.6917 45.8916 55.7464C46.0941 56.081 45.5001 56.1616 45.985 56.3927C45.9606 56.4101 45.849 56.3916 45.806 56.3486C45.8518 57.1518 45.5828 58.168 45.3992 58.4099C45.5192 58.8528 45.402 59.1702 45.3185 59.4144C45.2303 59.6864 45.1409 59.8364 45.0136 60.6898L45.018 60.4038C44.9856 60.5991 44.9381 60.8421 44.894 60.9351C44.8707 60.9026 44.8242 60.8375 44.7962 60.7469M39.0013 49.843L39.0474 50.9043C38.9053 50.551 38.7551 50.2036 38.9781 49.8965C38.9944 49.8849 38.9909 49.8628 39.0013 49.843ZM38.6327 42.2628L38.8577 46.909C38.7878 46.7254 38.7179 46.5418 38.6341 46.3558C38.8334 45.2421 38.1433 44.1742 38.5902 43.08C38.4099 42.8279 38.5062 42.55 38.6246 42.2686M38.7381 58.2072C38.6229 57.9946 38.5333 57.8005 38.4591 58.1609L38.4357 57.8703C38.3405 58.0982 38.1263 57.6612 37.9935 57.2521C37.8596 56.807 37.7582 56.4246 37.6208 56.1294C37.5555 55.8319 37.3939 55.7262 37.2809 55.4136L37.3878 55.374C36.7994 54.9465 37.4219 54.1324 36.8323 53.669L36.9962 53.6747C36.7509 53.6411 36.9634 53.3538 36.6601 53.411C36.6484 53.3947 36.6507 53.3808 36.6472 53.3587L36.7007 53.2959C36.7007 53.2959 36.6495 53.2587 36.6239 53.2401C36.5808 53.0251 36.5457 52.8043 36.5084 52.5974C36.5397 52.452 36.5408 52.316 36.4361 52.1696C36.4326 52.1475 36.4291 52.1254 36.4256 52.1034L36.4814 52.1126C36.4523 52.072 36.4232 52.0313 36.4022 51.9848C36.3976 51.9267 36.3789 51.8662 36.3742 51.8081C36.3847 51.7884 36.3672 51.764 36.3777 51.7442C36.3893 51.7605 36.4195 51.7511 36.4509 51.7778C36.8133 51.3219 36.3283 50.9189 36.3083 50.4783L36.4955 50.5165C36.2698 50.3214 36.4649 49.9237 36.3589 49.6552L36.4426 49.6691L36.3158 49.5262L36.496 49.5203C36.49 49.1681 36.3677 48.8252 36.3617 48.473L36.5151 48.4985C36.2568 48.1545 36.5368 47.8068 36.4668 47.4511L36.5203 47.4743C36.6222 46.8605 36.5939 46.2537 36.59 45.6294C36.8577 44.2331 37.2706 42.7821 37.8869 41.2716C37.9161 41.4844 37.9232 41.7006 37.9385 41.911C38.0815 41.9562 37.9398 42.2051 38.2141 42.1073C37.9015 42.2202 37.8307 42.5167 37.8483 42.6271C37.8204 42.6225 37.7843 42.6237 37.7948 42.6039C37.3915 42.8308 38.1936 42.835 37.6904 43.0597C38.0462 43.0757 37.5942 43.4236 38.0162 43.5151C37.9395 43.5454 37.8651 43.5617 37.8035 43.5443C37.8095 43.8966 37.7005 44.2942 37.6995 44.6023C38.0182 44.8415 37.5872 45.2359 38.029 45.4239C37.9408 45.61 37.7818 45.9205 37.9644 46.1586L37.9109 46.1354C37.9564 46.4225 37.9904 46.7794 38.2683 46.9617C37.8639 47.0666 37.9511 47.1886 37.8222 47.3177C38.028 47.5024 37.9853 47.8896 38.1749 48.1719C37.9878 48.2197 38.2716 48.4102 37.9949 48.4359C38.565 49.233 38.432 50.2503 38.0675 51.1503C38.2292 51.2559 38.5548 51.3673 38.7466 51.4637C38.7222 51.4811 38.6804 51.4742 38.6769 51.4521C38.7374 51.6055 38.4736 51.7696 38.5261 51.9288C38.5261 51.9288 38.4962 51.9215 38.4365 51.9068C38.5633 52.0497 38.2333 52.2243 38.4554 52.3973L38.3811 52.4137L38.4927 52.5182C38.3986 52.5241 38.2625 52.523 38.2939 52.4637C38.2726 53.7576 38.8283 55.5486 38.7821 55.9997L38.689 55.8695C38.7506 55.9729 38.81 56.0903 38.8671 56.2216C38.8147 56.1484 38.7914 56.1159 38.7623 56.0752C38.6007 55.9695 38.894 56.6203 38.8627 56.7657C38.8092 56.6564 38.7335 56.4647 38.6532 56.3008C38.9432 57.1016 38.2912 55.5024 38.8874 57.0923C38.8571 57.0156 38.7325 56.6867 38.6778 56.5414C38.7827 56.9459 38.841 57.2853 38.8597 57.5178C38.8691 57.634 38.8715 57.7061 38.8622 57.7619C38.8553 57.8038 38.8518 57.8677 38.7633 57.6236C38.9569 58.6163 38.8115 58.4129 38.7137 58.2247M38.3957 40.625C38.3957 40.625 38.4747 40.6668 38.5329 40.6621L38.5387 40.7563C38.3957 40.711 38.2608 40.6599 38.4038 40.6192M38.4688 40.4866C38.4688 40.4866 38.2328 40.4833 38.3107 40.403C38.3909 40.3948 38.4432 40.382 38.4676 40.3645C38.5141 40.4296 38.5607 40.4947 38.5026 40.5854L38.3945 40.5889C38.3945 40.5889 38.4061 40.6052 38.4119 40.6133L38.2922 40.6006C38.2491 40.4716 38.4328 40.5738 38.4793 40.4668M39.1454 38.6134C39.229 38.4553 39.3207 38.2913 39.4124 38.1273C39.4428 38.3761 39.4639 38.5946 39.3917 38.4249L39.4441 38.5842C39.4047 38.7353 39.3615 38.4343 39.2824 38.4785C39.2732 38.5343 39.407 38.7214 39.3291 38.7156C39.2244 38.5692 39.1744 38.5681 39.1477 38.5995M43.826 43.1464C43.6539 42.9745 43.4736 42.8084 43.2991 42.6504C42.8159 41.3731 41.5088 40.6974 41.1186 39.3782C40.7953 39.2529 40.6603 38.9438 40.5438 38.609L40.5322 38.5928C41.8735 40.1415 42.9753 41.6648 43.826 43.1464ZM45.7655 47.5254C45.5037 47.1594 45.2419 46.7934 45.3533 46.3818C45.3498 46.3597 45.3463 46.3376 45.3567 46.3179C45.5116 46.7235 45.6385 47.1245 45.7655 47.5254ZM48.0484 45.3885C48.0484 45.3885 48.06 45.4048 48.0577 45.4187C47.833 44.8295 47.5827 44.2217 47.2963 43.615C47.6954 44.1902 48.0945 44.7654 48.0484 45.3885ZM46.5354 64.6052L46.6273 64.6993C46.5194 64.9609 46.4843 64.6541 46.3344 64.8227C46.3066 64.9041 46.5194 64.9609 46.3706 65.0796C46.2323 65.0065 46.1532 65.0507 46.0917 65.1193C46.2473 64.8728 46.4017 64.5902 46.5666 64.2878C46.6306 64.4633 46.6912 64.6167 46.5273 64.611M50.1981 56.8341C50.0175 56.2378 50.503 55.4726 50.1248 54.9439C50.2618 54.5509 50.4845 53.8998 50.2854 53.3291L50.3319 53.3942C50.2885 52.7491 50.3147 51.9434 49.9657 51.5414C50.3527 51.3261 50.2468 51.0577 50.3454 50.7658C50.0964 50.3661 50.0981 49.4919 49.7513 48.9039C49.9163 48.7736 49.5546 48.4053 49.8149 48.3052C49.5821 47.8938 49.4063 47.4417 49.2247 46.9815C49.0128 46.5306 48.8335 46.0564 48.6844 45.5729C48.4187 44.5827 48.0705 43.6146 47.8363 42.651C47.5897 42.4954 47.184 42.3922 46.9188 42.2622C46.9316 42.2284 46.9699 42.2133 46.9909 42.2598C46.7954 41.9693 46.8463 41.5763 46.6206 41.2952C46.6532 41.2719 46.6532 41.2719 46.7345 41.2997C46.4554 41.0814 46.5702 40.6059 46.183 40.391L46.2283 40.3341L46.0096 40.1831C46.0828 40.1307 46.2141 40.0737 46.2572 40.2027L45.6731 39.2312C45.452 38.9221 45.1984 38.6363 44.9529 38.3447C44.4539 37.7673 43.9548 37.1898 43.4557 36.6124L41.7912 35.0243L40.0836 33.3073L40.2487 33.349L39.5765 32.9077C39.5765 32.9077 39.6218 32.8507 39.6497 32.8554C39.4787 32.6334 39.2774 32.4208 39.0855 32.2384C38.5989 32.9676 38.1125 33.9549 37.8569 34.2852C37.8255 34.2585 37.8068 34.112 37.7115 34.1679C37.7023 34.2237 37.693 34.2795 37.6779 34.3271L37.6489 34.3725C37.4562 34.7562 37.0226 34.8204 37.2809 35.2504C37.2507 35.2597 37.1437 35.2133 37.1332 35.147C36.8233 35.8482 36.4203 36.5053 36.0906 37.196C35.7528 37.8925 35.3952 38.5786 35.0201 39.2403C35.0012 40.6062 34.0487 41.767 34.0973 43.1584L34.0101 43.1224C33.8496 44.8232 33.2787 46.5348 33.2264 48.318C33.1838 49.0493 33.2946 49.5479 33.3101 50.2744L33.1916 50.2978C33.4721 50.8963 33.4214 51.5473 33.3904 52.2087C33.4176 52.8655 33.418 53.5537 33.795 54.1324L33.6241 54.0825C33.8892 54.2125 33.7629 54.7578 34.0441 54.7042C34.0511 54.7483 34.0721 54.7948 34.0791 54.839L34.0489 54.9343C34.0489 54.9343 34.0955 54.9994 34.1187 55.0319C34.2516 55.5271 34.3926 56.0164 34.5521 56.4801C34.5906 56.723 34.671 56.9729 34.8153 57.2263C34.8398 57.2948 34.8665 57.3494 34.891 57.418L34.8294 57.4006C34.8817 57.4738 34.9341 57.547 34.9783 57.626C35.0447 57.7876 35.1087 57.9631 35.1751 58.1246L35.1867 58.1409C35.1634 58.1084 35.1367 58.1398 35.0879 58.0886C35.0455 59.0779 35.8852 59.8051 36.3229 60.6232L36.109 60.6164C36.5102 60.9195 36.7537 61.7412 37.1597 62.1885L37.0632 62.2084L37.3249 62.4023L37.1785 62.507C37.5916 63.1706 38.1522 63.6794 38.6617 64.237L38.5141 64.3057C39.184 64.675 39.4576 65.4874 40.0369 65.9706L39.9648 65.973C40.1754 66.2158 40.4022 66.447 40.629 66.6782L41.4119 67.4461C41.9248 67.9398 42.3761 68.3301 42.753 68.6507C42.7448 68.5705 42.7284 68.4961 42.7261 68.424L42.4929 63.6975L43.7956 68.5443L45.504 65.9822C45.5924 66.0543 45.6877 66.0844 45.847 66.032L45.7306 65.8693C45.9259 65.9018 45.8387 65.8658 45.9736 65.9168C46.1966 65.6098 46.4582 65.7177 46.7022 65.5432C46.7022 65.5432 46.7022 65.5432 46.6906 65.527C46.5928 65.2527 46.8345 65.0921 46.9309 64.9862L47.053 64.985C47.2924 65.0104 46.8922 64.3992 47.1597 64.6873C47.4441 63.9676 47.8539 63.1827 48.1801 62.3838C48.0939 62.2118 48.4517 61.7838 48.1181 61.8503C48.5098 61.7791 48.7931 61.1954 48.8604 60.9629C48.8778 60.9873 48.9116 61 48.8907 61.0396C49.4357 60.7358 48.7089 60.4073 49.333 60.1453C49.0167 59.9781 49.6557 59.4104 49.3195 59.0608C49.4102 59.0328 49.4822 59.0304 49.5416 59.0618C49.7805 58.313 50.0416 57.4747 50.1783 56.8236" fill="#E77622"/>
<path d="M47.847 42.6319C47.847 42.6319 47.8668 42.6423 47.8807 42.6446L47.8633 42.6202L47.847 42.6319Z" fill="#E77622"/>
<path d="M46.8223 65.4702C46.8223 65.4702 46.7653 65.5109 46.7328 65.5342C46.7665 65.547 46.7897 65.4935 46.8223 65.4702Z" fill="#E77622"/>
</svg>
